<?xml version="1.0" standalone="no"?>
<!DOCTYPE svg PUBLIC "-//W3C//DTD SVG 1.1//EN" "http://www.w3.org/Graphics/SVG/1.1/DTD/svg11.dtd" >
<svg xmlns="http://www.w3.org/2000/svg">
<metadata></metadata>
<defs>
<font id="latomedium" horiz-adv-x="1187" >
<font-face units-per-em="2048" ascent="1649" descent="-399" />
<missing-glyph horiz-adv-x="517" />
<glyph horiz-adv-x="0" />
<glyph horiz-adv-x="0" />
<glyph horiz-adv-x="682" />
<glyph unicode=" "  horiz-adv-x="517" />
<glyph unicode="&#x09;" horiz-adv-x="517" />
<glyph unicode="&#xa0;" horiz-adv-x="517" />
<glyph unicode="!" horiz-adv-x="557" d="M141 120q0 28 10.5 52.5t29 42.5t43 29t52.5 11t52.5 -11t43 -29t29.5 -43t11 -52q0 -29 -11 -53.5t-29.5 -43t-43 -28.5t-52.5 -10q-29 0 -53 10t-42.5 28.5t-29 43t-10.5 53.5zM184 885v585h191v-585q0 -46 -2 -90t-5.5 -88.5t-9 -92t-11.5 -99.5h-135q-6 52 -11 99.5 t-9 92t-6 88.5t-2 90z" />
<glyph unicode="&#x22;" horiz-adv-x="772" d="M124 1175v295h174v-295l-18 -160q-5 -36 -20 -55.5t-50 -19.5q-30 0 -46 19.5t-22 55.5zM474 1175v295h174v-295l-18 -160q-5 -36 -20 -55.5t-50 -19.5q-30 0 -46 19.5t-22 55.5z" />
<glyph unicode="#" d="M55 512l10 65h205l63 319h-233l15 84q5 33 25.5 48t63.5 15h150l71 357q6 33 30.5 51.5t57.5 18.5h90l-84 -427h243l83 427h89q33 0 51.5 -20t11.5 -53l-70 -354h214l-16 -85q-5 -32 -25.5 -47t-63.5 -15h-131l-63 -319h174q32 0 45.5 -19t6.5 -64l-9 -65h-239l-84 -429 h-90q-14 0 -27 6.5t-21 18.5t-11.5 27.5t0.5 33.5l68 343h-241l-69 -353q-8 -41 -33.5 -58.5t-58.5 -17.5h-88l84 429h-141q-31 0 -45.5 18.5t-7.5 64.5zM435 577h242l63 319h-242z" />
<glyph unicode="$" d="M92 176l61 92q9 12 22 20.5t30 8.5q20 0 45 -18.5t60 -42.5t82.5 -47t114.5 -32l38 521q-72 22 -141.5 49t-125 71.5t-89 111t-33.5 166.5q0 76 29.5 147.5t86.5 128t140.5 92.5t190.5 40l10 143q1 20 16.5 36.5t39.5 16.5h73l-14 -201q108 -14 186 -57t138 -102l-48 -74 q-22 -34 -51 -34q-14 0 -35 12.5t-50 28.5t-67 32.5t-85 24.5l-35 -477q74 -23 146 -50t129.5 -69t92.5 -105t35 -158q0 -92 -31 -174t-90.5 -144.5t-146 -101.5t-196.5 -46l-13 -171q-1 -20 -16.5 -37t-38.5 -17h-74l17 228q-122 13 -225.5 62.5t-177.5 125.5zM344 1096 q0 -46 16.5 -81t45.5 -61t68.5 -45.5t84.5 -36.5l32 440q-65 -6 -111.5 -25.5t-76.5 -48.5t-44.5 -65.5t-14.5 -76.5zM632 156q128 13 195.5 83t67.5 180q0 48 -18 83t-48.5 61t-72 44.5t-88.5 33.5z" />
<glyph unicode="%" horiz-adv-x="1650" d="M87 1115q0 88 25 156.5t69 116.5t104 73t131 25t130.5 -25t104 -73t69.5 -116.5t25 -156.5q0 -86 -27 -153.5t-72 -114t-105 -71.5t-125 -25q-71 0 -131 25t-104 71.5t-69 114t-25 153.5zM178 0l1079 1438q11 13 26 22.5t42 9.5h144l-1079 -1438q-11 -14 -26.5 -23 t-36.5 -9h-149zM244 1115q0 -63 13 -107.5t36 -72.5t55 -40t68 -12t67.5 12t55 40t37.5 72.5t14 107.5q0 66 -14 111.5t-37.5 73.5t-55 41t-67.5 13t-68 -13t-55 -41t-36 -73.5t-13 -111.5zM905 347q0 88 25 156.5t69 116.5t104 72.5t131 24.5t130.5 -24.5t104 -72.5 t70 -116.5t25.5 -156.5q0 -86 -27.5 -153.5t-72.5 -114t-105 -71.5t-125 -25q-71 0 -131 25t-104 71.5t-69 114t-25 153.5zM1062 347q0 -65 13.5 -108.5t36.5 -71.5t54 -40t68 -12q36 0 67.5 12t55 40t37.5 71.5t14 108.5q0 66 -14 111t-37.5 73t-55 41t-67.5 13 q-37 0 -68 -13t-54 -41t-36.5 -73t-13.5 -111z" />
<glyph unicode="&#x26;" horiz-adv-x="1464" d="M87 395q0 71 23.5 135t65.5 117.5t100 96.5t125 74q-60 79 -88 153.5t-28 151.5q0 75 27.5 141.5t78.5 116t125.5 78t167.5 28.5q83 0 151 -26t117 -70t77.5 -101.5t32.5 -120.5l-125 -25q-38 -8 -55 34q-8 27 -23 54.5t-39 49.5t-58 36t-78 14q-49 0 -88.5 -16.5 t-67 -44.5t-42.5 -66t-15 -81q0 -34 8 -66t25 -64t43.5 -65.5t63.5 -71.5l415 -425q38 68 60.5 142.5t29.5 149.5q2 20 13 32.5t31 12.5h124q-1 -123 -38 -239t-104 -216l307 -314h-195q-33 0 -51.5 7.5t-42.5 32.5l-136 137q-96 -90 -220.5 -141.5t-273.5 -51.5 q-83 0 -162 28t-141.5 81t-101 129.5t-38.5 172.5zM291 412q0 -63 23 -113t61.5 -84t88 -51.5t101.5 -17.5q109 0 196 38.5t154 103.5l-423 427q-101 -56 -151 -134.5t-50 -168.5z" />
<glyph unicode="'" horiz-adv-x="421" d="M124 1175v295h174v-295l-18 -160q-5 -36 -20 -55.5t-50 -19.5q-30 0 -46 19.5t-22 55.5z" />
<glyph unicode="(" horiz-adv-x="550" d="M88 643q0 126 15.5 246t48.5 237t87 233.5t131 233.5l89 -54q17 -11 25.5 -29.5t-9.5 -52.5q-104 -184 -158.5 -390.5t-54.5 -423.5t54.5 -423t158.5 -390q17 -34 9 -52.5t-25 -29.5l-89 -54q-77 118 -131 234t-87 233.5t-48.5 237t-15.5 244.5z" />
<glyph unicode=")" horiz-adv-x="550" d="M66 -222.5q-9 18.5 9 52.5q104 184 159 390t55 423t-55 423.5t-159 390.5q-17 34 -8.5 52.5t25.5 29.5l89 54q77 -118 130.5 -234t87 -233t49 -237t15.5 -246q0 -125 -15.5 -244.5t-49 -237t-87 -233.5t-130.5 -234l-89 54q-17 11 -26 29.5z" />
<glyph unicode="*" horiz-adv-x="870" d="M121 1338l48 84l173 -101q18 -11 33 -23.5t26 -28.5q-8 17 -11.5 36.5t-3.5 40.5v199h97v-197q0 -20 -2.5 -39.5t-9.5 -36.5q11 15 25.5 26.5t31.5 22.5l172 99l49 -84l-172 -99q-17 -10 -34.5 -17.5t-35.5 -9.5q35 -4 70 -25l173 -102l-49 -84l-173 102q-18 11 -33.5 23 t-26.5 28q15 -36 15 -77v-198h-97v197q0 20 2.5 38t10.5 36q-11 -14 -25.5 -25.5t-31.5 -21.5l-172 -101l-48 84l172 101q18 10 35.5 16.5t37.5 8.5q-39 5 -73 27z" />
<glyph unicode="+" d="M101 611v152h411v433h163v-433h412v-152h-412v-435h-163v435h-411z" />
<glyph unicode="," horiz-adv-x="468" d="M104 134q0 25 9.5 47t26.5 38.5t40.5 26t51.5 9.5q33 0 58 -12t42 -33t25.5 -48.5t8.5 -59.5q0 -46 -13.5 -97t-39 -101t-63.5 -97.5t-86 -87.5l-34 32q-15 14 -15 32q0 7 4.5 14.5t11.5 15.5q10 11 26.5 29.5t32.5 42.5t29.5 53t20.5 62h-10q-28 0 -50.5 10t-39.5 28 t-26.5 42.5t-9.5 53.5z" />
<glyph unicode="-" horiz-adv-x="761" d="M125 530v170h512v-170h-512z" />
<glyph unicode="." horiz-adv-x="483" d="M108 120q0 28 10 52.5t28 42.5t42.5 29t53.5 11q28 0 52 -11t42.5 -29t29.5 -43t11 -52q0 -29 -11 -53.5t-29.5 -43t-43 -28.5t-51.5 -10q-29 0 -53.5 10t-42.5 28.5t-28 43t-10 53.5z" />
<glyph unicode="/" horiz-adv-x="932" d="M67 -93l610 1532q14 35 41 53.5t63 18.5h85l-607 -1527q-14 -39 -45 -58t-63 -19h-84z" />
<glyph unicode="0" d="M59 735q0 193 41 334.5t113 234.5t169.5 138t210.5 45t210.5 -45t170 -138t113.5 -234.5t41 -334.5t-41 -334t-113.5 -233.5t-170 -137.5t-210.5 -45t-210.5 45t-169.5 137.5t-113 234t-41 333.5zM265 735q0 -166 26.5 -277.5t72.5 -179t105 -96t124 -28.5t124 28.5 t104.5 96t73 179t27.5 277.5t-27.5 277.5t-73 180t-105 97t-123.5 28.5q-65 0 -124 -28.5t-105 -97t-72.5 -180t-26.5 -277.5z" />
<glyph unicode="1" d="M160 1094l440 380h163v-1321h284v-153h-795v153h311v963q0 46 3 95l-250 -212q-14 -11 -28.5 -14t-27 -1t-22.5 8.5t-16 14.5z" />
<glyph unicode="2" d="M92 0v69q0 20 8.5 43t27.5 42l465 466q58 58 105 112t80 108t51 110.5t18 118.5q0 61 -19.5 108t-53.5 77.5t-80 46t-99 15.5t-97.5 -15.5t-79.5 -43t-58.5 -65.5t-33.5 -82q-14 -39 -36.5 -52.5t-64.5 -5.5l-104 18q14 102 56 180t105.5 131t146 79.5t177.5 26.5 q96 0 177.5 -28t141 -81.5t93.5 -130t34 -172.5q0 -82 -24 -152t-65.5 -133.5t-96.5 -123.5t-116 -121l-373 -381q43 11 86.5 18t82.5 7h464q33 0 51 -18.5t18 -49.5v-121h-987z" />
<glyph unicode="3" d="M83 369l87 37q34 14 65.5 8t46.5 -36q15 -31 35 -69.5t53.5 -72.5t84.5 -57.5t128 -23.5q74 0 129 24t92 62.5t55.5 85.5t18.5 93q0 57 -14.5 105t-55 82.5t-112 54t-186.5 19.5v145q94 1 159 19.5t105 51.5t58 78t18 100q0 60 -18.5 105.5t-52 75.5t-79 45t-98.5 15 t-98 -15.5t-80 -43t-58.5 -65.5t-33.5 -82q-14 -39 -36.5 -52.5t-63.5 -5.5l-105 18q15 102 57 180t105.5 131t146 79.5t177.5 26.5t175 -27t137 -77t89 -119.5t32 -153.5q0 -71 -17.5 -125t-50 -95t-78.5 -69t-103 -47q140 -39 210.5 -126.5t70.5 -221.5q0 -103 -39 -185.5 t-106.5 -139.5t-157 -87t-190.5 -30q-116 0 -199 28t-141.5 78.5t-96.5 122t-65 156.5z" />
<glyph unicode="4" d="M19 526l711 945h189v-934h213v-116q0 -17 -11.5 -29.5t-31.5 -12.5h-170v-379h-176v379h-645q-23 0 -38 12.5t-20 32.5zM237 537h506v573q0 30 1.5 63t7.5 69z" />
<glyph unicode="5" d="M109 143l61 86q19 29 52 29q22 0 48 -16t62 -35.5t85 -35t117 -15.5q75 0 134.5 24t101 68t63.5 105.5t22 135.5q0 67 -19.5 120.5t-58.5 91t-97 57.5t-136 20q-109 0 -232 -39l-126 37l120 694h705v-87q0 -43 -27.5 -70t-90.5 -27h-448l-63 -364q113 24 204 23 q115 0 203 -34t147.5 -94t90 -141.5t30.5 -176.5q0 -117 -41 -212.5t-113 -163t-169.5 -103.5t-210.5 -36q-67 0 -126.5 13t-112 35t-97 51t-78.5 60z" />
<glyph unicode="6" d="M104 489q0 98 42.5 207.5t135.5 233.5l367 492q15 20 43 34t64 14h178l-436 -546q-17 -23 -34.5 -44t-32.5 -41q49 32 109 49t130 17q87 0 165.5 -28.5t138.5 -84t95 -137.5t35 -188q0 -101 -37 -190t-104 -154t-160 -102t-207 -37q-113 0 -203.5 35.5t-154.5 101.5 t-99 160t-35 208zM297 456q0 -68 19.5 -124.5t57.5 -96t92.5 -62t125.5 -22.5t128 23t98 62.5t63.5 95t22.5 120.5q0 71 -22 126.5t-61.5 94.5t-94.5 59.5t-123 20.5q-71 0 -127 -24t-96 -64.5t-61.5 -95t-21.5 -113.5z" />
<glyph unicode="7" d="M106 1334v136h1004v-89q0 -39 -8.5 -63t-17.5 -41l-596 -1206q-14 -30 -39.5 -50.5t-68.5 -20.5h-143l605 1189q15 29 30.5 53t33.5 44h-751q-19 0 -34 14.5t-15 33.5z" />
<glyph unicode="8" d="M94 404q0 139 71.5 230.5t208.5 132.5q-114 43 -171.5 128.5t-57.5 203.5q0 82 32.5 153t91.5 123t142 82t183 30t183 -30t142 -82t91 -123t32 -153q0 -118 -57 -203.5t-171 -128.5q137 -41 208.5 -132t71.5 -231q0 -96 -36.5 -173.5t-102.5 -132.5t-158 -84.5 t-203 -29.5t-203 29.5t-158 84.5t-102.5 132.5t-36.5 173.5zM301 409q0 -58 19.5 -107.5t57.5 -85t92 -55t124 -19.5t124 19.5t92 55t57.5 84.5t19.5 108q0 72 -23.5 123.5t-63.5 84.5t-93.5 49t-112.5 16q-60 0 -113.5 -16t-93.5 -49t-63 -85t-23 -123zM340 1095 q0 -48 14 -94t44 -81t78 -56.5t118 -21.5q69 0 117.5 21.5t78.5 56.5t44 81t14 94q0 49 -16 92t-47.5 75.5t-79.5 51.5t-111 19t-111 -19t-79.5 -51.5t-47.5 -75.5t-16 -92z" />
<glyph unicode="9" d="M101 1022q0 96 36 181t101 148t155.5 99.5t199.5 36.5q108 0 195.5 -35t148.5 -98t95 -151t34 -193q0 -65 -12 -123.5t-34 -113.5t-53 -109t-71 -110l-353 -507q-14 -20 -41.5 -33.5t-62.5 -13.5h-183l450 582q40 52 74 102q-55 -42 -123 -63.5t-145 -21.5 q-81 0 -155 27.5t-131 81.5t-91 133t-34 181zM302 1036q0 -136 74 -209.5t205 -73.5q71 0 125 23t91.5 61.5t56.5 89t19 105.5q0 67 -21 120.5t-58.5 91t-89.5 57.5t-114 20q-65 0 -118 -21t-91 -59t-58.5 -90.5t-20.5 -114.5z" />
<glyph unicode=":" horiz-adv-x="516" d="M124 120q0 28 10 52.5t28 42.5t42.5 29t53.5 11q28 0 52 -11t42.5 -29t29.5 -43t11 -52q0 -29 -11 -53.5t-29.5 -43t-43 -28.5t-51.5 -10q-29 0 -53.5 10t-42.5 28.5t-28 43t-10 53.5zM124 878q0 28 10 52.5t28 42.5t42.5 29t53.5 11q28 0 52 -11t42.5 -29t29.5 -43 t11 -52q0 -29 -11 -53.5t-29.5 -43t-43 -28.5t-51.5 -10q-29 0 -53.5 10t-42.5 28.5t-28 43t-10 53.5z" />
<glyph unicode=";" horiz-adv-x="540" d="M135 878q0 28 10 52.5t28 42.5t42.5 29t53.5 11q28 0 52 -11t42.5 -29t29.5 -43t11 -52q0 -29 -11 -53.5t-29.5 -43t-43 -28.5t-51.5 -10q-29 0 -53.5 10t-42.5 28.5t-28 43t-10 53.5zM140 134q0 25 9.5 47t26.5 38.5t40.5 26t51.5 9.5q33 0 58 -12t42 -33t25.5 -48.5 t8.5 -59.5q0 -46 -13.5 -97t-39 -101t-63.5 -97.5t-86 -87.5l-34 32q-15 14 -15 32q0 7 4.5 14.5t11.5 15.5q10 11 26.5 29.5t32.5 42.5t29.5 53t20.5 62h-10q-28 0 -50.5 10t-39.5 28t-26.5 42.5t-9.5 53.5z" />
<glyph unicode="&#x3c;" d="M163 648v82l796 415v-144q0 -17 -8.5 -31.5t-28.5 -25.5l-439 -221q-42 -22 -95 -34q53 -12 95 -34l439 -221q20 -11 28.5 -25.5t8.5 -31.5v-144z" />
<glyph unicode="=" d="M151 439v152h886v-152h-886zM151 787v152h886v-152h-886z" />
<glyph unicode="&#x3e;" d="M228 233v144q0 17 9 31.5t29 25.5l439 221q41 22 95 34q-54 12 -95 34l-439 221q-20 11 -29 25.5t-9 31.5v144l797 -415v-82z" />
<glyph unicode="?" horiz-adv-x="922" d="M81 1339q33 30 71.5 56.5t85 47t100 32.5t116.5 12q83 0 153 -23.5t120.5 -67.5t79.5 -106t29 -139q0 -78 -23 -135t-58 -98.5t-76.5 -73t-78 -59t-62.5 -55t-31 -60.5l-20 -155h-136l-14 169q-5 47 16.5 82t55.5 65t76 59t78 64t60.5 79.5t24.5 106.5q0 42 -16.5 75.5 t-45 57.5t-67.5 37t-83 13q-61 0 -104 -15t-73.5 -32.5t-50 -32t-32.5 -14.5q-30 0 -43 25zM280 120q0 28 10 52.5t28 42.5t42.5 29t53.5 11q28 0 52 -11t42.5 -29t29.5 -43t11 -52q0 -29 -11 -53.5t-29.5 -43t-43 -28.5t-51.5 -10q-29 0 -53.5 10t-42.5 28.5t-28 43 t-10 53.5z" />
<glyph unicode="@" horiz-adv-x="1717" d="M103 586q0 111 28.5 214t79.5 193t124 165t161 128t190 82.5t214 29.5q95 0 186.5 -21t171.5 -61.5t148.5 -99.5t117 -136.5t76 -171t27.5 -202.5q0 -111 -31.5 -205t-87 -163.5t-130.5 -109t-163 -39.5q-77 0 -128.5 37t-66.5 115q-59 -80 -128.5 -114t-149.5 -34 q-61 0 -107 21.5t-77 59t-45.5 89.5t-14.5 112q0 87 33 175.5t99 160.5t164.5 117t228.5 45q71 0 124 -11.5t101 -31.5l-96 -373q-19 -75 -18.5 -121.5t14.5 -73t39.5 -36.5t56.5 -10q48 0 91.5 28.5t76.5 80t52.5 123.5t19.5 158q0 139 -44.5 244.5t-123 175t-185 105 t-231.5 35.5q-136 0 -255 -52t-206.5 -143t-138 -215.5t-50.5 -269.5q0 -172 54 -303t148 -219t221 -132.5t272 -44.5q156 0 274.5 33t201.5 83q23 13 39.5 8t24.5 -25l27 -74q-109 -72 -250 -115t-317 -43q-180 0 -333.5 57t-267 164t-177.5 261t-64 350zM653 480 q0 -72 32.5 -114t95.5 -42q31 0 62 9.5t59.5 34t53 65.5t40.5 105l77 299q-39 8 -82 8q-74 0 -135.5 -31.5t-107 -82t-70.5 -116.5t-25 -135z" />
<glyph unicode="A" horiz-adv-x="1395" d="M2 0l586 1470h220l586 -1470h-168q-29 0 -47.5 14.5t-26.5 36.5l-130 341h-648l-130 -341q-7 -19 -26.5 -35t-47.5 -16h-168zM434 548h529l-219 570q-24 58 -47 148q-11 -44 -22.5 -82t-23.5 -68z" />
<glyph unicode="B" horiz-adv-x="1330" d="M181 0v1470h479q138 0 237 -26.5t162.5 -76.5t94 -121t30.5 -162q0 -53 -16.5 -102t-50.5 -91.5t-85 -76.5t-121 -56q321 -63 321 -335q0 -94 -35 -171.5t-101.5 -134t-163.5 -87t-221 -30.5h-530zM399 173h308q83 0 141.5 19.5t96 53.5t55 80.5t17.5 101.5 q0 110 -76 173t-234 63h-308v-491zM399 818h251q161 0 239.5 65t78.5 176q0 126 -75 183t-233 57h-261v-481z" />
<glyph unicode="C" horiz-adv-x="1364" d="M92 735q0 166 53 304.5t148 237.5t227.5 154.5t293.5 55.5q157 0 278.5 -51.5t212.5 -136.5l-72 -101q-7 -11 -18 -18.5t-28 -7.5q-19 0 -45.5 19.5t-69 44t-105 43.5t-155.5 19q-110 0 -201 -38t-157 -110.5t-102.5 -177.5t-36.5 -237q0 -134 38 -238.5t104.5 -177 t157 -110.5t194.5 -38q63 0 114 7.5t93.5 23t80.5 39.5t74 58q8 7 17.5 11.5t19.5 4.5q18 0 32 -14l86 -94q-90 -106 -219.5 -164.5t-311.5 -58.5q-160 0 -289.5 55t-221 154.5t-142 237.5t-50.5 304z" />
<glyph unicode="D" horiz-adv-x="1557" d="M181 0v1470h553q164 0 298 -53t230.5 -150t149 -232.5t52.5 -299.5q0 -165 -52.5 -300t-149 -232t-230.5 -150t-298 -53h-553zM400 176h334q116 0 209.5 38t159.5 110t102 175.5t36 235.5q0 131 -36 235t-102 176.5t-159.5 110t-209.5 37.5h-334v-1118z" />
<glyph unicode="E" horiz-adv-x="1181" d="M181 0v1470h912v-177h-693v-466h557v-171h-557v-479h694l-1 -177h-912z" />
<glyph unicode="F" horiz-adv-x="1158" d="M181 0v1470h912v-177h-693v-492h590v-177h-590v-624h-219z" />
<glyph unicode="G" horiz-adv-x="1494" d="M91 735q0 167 53 306t151 237.5t238 153.5t314 55q88 0 163 -13.5t139.5 -38t119.5 -59t102 -77.5l-62 -98q-14 -24 -38 -30t-51 12q-27 15 -59.5 35.5t-77 38t-103.5 29.5t-140 12q-121 0 -218.5 -39t-166 -113t-105.5 -178t-37 -233q0 -135 39 -242t110.5 -181 t173 -113t227.5 -39q49 0 91.5 5.5t81.5 15.5t75.5 25.5t72.5 34.5v308h-217q-20 0 -33 12t-13 31v124h460v-574q-112 -80 -237.5 -119t-274.5 -39q-178 0 -322 55t-245 154.5t-156 237.5t-55 304z" />
<glyph unicode="H" horiz-adv-x="1567" d="M181 0v1470h219v-649h767v649h218v-1470h-218v663h-767v-663h-219z" />
<glyph unicode="I" horiz-adv-x="581" d="M181 0v1470h219v-1470h-219z" />
<glyph unicode="J" horiz-adv-x="869" d="M24 12l12 129q2 18 13.5 30t35.5 12q17 0 47.5 -8.5t79.5 -8.5q66 0 116.5 19.5t85.5 61t52.5 106t17.5 154.5v963h218v-958q0 -123 -30.5 -221t-89.5 -166.5t-146.5 -104.5t-201.5 -36q-102 0 -210 28z" />
<glyph unicode="K" horiz-adv-x="1369" d="M181 0v1470h218v-635h72q39 0 63 9.5t44 33.5l468 543q23 28 46 38.5t58 10.5h186l-544 -626q-20 -27 -40.5 -43.5t-41.5 -27.5q56 -19 98 -79l566 -694h-189q-20 0 -35 3t-26 8.5t-19.5 14t-15.5 19.5l-485 573q-10 13 -20.5 22.5t-23.5 15.5t-30.5 8.5t-41.5 2.5h-89 v-667h-218z" />
<glyph unicode="L" horiz-adv-x="1054" d="M181 0v1470h218v-1287h624v-183h-842z" />
<glyph unicode="M" horiz-adv-x="1909" d="M181 0v1470h162q29 0 44.5 -5.5t30.5 -30.5l491 -881q14 -27 26.5 -56.5t23.5 -59.5q22 60 51 117l482 880q13 26 29 31t45 5h161v-1470h-190v1047q0 24 1.5 50t3.5 54l-489 -898q-26 -50 -79 -50h-31q-53 0 -78 50l-498 901q6 -57 6 -107v-1047h-192z" />
<glyph unicode="N" horiz-adv-x="1567" d="M181 0v1470h113q29 0 43 -6.5t32 -29.5l832 -1076q-3 30 -4.5 58t-1.5 53v1001h190v-1470h-110q-26 0 -43 9t-34 30l-830 1074q2 -28 3.5 -54.5t1.5 -49.5v-1009h-192z" />
<glyph unicode="O" horiz-adv-x="1643" d="M91 735q0 164 53.5 302.5t149 238t230 155.5t297.5 56q164 0 298 -56t230.5 -155.5t149 -238t52.5 -302.5q0 -165 -52.5 -302.5t-149 -237.5t-230.5 -155t-298 -55q-163 0 -297.5 55t-230 155t-149 237.5t-53.5 302.5zM313 735q0 -132 36 -236t102.5 -176.5t160.5 -111 t209 -38.5q116 0 209.5 38.5t159.5 111t102 176.5t36 236q0 131 -36 235.5t-102 177.5t-159.5 111.5t-209.5 38.5t-209.5 -38.5t-160 -111.5t-102.5 -177.5t-36 -235.5z" />
<glyph unicode="P" horiz-adv-x="1239" d="M181 0v1470h446q141 0 245.5 -32.5t173 -92.5t102 -145t33.5 -188t-36 -190t-105.5 -149.5t-173.5 -96.5t-239 -34h-228v-542h-218zM399 714h228q83 0 146 21.5t105.5 61t64 94t21.5 121.5q0 134 -83.5 210.5t-253.5 76.5h-228v-585z" />
<glyph unicode="Q" horiz-adv-x="1643" d="M92 735q0 164 53.5 302.5t149 238t230 155.5t297.5 56q164 0 298 -56t230.5 -155.5t149 -238t52.5 -302.5q0 -102 -21 -195t-59.5 -172.5t-95.5 -145t-129 -114.5l376 -407h-180q-40 0 -71 10.5t-57 39.5l-248 271q-113 -37 -245 -37q-163 0 -297.5 55t-230 155 t-149 237.5t-53.5 302.5zM314 735q0 -132 36 -236t102.5 -176.5t160.5 -111t209 -38.5q116 0 209.5 38.5t159.5 111t102 176.5t36 236q0 131 -36 235.5t-102 177.5t-159.5 111.5t-209.5 38.5t-209.5 -38.5t-160 -111.5t-102.5 -177.5t-36 -235.5z" />
<glyph unicode="R" horiz-adv-x="1291" d="M181 0v1470h424q142 0 245 -29t170 -82.5t99.5 -129.5t32.5 -170q0 -77 -23.5 -144.5t-69 -121.5t-111 -92.5t-148.5 -59.5q41 -25 70 -69l414 -572h-194q-58 0 -85 46l-364 510q-17 26 -37.5 36.5t-61.5 10.5h-143v-603h-218zM399 762h199q84 0 148 20.5t107 58t64.5 89 t21.5 113.5q0 127 -83.5 191.5t-250.5 64.5h-206v-537z" />
<glyph unicode="S" horiz-adv-x="1114" d="M62 176l63 105q9 12 22 20t29 8q22 0 50 -22.5t69.5 -49.5t99.5 -49.5t141 -22.5q68 0 121 18t89 51t55.5 80t19.5 105q0 65 -29.5 105.5t-78.5 68.5t-111.5 47t-128 40t-128 49t-112 72.5t-79 111.5t-29.5 165q0 79 30.5 153t89.5 130.5t145 91t197 34.5 q124 0 228 -39.5t180 -113.5l-53 -103q-10 -17 -21.5 -25.5t-28.5 -8.5q-18 0 -42 17t-59 38t-84.5 38t-117.5 17q-65 0 -113.5 -17t-81.5 -46.5t-49.5 -68.5t-16.5 -85q0 -59 30 -98.5t79 -67t111.5 -48t128 -42.5t128 -50.5t112 -72t79.5 -106.5t30 -154 q0 -97 -33.5 -182.5t-96.5 -149t-156 -99.5t-211 -36q-71 0 -137 13.5t-125.5 38.5t-111.5 60.5t-93 79.5z" />
<glyph unicode="T" horiz-adv-x="1214" d="M31 1288v182h1153v-182h-467v-1288h-217v1288h-469z" />
<glyph unicode="U" horiz-adv-x="1510" d="M163 581v889h218v-888q0 -90 25 -165t73 -129t118 -83.5t158 -29.5t157.5 29.5t117.5 83.5t73.5 128t25.5 165v889h218v-889q0 -129 -41 -239t-118 -189.5t-186.5 -124.5t-246.5 -45t-247 45t-186.5 124.5t-117.5 189.5t-41 239z" />
<glyph unicode="V" horiz-adv-x="1395" d="M2 1470h174q29 0 47 -14t27 -37l397 -999q14 -37 28 -81t25 -92q10 48 22.5 92t27.5 81l396 999q7 20 26 35.5t47 15.5h175l-598 -1470h-196z" />
<glyph unicode="W" horiz-adv-x="2128" d="M28 1470h182q29 0 48.5 -13.5t25.5 -37.5l289 -984q8 -29 15 -62.5t14 -70.5q7 37 15 71t18 62l332 984q6 20 26 35.5t47 15.5h63q29 0 47 -14t27 -37l330 -984q18 -56 33 -128q12 71 27 128l291 984q5 20 25.5 35.5t47.5 15.5h170l-459 -1470h-196l-359 1091 q-12 33 -21 78q-11 -47 -22 -78l-362 -1091h-196z" />
<glyph unicode="X" horiz-adv-x="1339" d="M15 0l503 757l-481 713h216q24 0 35 -7t19 -21l372 -577q8 27 22 49l349 524q9 16 20 24t29 8h208l-485 -704l500 -766h-216q-24 0 -38 13t-22 27l-380 605q-8 -26 -20 -44l-370 -561q-10 -14 -23 -27t-34 -13h-204z" />
<glyph unicode="Y" horiz-adv-x="1290" d="M-2 1470h191q29 0 46.5 -13.5t28.5 -36.5l320 -550q19 -38 35 -71.5t28 -66.5q11 33 26 67t35 71l318 550q10 18 28 34t46 16h192l-538 -888v-582h-217v582z" />
<glyph unicode="Z" horiz-adv-x="1234" d="M51 0v86q0 17 5.5 32.5t15.5 29.5l814 1145h-794v177h1079v-80q0 -37 -22 -71l-812 -1142h820v-177h-1106z" />
<glyph unicode="[" horiz-adv-x="630" d="M182 -301v1875h387v-79q0 -23 -15 -38t-39 -15h-165v-1611h165q24 0 39 -15.5t15 -37.5v-79h-387z" />
<glyph unicode="\" horiz-adv-x="932" d="M67 1511h85q36 0 63 -18.5t40 -53.5l611 -1532h-84q-33 0 -63.5 19t-44.5 58z" />
<glyph unicode="]" horiz-adv-x="630" d="M60 -222q0 23 15.5 38t40.5 15h165v1611h-165q-25 0 -40.5 15.5t-15.5 37.5v79h389v-1875h-389v79z" />
<glyph unicode="^" d="M127 709l399 761h129l406 -761h-146q-19 0 -32.5 10t-21.5 26l-225 439q-14 29 -24.5 54.5t-18.5 50.5q-8 -26 -18 -51.5t-22 -53.5l-217 -439q-6 -15 -20 -25.5t-35 -10.5h-154z" />
<glyph unicode="_" horiz-adv-x="944" d="M69 -161h807v-133h-807v133z" />
<glyph unicode="`" horiz-adv-x="819" d="M121 1487h189q36 0 53.5 -12t31.5 -35l151 -248h-114q-24 0 -38.5 6.5t-29.5 24.5z" />
<glyph unicode="a" horiz-adv-x="1022" d="M62 261q0 61 33.5 118t109 102t196.5 74t298 33v76q0 118 -50 176t-147 58q-66 0 -110.5 -16.5t-76.5 -36.5t-56.5 -36t-49.5 -16q-20 0 -35 11t-24 26l-36 65q87 83 188.5 124t223.5 41q89 0 158 -29.5t116 -81.5t71 -124.5t24 -160.5v-664h-89q-30 0 -45.5 9.5 t-24.5 36.5l-21 91q-40 -37 -79 -65t-81.5 -48t-90.5 -30t-107 -10q-61 0 -115 16.5t-93.5 51.5t-63 87t-23.5 122zM254 271q0 -39 13 -67t35 -46t51.5 -26t64.5 -8q46 0 84.5 9t72 26t64.5 41.5t60 56.5v205q-122 -4 -206.5 -19t-138 -39.5t-77 -58t-23.5 -74.5z" />
<glyph unicode="b" horiz-adv-x="1150" d="M140 0v1511h200v-614q65 72 146.5 116t186.5 44q91 0 164 -35.5t124.5 -101.5t79 -160t27.5 -213q0 -126 -31 -229.5t-89 -177t-141 -114t-186 -40.5q-50 0 -92.5 9.5t-77.5 28t-65 45t-56 60.5l-9 -87q-8 -42 -52 -42h-129zM340 256q49 -65 106.5 -90.5t124.5 -25.5 q139 0 214.5 99.5t75.5 300.5q0 185 -66.5 271.5t-188.5 86.5q-86 0 -149 -39t-117 -110v-493z" />
<glyph unicode="c" horiz-adv-x="979" d="M81 521q0 116 32 214.5t95 169.5t155.5 111.5t210.5 40.5q112 0 197 -36t152 -101l-54 -74q-9 -11 -17.5 -18t-25.5 -7q-16 0 -34 13t-45 28t-65.5 27.5t-94.5 12.5q-74 0 -130.5 -26.5t-93.5 -75.5t-56.5 -120t-19.5 -159q0 -91 20.5 -162t58 -120t92 -74t121.5 -25 q65 0 106.5 16t69 34.5t46 34.5t38.5 16q25 0 38 -19l57 -74q-36 -44 -80.5 -74.5t-94.5 -50t-105 -28.5t-111 -9q-97 0 -182 35.5t-146.5 104.5t-97.5 168.5t-36 226.5z" />
<glyph unicode="d" horiz-adv-x="1150" d="M84 517q0 116 30.5 215t89 172t141.5 114.5t187 41.5q94 0 160.5 -31t118.5 -87v569h201v-1511h-121q-42 0 -52 40l-18 120q-67 -79 -151 -126.5t-195 -47.5q-89 0 -161 34.5t-123.5 101.5t-79 166.5t-27.5 228.5zM290 517q0 -99 17 -169t49 -115t79 -66t107 -21 q87 0 150.5 39t118.5 110v493q-49 65 -106 90.5t-127 25.5q-137 0 -212.5 -98.5t-75.5 -288.5z" />
<glyph unicode="e" horiz-adv-x="1084" d="M81 542q0 109 33.5 202.5t96.5 163t154.5 109.5t204.5 40q95 0 175.5 -31.5t139 -90.5t92 -146.5t33.5 -198.5q0 -46 -10.5 -62t-37.5 -16h-682q3 -93 26.5 -162t65 -115.5t98.5 -69t128 -22.5q67 0 115.5 15.5t84 33.5t59.5 33.5t42 15.5q25 0 38 -19l57 -74 q-37 -43 -85 -74t-102 -50.5t-112 -28.5t-114 -9q-108 0 -199.5 36t-158.5 106.5t-104.5 174.5t-37.5 239zM285 636h544q0 59 -16.5 109.5t-49.5 87t-80 57t-109 20.5q-126 0 -198 -72.5t-91 -201.5z" />
<glyph unicode="f" horiz-adv-x="721" d="M47 941v83h162v94q0 89 25.5 159t73 118.5t114.5 73.5t151 25q71 0 130 -20l-4 -101q-1 -13 -8 -19.5t-19 -10t-28.5 -4t-36.5 -0.5q-46 0 -84 -11t-64.5 -37.5t-41 -70t-14.5 -108.5v-88h292v-145h-285v-879h-201v877l-109 13q-24 5 -38.5 17t-14.5 34z" />
<glyph unicode="g" horiz-adv-x="1069" d="M60 -97q0 76 47.5 128.5t130.5 82.5q-45 20 -72 55.5t-27 93.5q0 23 8.5 47t25 48t42 45.5t57.5 38.5q-77 43 -120.5 114.5t-43.5 166.5q0 77 29.5 138.5t82 105.5t126 67.5t160.5 23.5q135 0 232 -57h289v-74q0 -37 -46 -46l-112 -17q14 -32 22.5 -67t8.5 -74 q0 -77 -29.5 -139t-82 -106t-124.5 -67.5t-158 -23.5q-71 0 -132 15q-31 -18 -47 -40t-16 -44q0 -36 30.5 -53t79 -25t111.5 -10t128 -6.5t128 -16t111.5 -38t79 -72t30.5 -117.5q0 -68 -33.5 -131.5t-97 -112.5t-154.5 -79t-207 -30t-201.5 22.5t-142 60.5t-85 88 t-28.5 105zM234 -72q0 -33 17 -61.5t52.5 -49.5t89 -32.5t128.5 -11.5q74 0 130.5 12.5t94.5 35.5t58 55t20 70q0 37 -20.5 59t-55.5 34.5t-82.5 18t-99 9t-105.5 6t-105 9.5q-53 -27 -87.5 -64.5t-34.5 -89.5zM291 718q0 -44 13.5 -80.5t41 -62.5t68 -41t92.5 -15 q53 0 93.5 14.5t67.5 40.5t41 63t14 81q0 90 -55 143.5t-161 53.5q-105 0 -160 -53.5t-55 -143.5z" />
<glyph unicode="h" horiz-adv-x="1145" d="M140 0v1511h200v-603q66 67 145 108t183 41q86 0 151 -29t109 -80.5t66.5 -124t22.5 -160.5v-663h-201v663q0 112 -51 173.5t-157 61.5q-77 0 -144 -36.5t-124 -98.5v-763h-200z" />
<glyph unicode="i" horiz-adv-x="498" d="M112 1362q0 29 10.5 54t29.5 44t43.5 29.5t52.5 10.5t53.5 -10.5t44.5 -29.5t30 -44t11 -54q0 -28 -11 -53t-30 -44t-45 -29.5t-53 -10.5q-28 0 -52.5 10.5t-43.5 29.5t-29.5 44t-10.5 53zM150 0v1040h199v-1040h-199z" />
<glyph unicode="j" horiz-adv-x="498" d="M-74 -352l8 108q4 19 18 21.5t53 2.5q79 0 112 36t33 118v1106h199v-1106q0 -65 -17 -120.5t-53 -97t-94 -65t-140 -23.5q-34 0 -62 5.5t-57 14.5zM111 1362q0 29 10.5 54t29.5 44t43.5 29.5t52.5 10.5q29 0 54 -10.5t44.5 -29.5t30.5 -44t11 -54q0 -28 -11 -53 t-30.5 -44t-45 -29.5t-53.5 -10.5t-52.5 10.5t-43.5 29.5t-29.5 44t-10.5 53z" />
<glyph unicode="k" horiz-adv-x="1053" d="M140 0v1511h200v-883h47q22 0 36 6t30 24l311 343q14 19 31.5 29t44.5 10h182l-368 -402q-30 -38 -63 -58q19 -13 34 -31t29 -38l392 -511h-180q-25 0 -42.5 8t-31.5 30l-322 418q-15 24 -30.5 30.5t-46.5 6.5h-53v-493h-200z" />
<glyph unicode="l" horiz-adv-x="489" d="M144 0v1511h201v-1511h-201z" />
<glyph unicode="m" horiz-adv-x="1692" d="M140 0v1040h120q42 0 52 -40l15 -99q57 69 127 112.5t164 43.5q103 0 168 -57t95 -154q23 55 58.5 95t79.5 65.5t93.5 38t100.5 12.5q83 0 148 -26t110.5 -76.5t69 -124t23.5 -167.5v-663h-201v663q0 117 -50.5 176t-148.5 59q-43 0 -82 -15t-68 -44.5t-46 -73.5 t-17 -102v-663h-200v663q0 121 -48.5 178t-141.5 57q-65 0 -120 -34t-101 -92v-772h-200z" />
<glyph unicode="n" horiz-adv-x="1145" d="M140 0v1040h120q42 0 52 -40l16 -104q34 36 70.5 65.5t78 50.5t89 33t102.5 12q86 0 151 -29t109 -80.5t66.5 -124t22.5 -160.5v-663h-201v663q0 112 -51 173.5t-157 61.5q-77 0 -144 -36.5t-124 -98.5v-763h-200z" />
<glyph unicode="o" horiz-adv-x="1165" d="M81 521q0 123 35.5 222t101 169t158 107.5t208.5 37.5q115 0 207.5 -37.5t157.5 -107.5t99.5 -169t34.5 -222t-34.5 -222t-99.5 -169t-158 -107t-207 -37q-116 0 -208.5 37t-158 107t-101 169t-35.5 222zM288 520q0 -180 73 -279.5t223 -99.5q147 0 220 99.5t73 279.5 t-73 280t-220 100q-150 0 -223 -100t-73 -280z" />
<glyph unicode="p" horiz-adv-x="1152" d="M140 -349v1389h120q42 0 52 -40l18 -115q33 39 70 71t80 55t92 36t104 13q89 0 161 -35t123.5 -102.5t79.5 -167t28 -228.5q0 -116 -31 -214.5t-89 -171t-141.5 -114t-188.5 -41.5q-93 0 -159.5 30.5t-118.5 85.5v-451h-200zM340 256q49 -65 106 -90.5t127 -25.5 q137 0 212.5 99t75.5 288q0 99 -17 169.5t-49 115t-79 65.5t-107 21q-87 0 -151 -39t-118 -110v-493z" />
<glyph unicode="q" horiz-adv-x="1149" d="M84 517q0 116 30.5 215t89 172t141.5 114.5t187 41.5q50 0 92.5 -9.5t78 -26.5t66 -42t56.5 -56l14 74q10 40 52 40h121v-1389h-201v497q-65 -74 -146.5 -118t-189.5 -44q-89 0 -161 34.5t-123.5 101.5t-79 166.5t-27.5 228.5zM290 517q0 -99 17 -169t49 -115t79 -66 t107 -21q87 0 150.5 39t118.5 110v493q-46 62 -105 89t-128 27q-137 0 -212.5 -98.5t-75.5 -288.5z" />
<glyph unicode="r" horiz-adv-x="750" d="M140 0v1040h115q33 0 44.5 -11.5t16.5 -41.5l13 -146q50 102 120.5 160.5t170.5 58.5q34 0 64 -8t52 -23l-13 -150q-7 -28 -34 -28q-14 0 -43 5.5t-61 5.5q-48 0 -85 -13.5t-66.5 -41t-52 -67t-41.5 -89.5v-651h-200z" />
<glyph unicode="s" horiz-adv-x="889" d="M63 111l48 76q8 14 20 22t33 8q19 0 39.5 -14.5t49.5 -31t70 -30.5t102 -14q51 0 89 13t63 35t37.5 50.5t12.5 60.5q0 41 -23 68t-60.5 46.5t-85.5 34t-98.5 30.5t-98.5 37.5t-85.5 54.5t-60.5 80t-23 115q0 60 25 115.5t73 97.5t118 67t160 25q103 0 186.5 -33 t143.5 -90l-44 -73q-8 -13 -17.5 -18.5t-23.5 -5.5q-16 0 -36.5 11t-48.5 24.5t-66 24.5t-90 11q-43 0 -78.5 -10.5t-60 -29.5t-37.5 -45t-13 -56q0 -39 23 -64.5t60 -44t85 -33.5t97.5 -31t97 -37t85 -52.5t60.5 -75.5t23 -107q0 -73 -26 -135t-77 -107t-125.5 -70.5 t-170.5 -25.5q-108 0 -199 35.5t-153 91.5z" />
<glyph unicode="t" horiz-adv-x="741" d="M42 922v80l169 24l45 310q4 17 16 27t30 10h101v-349h295v-145h-295v-610q0 -61 30.5 -91.5t77.5 -30.5q28 0 48 7.5t34 16t24.5 16t18.5 7.5q10 0 15.5 -5t12.5 -15l59 -96q-49 -45 -116.5 -69.5t-140.5 -24.5q-126 0 -194 70.5t-68 201.5v623h-121q-17 0 -29 10.5 t-12 32.5z" />
<glyph unicode="u" horiz-adv-x="1144" d="M129 378v662h201v-662q0 -112 51 -174t157 -62q77 0 143.5 36.5t124.5 100.5v761h200v-1040h-120q-41 0 -53 40l-15 104q-34 -36 -70.5 -65.5t-78.5 -50.5t-89.5 -32.5t-101.5 -11.5q-86 0 -151 28.5t-109 80t-66.5 124.5t-22.5 161z" />
<glyph unicode="v" horiz-adv-x="1062" d="M19 1040h165q24 0 39.5 -11t20.5 -29l249 -639q13 -40 22.5 -79t18.5 -78q8 39 18 78t25 79l251 639q6 17 21.5 28.5t37.5 11.5h156l-421 -1040h-181z" />
<glyph unicode="w" horiz-adv-x="1616" d="M30 1040h157q24 0 40 -11t21 -29l187 -639q9 -39 16.5 -75.5t13.5 -73.5q9 37 20 74t22 75l208 644q5 17 19.5 27.5t34.5 10.5h87q23 0 37.5 -10.5t19.5 -27.5l203 -644q11 -39 21.5 -76t18.5 -75q6 37 14.5 74.5t18.5 76.5l190 639q5 17 21 28.5t37 11.5h150l-335 -1040 h-159q-29 0 -39 38l-219 678q-8 26 -14.5 51t-11.5 50q-9 -53 -26 -103l-222 -676q-10 -38 -44 -38h-151z" />
<glyph unicode="x" horiz-adv-x="1032" d="M19 0l363 536l-348 504h192q24 0 34.5 -7t19.5 -21l246 -380q5 15 11.5 30t16.5 31l212 315q17 32 47 32h2h183l-348 -495l363 -545h-193q-24 0 -37.5 13t-21.5 27l-251 396q-5 -15 -10 -29.5t-14 -26.5l-230 -340q-10 -14 -23.5 -27t-34.5 -13h-179z" />
<glyph unicode="y" horiz-adv-x="1061" d="M17 1040h174q26 0 40.5 -12t20.5 -28l264 -624l16 -48t13 -47q7 25 15 48.5t18 47.5l255 623q7 17 22 28.5t35 11.5h160l-578 -1342q-9 -23 -24.5 -35t-45.5 -12h-148l190 415z" />
<glyph unicode="z" horiz-adv-x="929" d="M57 0v84q0 14 7.5 34t20.5 38l549 728h-545v156h776v-84q0 -22 -7.5 -42t-19.5 -34l-546 -723h555v-157h-790z" />
<glyph unicode="{" horiz-adv-x="619" d="M67 577v119q68 0 102 40.5t34 105.5q0 50 -8 99.5t-17.5 100t-17 100.5t-7.5 102q0 73 21.5 134t64.5 104.5t108 67.5t152 24h55v-90q0 -23 -16 -32.5t-28 -9.5h-18q-77 0 -120.5 -50t-43.5 -136q0 -57 7 -109t15 -103t15.5 -100t7.5 -99q0 -77 -43.5 -133t-113.5 -75 q70 -19 113.5 -75t43.5 -133q0 -50 -7.5 -99.5t-15.5 -100.5t-15 -103.5t-7 -109.5q0 -86 43.5 -135.5t120.5 -49.5h18q12 0 28 -9.5t16 -32.5v-90h-55q-87 0 -152 24t-108 67.5t-64.5 104.5t-21.5 134q0 52 7.5 102t17 100.5t17.5 99.5t8 100q0 65 -34.5 105.5t-101.5 40.5 z" />
<glyph unicode="|" horiz-adv-x="518" d="M181 -356v1930h156v-1930h-156z" />
<glyph unicode="}" horiz-adv-x="619" d="M66 -211q0 23 15.5 32.5t28.5 9.5h18q77 0 120.5 49.5t43.5 135.5q0 56 -7 109t-15.5 104t-15.5 100.5t-7 99.5q0 77 43 132.5t112 75.5q-70 19 -112.5 75t-42.5 133q0 50 7 99t15.5 100t15.5 103t7 109q0 86 -43.5 136t-120.5 50h-18q-12 0 -28 9.5t-16 32.5v90h54 q87 0 152 -24t108.5 -67.5t65 -104.5t21.5 -134q0 -52 -7.5 -102t-17.5 -100.5t-17.5 -100t-7.5 -99.5q0 -65 33.5 -105.5t101.5 -40.5v-119q-68 0 -101.5 -40.5t-33.5 -105.5q0 -51 7.5 -100t17.5 -99.5t17.5 -100.5t7.5 -102q0 -73 -21.5 -134t-65 -104.5t-108.5 -67.5 t-152 -24h-54v90z" />
<glyph unicode="~" d="M118 420q0 72 19.5 130.5t56 100.5t90 65.5t120.5 23.5q53 0 104.5 -16t99 -35t90.5 -35.5t79 -16.5q65 0 100.5 42t36.5 113h162q0 -72 -19.5 -131t-56 -101.5t-90 -65.5t-120.5 -23q-53 0 -104.5 16t-99 35.5t-90.5 35t-79 15.5q-65 0 -100.5 -41.5t-36.5 -111.5h-162z " />
<glyph unicode="&#xa2;" d="M137 520q0 114 34 210t98.5 167t159.5 113t218 46l13 176q2 20 17 36.5t39 16.5h74l-18 -236q83 -13 150 -46t122 -83l-52 -71q-8 -11 -16 -18t-25 -7q-12 0 -28.5 9t-38.5 20t-52 23.5t-71 19.5l-55 -757q62 4 103.5 20t70 33t48 30.5t38.5 13.5q12 0 21.5 -5t16.5 -13 l54 -71q-65 -76 -160 -113.5t-204 -45.5l-12 -172q-2 -20 -17 -37t-38 -17h-75l16 228q-93 11 -172 51.5t-136.5 108t-90 160.5t-32.5 210zM335 520q0 -158 65 -252.5t181 -120.5l55 754q-75 -6 -131 -34.5t-94 -78t-57 -117t-19 -151.5z" />
<glyph unicode="&#xa3;" d="M46 626v64q0 29 18 49.5t51 20.5h130v260q0 96 28 181t84.5 148t142 100t198.5 37q80 0 143 -20t111.5 -55t84.5 -82t62 -101l-81 -51q-29 -14 -54.5 -12.5t-47.5 27.5q-19 26 -39.5 48.5t-45.5 39t-57.5 26t-75.5 9.5q-61 0 -107.5 -20.5t-78 -59t-47 -92.5t-15.5 -122 v-261h443v-81q0 -20 -16.5 -36.5t-40.5 -16.5h-386v-236q0 -74 -28 -129.5t-77 -101.5q63 14 126 14h670v-85q0 -15 -6.5 -31t-18 -28.5t-27.5 -20.5t-35 -8h-986v129q35 10 67 26.5t56.5 41.5t39 59.5t14.5 80.5v289h-199z" />
<glyph unicode="&#xa5;" d="M41 1470h167q29 0 46.5 -13t28.5 -37l268 -557q15 -38 26 -70t19 -64q7 32 17.5 64t24.5 70l267 557q8 19 27 34.5t47 15.5h168l-416 -828h306v-114h-343v-105h343v-115h-343v-308h-200v308h-343v115h343v105h-343v114h306z" />
<glyph unicode="&#xa8;" horiz-adv-x="819" d="M90 1321q0 26 10 48.5t26 39t37.5 26.5t46.5 10t47.5 -10t39 -26.5t27 -39t10.5 -48.5q0 -25 -10.5 -47t-27 -38t-39.5 -25.5t-47 -9.5q-25 0 -46.5 9.5t-37.5 25.5t-26 38t-10 47zM485 1321q0 26 10 48.5t26.5 39t39 26.5t46.5 10q25 0 47.5 -10t39 -26.5t26 -39 t9.5 -48.5q0 -25 -9.5 -47t-26 -38t-39 -25.5t-47.5 -9.5t-47 9.5t-38.5 25.5t-26.5 38t-10 47z" />
<glyph unicode="&#xa9;" horiz-adv-x="1699" d="M99 735q0 103 27 199.5t76 179.5t117.5 151.5t151.5 118t178.5 76t199.5 26.5q156 0 292.5 -59t238.5 -161t160.5 -238.5t58.5 -292.5t-58.5 -292t-160.5 -238t-238.5 -160.5t-292.5 -58.5q-103 0 -199 26.5t-179 75.5t-151.5 117t-117.5 151.5t-76 179.5t-27 199z M211 735q0 -90 22.5 -173.5t63.5 -155.5t99.5 -131t129 -101t152.5 -65t171 -23t171.5 23t154 65t130 101t100 131t64 155t22.5 174t-22.5 175t-64 157t-100 132t-130 101.5t-154 66t-171.5 23.5t-171 -23.5t-152.5 -66t-129 -101.5t-99.5 -132t-63.5 -157t-22.5 -175z M406 738q0 103 35 190t97.5 149t148 96.5t185.5 34.5q112 0 191 -35.5t136 -93.5l-52 -73q-5 -6 -14 -13t-22 -7q-15 0 -31 11.5t-40.5 24.5t-61.5 24.5t-95 11.5q-70 0 -125.5 -22.5t-94 -64t-59 -100.5t-20.5 -133q0 -77 21 -136t58 -100t88.5 -62t111.5 -21q52 0 87 8 t61 20t47 25.5t46 23.5q8 1 15.5 -3.5t13.5 -9.5l67 -72q-58 -69 -143 -106.5t-204 -37.5q-101 0 -183.5 35.5t-141 98.5t-90.5 149t-32 188z" />
<glyph unicode="&#xab;" horiz-adv-x="891" d="M100 531v27l257 399l65 -30q27 -13 31 -35t-11 -48l-156 -261q-16 -26 -30 -38q7 -7 14.5 -16.5t15.5 -22.5l156 -260q14 -27 10.5 -49t-30.5 -34l-65 -32zM411 531v27l257 399l65 -30q27 -13 31 -35t-11 -48l-156 -261q-16 -26 -30 -38q7 -7 14.5 -16.5t15.5 -22.5 l156 -260q14 -27 10.5 -49t-30.5 -34l-65 -32z" />
<glyph unicode="&#xad;" horiz-adv-x="761" d="M125 530v170h512v-170h-512z" />
<glyph unicode="&#xae;" horiz-adv-x="1699" d="M99 735q0 103 27 199.5t76 179.5t117.5 151.5t151.5 118t179 76t199 26.5q156 0 292.5 -59t238.5 -161t160.5 -238.5t58.5 -292.5t-58.5 -292t-160.5 -238t-238.5 -160.5t-292.5 -58.5q-103 0 -199 26.5t-179 75.5t-151.5 117t-117.5 151.5t-76 179.5t-27 199zM211 735 q0 -90 22.5 -173.5t63.5 -155.5t99.5 -131t129 -101t152.5 -65t171 -23t171.5 23t154 65t130 101t100 131t64 155t22.5 174t-22.5 175t-64 157t-100 132t-130 101.5t-154 66t-171.5 23.5t-171 -23.5t-152.5 -66t-129 -101.5t-99.5 -132t-63.5 -157t-22.5 -175zM536 280v915 h303q179 0 265.5 -65.5t86.5 -191.5q0 -93 -53 -161.5t-159 -95.5q18 -11 32 -27.5t26 -39.5l221 -334h-166q-37 0 -54 28l-191 298q-9 14 -22 21.5t-40 7.5h-74v-355h-175zM711 762h110q56 0 94 10t61 29.5t33 49t10 65.5q0 37 -9 64t-30 44.5t-55 26.5t-86 9h-128v-298z " />
<glyph unicode="&#xb4;" horiz-adv-x="819" d="M291 1192l151 248q14 24 31 35.5t53 11.5h196l-243 -264q-15 -17 -29.5 -24t-37.5 -7h-121z" />
<glyph unicode="&#xb8;" horiz-adv-x="819" d="M245 -336l18 63q6 19 26 19q6 0 14 -3.5t19 -7t26.5 -7t35.5 -3.5q40 0 61 16t21 41q0 37 -41.5 51.5t-120.5 25.5l56 170h114l-29 -102q95 -20 137 -56.5t42 -91.5q0 -34 -17 -60.5t-47.5 -45t-73 -29t-92.5 -10.5q-42 0 -79 8t-70 22z" />
<glyph unicode="&#xbb;" horiz-adv-x="892" d="M129 197q-4 22 10 49l157 260q15 26 30 39q-8 6 -15 15.5t-15 22.5l-157 261q-14 27 -10 48t31 35l64 30l257 -399v-27l-257 -400l-64 32q-27 12 -31 34zM440 197q-4 22 10 49l157 260q15 26 30 39q-8 6 -15 15.5t-15 22.5l-157 261q-14 27 -10 48t31 35l64 30l257 -399 v-27l-257 -400l-64 32q-27 12 -31 34z" />
<glyph unicode="&#x2c6;" horiz-adv-x="819" d="M86 1197l230 273h187l230 -273h-134q-12 0 -24 4t-25 17l-120 128q-8 8 -17 20q-9 -12 -18 -20l-122 -128q-10 -10 -22.5 -15.5t-25.5 -5.5h-139z" />
<glyph unicode="&#x2da;" horiz-adv-x="819" d="M199 1350q0 44 16.5 79.5t45.5 62t67.5 40.5t80.5 14q43 0 81 -14t67.5 -40.5t47 -62t17.5 -79.5q0 -43 -17.5 -79t-47 -61t-67.5 -39.5t-81 -14.5q-42 0 -80.5 14.5t-67.5 39.5t-45.5 61t-16.5 79zM310 1350q0 -44 27 -72t74 -28q45 0 72 28t27 72q0 45 -27 72.5 t-72 27.5q-47 0 -74 -27.5t-27 -72.5z" />
<glyph unicode="&#x2dc;" horiz-adv-x="819" d="M106 1229q0 50 14 92.5t39.5 72t60 46.5t76.5 17q37 0 68 -14.5t59 -31t52 -31t47 -14.5q35 0 54 20.5t20 65.5h122q0 -51 -14 -93t-38.5 -72.5t-59.5 -46.5t-77 -16q-36 0 -67 14t-58.5 31.5t-52.5 32t-48 14.5q-34 0 -53 -21.5t-20 -65.5h-124z" />
<glyph unicode="&#x400;" horiz-adv-x="1181" d="M181 0v1470h912v-177h-693v-466h557v-171h-557v-479h694l-1 -177h-912zM260 1898h213q35 0 53 -5.5t37 -28.5l230 -281h-143q-24 0 -37.5 3t-31.5 19z" />
<glyph unicode="&#x401;" horiz-adv-x="1181" d="M181 0v1470h912v-177h-693v-466h557v-171h-557v-479h694l-1 -177h-912zM315 1706q0 25 9.5 47t25.5 38t37 26t44 10q25 0 47 -10t38.5 -26t26 -38t9.5 -47t-9.5 -46t-26 -36.5t-38.5 -25t-47 -9.5q-24 0 -44.5 9.5t-36.5 25t-25.5 36.5t-9.5 46zM749 1706q0 25 9 47 t25.5 38t38 26t46.5 10q24 0 45 -10t37.5 -26t26 -38t9.5 -47t-9.5 -46t-26 -36.5t-38 -25t-44.5 -9.5q-25 0 -46.5 9.5t-38 25t-25.5 36.5t-9 46z" />
<glyph unicode="&#x402;" horiz-adv-x="1520" d="M28 1294v176h1078v-176h-456v-449h307q136 0 234.5 -30.5t162.5 -83.5t94.5 -126.5t30.5 -159.5q0 -101 -35 -183.5t-102 -141t-164.5 -89.5t-221.5 -31h-96v173h96q83 0 141.5 18.5t95.5 51.5t54 79.5t17 101.5q0 58 -17 104t-53.5 78t-95 49t-141.5 17h-307v-672h-218 v1294h-404z" />
<glyph unicode="&#x403;" horiz-adv-x="1102" d="M181 0v1470h891v-171h-672v-1299h-219zM480 1583l232 281q9 12 17.5 18.5t19 10t24 4.5t30.5 1h225l-334 -292q-17 -14 -31.5 -18.5t-37.5 -4.5h-145z" />
<glyph unicode="&#x404;" horiz-adv-x="1380" d="M92 735q0 166 53 304.5t148 237.5t227.5 154.5t293.5 55.5q157 0 278.5 -51.5t212.5 -136.5l-72 -101q-7 -11 -18 -18.5t-28 -7.5q-19 0 -45.5 19.5t-69 44t-105 43.5t-155.5 19q-99 0 -183.5 -31.5t-148.5 -91.5t-105.5 -147t-53.5 -198h722v-164h-725q10 -118 52 -210 t107 -155t150 -96.5t182 -33.5q63 0 114 7.5t93.5 23t80.5 39.5t74 58q8 7 17.5 11.5t19.5 4.5q18 0 32 -14l86 -94q-90 -106 -219.5 -164.5t-311.5 -58.5q-160 0 -289.5 55t-221 154.5t-142 237.5t-50.5 304z" />
<glyph unicode="&#x405;" horiz-adv-x="1114" d="M62 176l63 105q9 12 22 20t29 8q22 0 50 -22.5t69.5 -49.5t99.5 -49.5t141 -22.5q68 0 121 18t89 51t55.5 80t19.5 105q0 65 -29.5 105.5t-78.5 68.5t-111.5 47t-128 40t-128 49t-112 72.5t-79 111.5t-29.5 165q0 79 30.5 153t89.5 130.5t145 91t197 34.5 q124 0 228 -39.5t180 -113.5l-53 -103q-10 -17 -21.5 -25.5t-28.5 -8.5q-18 0 -42 17t-59 38t-84.5 38t-117.5 17q-65 0 -113.5 -17t-81.5 -46.5t-49.5 -68.5t-16.5 -85q0 -59 30 -98.5t79 -67t111.5 -48t128 -42.5t128 -50.5t112 -72t79.5 -106.5t30 -154 q0 -97 -33.5 -182.5t-96.5 -149t-156 -99.5t-211 -36q-71 0 -137 13.5t-125.5 38.5t-111.5 60.5t-93 79.5z" />
<glyph unicode="&#x406;" horiz-adv-x="581" d="M181 0v1470h219v-1470h-219z" />
<glyph unicode="&#x407;" horiz-adv-x="581" d="M-42 1706q0 25 9.5 47t25.5 38t37 26t44 10q25 0 47 -10t38.5 -26t26 -38t9.5 -47t-9.5 -46t-26 -36.5t-38.5 -25t-47 -9.5q-24 0 -44.5 9.5t-36.5 25t-25.5 36.5t-9.5 46zM181 0v1470h219v-1470h-219zM392 1706q0 25 9 47t25.5 38t38 26t46.5 10q24 0 45 -10t37.5 -26 t26 -38t9.5 -47t-9.5 -46t-26 -36.5t-38 -25t-44.5 -9.5q-25 0 -46.5 9.5t-38 25t-25.5 36.5t-9 46z" />
<glyph unicode="&#x408;" horiz-adv-x="869" d="M24 12l12 129q2 18 13.5 30t35.5 12q17 0 47.5 -8.5t79.5 -8.5q66 0 116.5 19.5t85.5 61t52.5 106t17.5 154.5v963h218v-958q0 -123 -30.5 -221t-89.5 -166.5t-146.5 -104.5t-201.5 -36q-102 0 -210 28z" />
<glyph unicode="&#x409;" horiz-adv-x="2164" d="M-6 29v138h73q39 0 78 15t75.5 61.5t70 134t60 232.5t45.5 356t29 504h889v-625h274q136 0 234.5 -30.5t162.5 -83.5t94 -126.5t30 -159.5q0 -101 -34.5 -183.5t-101.5 -141t-164.5 -89.5t-221.5 -31h-492v1299h-464q-14 -282 -39.5 -488.5t-60 -352.5t-78.5 -238 t-97 -144t-113.5 -71t-127.5 -19q-121 0 -121 43zM1314 173h273q83 0 141.5 18.5t95.5 51.5t53.5 79.5t16.5 101.5q0 58 -16.5 104t-53 78t-95 49t-141.5 17h-274v-499z" />
<glyph unicode="&#x40a;" horiz-adv-x="2237" d="M181 0v1470h219v-649h767v649h218v-625h275q136 0 235 -30.5t163 -83.5t94 -126.5t30 -159.5q0 -101 -34.5 -183.5t-102 -141t-164.5 -89.5t-221 -31h-493v663h-767v-663h-219zM1385 173h275q83 0 141.5 18.5t95 51.5t53.5 79.5t17 101.5q0 58 -17 104t-53.5 78t-95 49 t-141.5 17h-275v-499z" />
<glyph unicode="&#x40b;" horiz-adv-x="1534" d="M28 1294v176h1078v-176h-456v-456q116 30 221 46.5t193.5 14t160 -26.5t122 -75.5t77.5 -131.5t27 -195v-471h-218v472q0 96 -29.5 157t-98.5 86t-180.5 16.5t-274.5 -51.5v-679h-218v1294h-404z" />
<glyph unicode="&#x40c;" horiz-adv-x="1386" d="M181 0v1470h218v-635h149q45 0 77 13.5t62 55.5l370 506q16 27 39 43.5t56 16.5h184l-433 -600q-26 -37 -58.5 -61t-71.5 -38q55 -14 93.5 -47.5t74.5 -91.5l433 -632h-195q-33 0 -55 17.5t-42 50.5l-369 526q-13 20 -27 34t-30.5 22.5t-36.5 12.5t-47 4h-173v-667h-218z M580 1583l232 281q9 12 17.5 18.5t19 10t24 4.5t30.5 1h225l-334 -292q-17 -14 -31.5 -18.5t-37.5 -4.5h-145z" />
<glyph unicode="&#x40d;" horiz-adv-x="1567" d="M181 0v1470h219v-1011q0 -46 -2.5 -97t-9.5 -107q18 49 38.5 91.5t41.5 75.5l658 980q15 26 40 47t57 21h162v-1470h-218v1012q0 46 2 96.5t11 105.5q-19 -49 -40 -91t-41 -74l-658 -980q-15 -26 -40 -47.5t-57 -21.5h-163zM401 1897h213q35 0 53 -5.5t37 -28.5l230 -281 h-143q-24 0 -37.5 3t-31.5 19z" />
<glyph unicode="&#x40e;" horiz-adv-x="1290" d="M2 1470h204q29 0 45.5 -13.5t29.5 -36.5l343 -633q41 -77 64 -156q11 40 26.5 79.5t34.5 77.5l293 632q8 18 27.5 34t46.5 16h180l-597 -1275q-29 -61 -62 -102t-71.5 -64.5t-82.5 -33t-94 -9.5q-121 0 -121 43v138h74q25 0 50 5t48.5 19t44.5 37.5t39 60.5l69 141z M362 1779q0 23 11.5 41t31.5 18h118q0 -48 8 -80.5t24.5 -52t45 -28.5t69.5 -9t69 9t45 28.5t24.5 52t7.5 80.5h118q20 0 31.5 -18.5t11.5 -40.5q0 -51 -21 -90.5t-61 -67t-97 -41.5t-128 -14q-72 0 -129 14t-97 41.5t-61 66.5t-21 91z" />
<glyph unicode="&#x40f;" horiz-adv-x="1511" d="M181 0v1470h219v-1299h711v1299h218v-1470h-474v-292q0 -29 -19.5 -46t-50.5 -17h-130v355h-474z" />
<glyph unicode="&#x410;" horiz-adv-x="1390" d="M-1 0l586 1470h221l586 -1470h-169q-29 0 -47 14.5t-27 36.5l-130 341h-647l-130 -341q-8 -19 -27 -35t-47 -16h-169zM432 548h527l-218 570q-11 29 -22.5 66.5t-23.5 80.5q-11 -44 -23 -81.5t-23 -67.5z" />
<glyph unicode="&#x411;" horiz-adv-x="1274" d="M181 0v1470h963v-171h-745v-454h275q136 0 234.5 -30.5t162.5 -83.5t94 -126.5t30 -159.5q0 -101 -35 -183.5t-102 -141t-164 -89.5t-221 -31h-492zM399 173h274q83 0 141 18.5t95 51.5t54 79.5t17 101.5q0 58 -17 104t-53.5 78t-94.5 49t-141 17h-275v-499z" />
<glyph unicode="&#x412;" horiz-adv-x="1330" d="M181 0v1470h479q138 0 237 -26.5t162.5 -76.5t94 -121t30.5 -162q0 -53 -16.5 -102t-50.5 -91.5t-85 -76.5t-121 -56q321 -63 321 -335q0 -94 -35 -171.5t-101.5 -134t-163.5 -87t-221 -30.5h-530zM399 173h308q83 0 141.5 19.5t96 53.5t55 80.5t17.5 101.5 q0 110 -76 173t-234 63h-308v-491zM399 818h251q161 0 239.5 65t78.5 176q0 126 -75 183t-233 57h-261v-481z" />
<glyph unicode="&#x413;" horiz-adv-x="1102" d="M181 0v1470h891v-171h-672v-1299h-219z" />
<glyph unicode="&#x414;" horiz-adv-x="1620" d="M14 171h154q31 15 61.5 49.5t59 97.5t54 159t46 236t35 327t22.5 430h889v-1299h238v-463q0 -29 -19.5 -46t-50.5 -17h-130v355h-1159v-292q0 -29 -19.5 -46t-50.5 -17h-130v526zM419 171h697v1128h-465q-12 -242 -34 -425.5t-52 -319.5t-67 -229.5t-79 -153.5z" />
<glyph unicode="&#x415;" horiz-adv-x="1181" d="M181 0v1470h912v-177h-693v-466h557v-171h-557v-479h694l-1 -177h-912z" />
<glyph unicode="&#x416;" horiz-adv-x="2142" d="M14 0l423 633q33 56 72.5 89.5t91.5 49.5q-44 15 -74.5 44t-60.5 72l-416 582h170q34 0 63 -16.5t47 -46.5l351 -499q32 -45 66 -59t79 -14h142v635h206v-635h142q45 0 79.5 14t65.5 59l351 499q17 30 46.5 46.5t62.5 16.5h171l-416 -582q-30 -43 -60.5 -72t-74.5 -44 q51 -17 91 -50t73 -89l423 -633h-145q-48 0 -82 21t-55 57l-354 508q-29 43 -63.5 62t-88.5 19h-166v-667h-206v667h-166q-53 0 -88.5 -19t-63.5 -62l-354 -508q-20 -36 -54.5 -57t-81.5 -21h-146z" />
<glyph unicode="&#x417;" horiz-adv-x="1181" d="M39 178l62 105q8 12 21.5 20t29.5 8q23 0 53.5 -22.5t76.5 -49.5t111 -49.5t158 -22.5q157 0 243 71t86 202q0 55 -22 101.5t-63 79t-99.5 50.5t-132.5 17h-203v179h192q63 0 116 15t91 43t59 69.5t21 95.5q0 48 -20 88t-57.5 68t-92.5 44t-124 16q-81 0 -138 -17 t-97 -38t-66 -38t-44 -17q-17 0 -28.5 8t-21.5 26l-54 103q84 74 196 113.5t253 39.5q115 0 207 -28t156.5 -78.5t99 -120t34.5 -152.5q0 -109 -52.5 -192.5t-150.5 -132.5q55 -25 100 -58.5t77.5 -76t50 -92t17.5 -104.5q0 -97 -35.5 -182t-105 -148t-169.5 -99t-229 -36 q-158 0 -287 52t-219 140z" />
<glyph unicode="&#x418;" horiz-adv-x="1567" d="M181 0v1470h219v-1011q0 -46 -2.5 -97t-9.5 -107q18 49 38.5 91.5t41.5 75.5l658 980q15 26 40 47t57 21h162v-1470h-218v1012q0 46 2 96.5t11 105.5q-19 -49 -40 -91t-41 -74l-658 -980q-15 -26 -40 -47.5t-57 -21.5h-163z" />
<glyph unicode="&#x419;" horiz-adv-x="1567" d="M181 0v1470h219v-1011q0 -46 -2.5 -97t-9.5 -107q18 49 38.5 91.5t41.5 75.5l658 980q15 26 40 47t57 21h162v-1470h-218v1012q0 46 2 96.5t11 105.5q-19 -49 -40 -91t-41 -74l-658 -980q-15 -26 -40 -47.5t-57 -21.5h-163zM483 1778q0 23 11.5 41t31.5 18h118 q0 -48 8 -80.5t24.5 -52t45 -28.5t69.5 -9t69 9t45 28.5t24.5 52t7.5 80.5h118q20 0 31.5 -18.5t11.5 -40.5q0 -51 -21 -90.5t-61 -67t-97 -41.5t-128 -14q-72 0 -129 14t-97 41.5t-61 66.5t-21 91z" />
<glyph unicode="&#x41a;" horiz-adv-x="1386" d="M181 0v1470h218v-635h149q45 0 77 13.5t62 55.5l370 506q16 27 39 43.5t56 16.5h184l-433 -600q-26 -37 -58.5 -61t-71.5 -38q55 -14 93.5 -47.5t74.5 -91.5l433 -632h-195q-33 0 -55 17.5t-42 50.5l-369 526q-13 20 -27 34t-30.5 22.5t-36.5 12.5t-47 4h-173v-667h-218z " />
<glyph unicode="&#x41b;" horiz-adv-x="1495" d="M-6 29v138h73q39 0 78 15t75.5 61.5t70 134t60 232.5t45.5 356t29 504h889v-1470h-219v1299h-464q-14 -282 -39.5 -488.5t-60 -352.5t-78.5 -238t-97 -144t-113.5 -71t-127.5 -19q-121 0 -121 43z" />
<glyph unicode="&#x41c;" horiz-adv-x="1909" d="M181 0v1470h162q29 0 44.5 -5.5t30.5 -30.5l491 -881q14 -27 26.5 -56.5t23.5 -59.5q22 60 51 117l482 880q13 26 29 31t45 5h161v-1470h-190v1047q0 24 1.5 50t3.5 54l-489 -898q-26 -50 -79 -50h-31q-53 0 -78 50l-498 901q6 -57 6 -107v-1047h-192z" />
<glyph unicode="&#x41d;" horiz-adv-x="1567" d="M181 0v1470h219v-649h767v649h218v-1470h-218v663h-767v-663h-219z" />
<glyph unicode="&#x41e;" horiz-adv-x="1643" d="M91 735q0 164 53.5 302.5t149 238t230 155.5t297.5 56q164 0 298 -56t230.5 -155.5t149 -238t52.5 -302.5q0 -165 -52.5 -302.5t-149 -237.5t-230.5 -155t-298 -55q-163 0 -297.5 55t-230 155t-149 237.5t-53.5 302.5zM313 735q0 -132 36 -236t102.5 -176.5t160.5 -111 t209 -38.5q116 0 209.5 38.5t159.5 111t102 176.5t36 236q0 131 -36 235.5t-102 177.5t-159.5 111.5t-209.5 38.5t-209.5 -38.5t-160 -111.5t-102.5 -177.5t-36 -235.5z" />
<glyph unicode="&#x41f;" horiz-adv-x="1511" d="M181 0v1470h1148v-1470h-218v1299h-711v-1299h-219z" />
<glyph unicode="&#x420;" horiz-adv-x="1239" d="M181 0v1470h446q141 0 245.5 -32.5t173 -92.5t102 -145t33.5 -188t-36 -190t-105.5 -149.5t-173.5 -96.5t-239 -34h-228v-542h-218zM399 714h228q83 0 146 21.5t105.5 61t64 94t21.5 121.5q0 134 -83.5 210.5t-253.5 76.5h-228v-585z" />
<glyph unicode="&#x421;" horiz-adv-x="1364" d="M92 735q0 166 53 304.5t148 237.5t227.5 154.5t293.5 55.5q157 0 278.5 -51.5t212.5 -136.5l-72 -101q-7 -11 -18 -18.5t-28 -7.5q-19 0 -45.5 19.5t-69 44t-105 43.5t-155.5 19q-110 0 -201 -38t-157 -110.5t-102.5 -177.5t-36.5 -237q0 -134 38 -238.5t104.5 -177 t157 -110.5t194.5 -38q63 0 114 7.5t93.5 23t80.5 39.5t74 58q8 7 17.5 11.5t19.5 4.5q18 0 32 -14l86 -94q-90 -106 -219.5 -164.5t-311.5 -58.5q-160 0 -289.5 55t-221 154.5t-142 237.5t-50.5 304z" />
<glyph unicode="&#x422;" horiz-adv-x="1214" d="M31 1288v182h1153v-182h-467v-1288h-217v1288h-469z" />
<glyph unicode="&#x423;" horiz-adv-x="1290" d="M2 1470h204q29 0 45.5 -13.5t29.5 -36.5l343 -633q41 -77 64 -156q11 40 26.5 79.5t34.5 77.5l293 632q8 18 27.5 34t46.5 16h180l-597 -1275q-29 -61 -62 -102t-71.5 -64.5t-82.5 -33t-94 -9.5q-121 0 -121 43v138h74q25 0 50 5t48.5 19t44.5 37.5t39 60.5l69 141z" />
<glyph unicode="&#x424;" horiz-adv-x="1613" d="M75 771q0 120 46 226.5t129.5 187t199 128.5t253.5 51v172h207v-172q140 -3 256 -51t199 -128t128.5 -186.5t45.5 -227.5t-45.5 -227.5t-128.5 -187t-198.5 -128.5t-256.5 -51v-177h-207v177q-140 3 -255.5 51t-198.5 128.5t-128.5 187t-45.5 227.5zM293 771 q0 -87 29 -163.5t83 -133.5t129.5 -91t168.5 -35v846q-93 -2 -168.5 -36t-129.5 -91t-83 -133.5t-29 -162.5zM910 348q93 1 169 35t130 91t83.5 133.5t29.5 163.5q0 86 -29.5 162.5t-83.5 133.5t-129.5 91t-169.5 36v-846z" />
<glyph unicode="&#x425;" horiz-adv-x="1339" d="M15 0l503 757l-481 713h216q24 0 35 -7t19 -21l372 -577q8 27 22 49l349 524q9 16 20 24t29 8h208l-485 -704l500 -766h-216q-24 0 -38 13t-22 27l-380 605q-8 -26 -20 -44l-370 -561q-10 -14 -23 -27t-34 -13h-204z" />
<glyph unicode="&#x426;" horiz-adv-x="1604" d="M181 0v1470h219v-1299h711v1299h218v-1299h221v-463q0 -29 -19.5 -46t-49.5 -17h-129v355h-1171z" />
<glyph unicode="&#x427;" horiz-adv-x="1361" d="M90 989v481h219v-482q0 -97 38 -157.5t118 -85.5t203.5 -15.5t293.5 52.5v688h218v-1470h-218v625q-118 -31 -228.5 -48.5t-207.5 -15.5t-177.5 26t-137.5 75t-89 131t-32 196z" />
<glyph unicode="&#x428;" horiz-adv-x="2208" d="M181 0v1470h219v-1299h593v1299h218v-1299h597v1299h220v-1470h-1847z" />
<glyph unicode="&#x429;" horiz-adv-x="2301" d="M181 0v1470h219v-1299h593v1299h218v-1299h597v1299h220v-1299h221v-463q0 -29 -19.5 -46t-50.5 -17h-130v355h-1868z" />
<glyph unicode="&#x42a;" horiz-adv-x="1519" d="M30 1293v177h639v-625h274q136 0 234.5 -30.5t162.5 -83.5t94 -126.5t30 -159.5q0 -101 -34.5 -183.5t-101.5 -141t-164.5 -89.5t-221.5 -31h-491v1293h-421zM669 173h273q83 0 141.5 18.5t95 51.5t53.5 79.5t17 101.5q0 58 -17 104t-53 78t-94.5 49t-141.5 17h-274v-499 z" />
<glyph unicode="&#x42b;" horiz-adv-x="1851" d="M181 0v1470h218v-625h275q136 0 234.5 -30.5t162.5 -83.5t94 -126.5t30 -159.5q0 -101 -35 -183.5t-102 -141t-164 -89.5t-221 -31h-492zM399 173h274q83 0 141 18.5t95 51.5t54 79.5t17 101.5q0 58 -17 104t-53.5 78t-94.5 49t-141 17h-275v-499zM1451 0v1470h219v-1470 h-219z" />
<glyph unicode="&#x42c;" horiz-adv-x="1250" d="M181 0v1470h218v-625h275q136 0 234.5 -30.5t162.5 -83.5t94 -126.5t30 -159.5q0 -101 -35 -183.5t-102 -141t-164 -89.5t-221 -31h-492zM399 173h274q83 0 141 18.5t95 51.5t54 79.5t17 101.5q0 58 -17 104t-53.5 78t-94.5 49t-141 17h-275v-499z" />
<glyph unicode="&#x42d;" horiz-adv-x="1379" d="M53 207l86 94q13 14 32 14q10 0 19.5 -4.5t17.5 -11.5q37 -34 75 -58t81 -39.5t93.5 -23t113.5 -7.5q96 0 181.5 33.5t151 97t107 155t51.5 209.5h-727v164h725q-12 111 -53.5 198t-106 147t-149 91.5t-184.5 31.5q-93 0 -155.5 -19t-105 -43.5t-68.5 -44t-45 -19.5 q-17 0 -27.5 7.5t-18.5 18.5l-71 101q89 85 211 136.5t279 51.5q160 0 292.5 -55.5t228 -154.5t148 -237.5t52.5 -304.5t-49.5 -304t-141.5 -237.5t-222 -154.5t-289 -55q-182 0 -312 58t-220 165z" />
<glyph unicode="&#x42e;" horiz-adv-x="2149" d="M181 0v1470h219v-650h305q12 147 64.5 269.5t140 211.5t206 137.5t262.5 48.5q154 0 279.5 -56t213.5 -155.5t136 -238t48 -302.5q0 -165 -48 -302.5t-136 -237t-213.5 -154.5t-279.5 -55q-143 0 -262 48t-206.5 135.5t-140 210t-64.5 269.5h-305v-649h-219zM924 735 q0 -132 31.5 -237t90.5 -178t143.5 -112.5t188.5 -39.5t189 39.5t143.5 112.5t90.5 178t32 237q0 131 -32 236.5t-90.5 179.5t-143 114t-189.5 40q-104 0 -188.5 -40t-143.5 -114t-90.5 -179.5t-31.5 -236.5z" />
<glyph unicode="&#x42f;" horiz-adv-x="1369" d="M-6 0l370 531q60 92 146 132q-86 18 -150.5 53.5t-107 85t-63.5 112t-21 135.5q0 94 35 171.5t102 133t163.5 86t221.5 30.5h498v-1470h-218v627h-188q-27 0 -50 -5t-45.5 -16.5t-44 -32.5t-44.5 -54l-304 -441q-20 -36 -54.5 -57t-81.5 -21h-164zM383 1051 q0 -58 17 -105.5t53 -79.5t94.5 -49.5t141.5 -17.5h281v499h-280q-83 0 -141.5 -17.5t-95 -50.5t-53.5 -78.5t-17 -100.5z" />
<glyph unicode="&#x430;" horiz-adv-x="1022" d="M62 261q0 61 33.5 118t109 102t196.5 74t298 33v76q0 118 -50 176t-147 58q-66 0 -110.5 -16.5t-76.5 -36.5t-56.5 -36t-49.5 -16q-20 0 -35 11t-24 26l-36 65q87 83 188.5 124t223.5 41q89 0 158 -29.5t116 -81.5t71 -124.5t24 -160.5v-664h-89q-30 0 -45.5 9.5 t-24.5 36.5l-21 91q-40 -37 -79 -65t-81.5 -48t-90.5 -30t-107 -10q-61 0 -115 16.5t-93.5 51.5t-63 87t-23.5 122zM254 271q0 -39 13 -67t35 -46t51.5 -26t64.5 -8q46 0 84.5 9t72 26t64.5 41.5t60 56.5v205q-122 -4 -206.5 -19t-138 -39.5t-77 -58t-23.5 -74.5z" />
<glyph unicode="&#x431;" horiz-adv-x="1201" d="M112 672q0 163 29.5 300t95.5 239.5t172.5 165t259.5 74.5l370 31l12 -105q4 -34 -10 -57.5t-48 -25.5l-308 -24q-101 -8 -174.5 -43.5t-121 -96t-72 -144t-28.5 -187.5q26 46 64 84t87 65t107.5 41.5t123.5 14.5q104 0 187 -37t141 -103.5t88.5 -160.5t30.5 -208 q0 -117 -35.5 -211t-102 -160.5t-159.5 -102t-207 -35.5q-108 0 -199 35t-159 116t-106 212t-38 323zM321 516q0 -181 73.5 -281.5t219.5 -100.5q148 0 222.5 94t74.5 266q0 171 -72 265.5t-216 94.5q-71 0 -127 -22t-95.5 -65t-59.5 -106t-20 -145z" />
<glyph unicode="&#x432;" horiz-adv-x="1019" d="M140 0v1040h388q96 0 166 -19t115 -52.5t66 -78.5t21 -97q0 -34 -9 -71t-31.5 -70.5t-61 -61t-98.5 -42.5q115 -20 179 -82t64 -163q0 -77 -31 -133.5t-84.5 -94.5t-125 -56.5t-151.5 -18.5h-407zM331 140h215q96 0 152.5 45.5t56.5 123.5q0 34 -10.5 63t-35 50.5 t-64.5 33.5t-98 12h-216v-328zM331 595h191q43 0 79.5 12.5t62.5 34.5t41 53t15 68q0 28 -10 53.5t-33 46t-60.5 32.5t-94.5 12h-191v-312z" />
<glyph unicode="&#x433;" horiz-adv-x="849" d="M140 0v1040h682v-151h-482v-889h-200z" />
<glyph unicode="&#x434;" horiz-adv-x="1273" d="M22 145h33q36 0 71 11.5t67 45.5t61 95t52.5 160.5t41 242.5t27.5 340h669v-888h191v-446q0 -29 -16 -45t-41 -16h-124v355h-850v-298q0 -23 -13.5 -40t-42.5 -17h-126v500zM362 145h489v739h-311q-10 -152 -27.5 -270.5t-40.5 -208.5t-51 -154t-59 -106z" />
<glyph unicode="&#x435;" horiz-adv-x="1084" d="M81 542q0 109 33.5 202.5t96.5 163t154.5 109.5t204.5 40q95 0 175.5 -31.5t139 -90.5t92 -146.5t33.5 -198.5q0 -46 -10.5 -62t-37.5 -16h-682q3 -93 26.5 -162t65 -115.5t98.5 -69t128 -22.5q67 0 115.5 15.5t84 33.5t59.5 33.5t42 15.5q25 0 38 -19l57 -74 q-37 -43 -85 -74t-102 -50.5t-112 -28.5t-114 -9q-108 0 -199.5 36t-158.5 106.5t-104.5 174.5t-37.5 239zM285 636h544q0 59 -16.5 109.5t-49.5 87t-80 57t-109 20.5q-126 0 -198 -72.5t-91 -201.5z" />
<glyph unicode="&#x436;" horiz-adv-x="1628" d="M24 0l265 430q27 45 60 73.5t82 43.5q-38 13 -65 37t-51 63l-264 393h158q29 0 52.5 -14.5t36.5 -39.5l210 -321q20 -34 51 -51.5t74 -17.5h84v445h194v-445h82q85 0 127 69l210 321q14 25 38 39.5t52 14.5h157l-264 -393q-25 -39 -51.5 -63.5t-64.5 -37.5 q49 -14 82.5 -42.5t59.5 -73.5l267 -430h-139q-54 0 -82 17t-45 53l-190 314q-24 39 -59 58.5t-81 19.5h-99v-463h-194v463h-99q-46 0 -81 -19.5t-59 -58.5l-189 -314q-17 -36 -45.5 -53t-81.5 -17h-138z" />
<glyph unicode="&#x437;" horiz-adv-x="919" d="M50 148l58 74q13 18 37 19q19 0 40.5 -16t51.5 -34.5t72.5 -34.5t106.5 -16q54 0 96.5 13.5t71.5 37t44.5 55.5t15.5 69q0 74 -60.5 118t-186.5 44h-117v133h117q111 0 172.5 41.5t61.5 107.5q0 29 -13.5 55t-40.5 46t-67.5 31t-93.5 11q-59 0 -100.5 -11.5t-70 -26 t-47.5 -26.5t-32 -12q-14 0 -24 6t-21 23l-46 77q58 55 143 90t204 35q95 0 168 -23t122.5 -61.5t74.5 -87.5t25 -103q0 -31 -9.5 -64t-31 -63.5t-57 -57t-87.5 -43.5q96 -30 152.5 -94.5t56.5 -160.5q0 -73 -33.5 -131t-90 -98.5t-130 -62t-153.5 -21.5q-49 0 -101 9 t-102 28.5t-95 50t-81 74.5z" />
<glyph unicode="&#x438;" horiz-adv-x="1182" d="M140 -1v1041h200v-681q0 -20 -2 -45t-6 -50q20 45 40 73l478 653q11 17 30 33.5t43 16.5h120v-1040h-200v680q0 20 2 45.5t6 50.5q-10 -22 -20 -40.5t-20 -33.5l-478 -652q-11 -18 -29.5 -34.5t-42.5 -16.5h-121z" />
<glyph unicode="&#x439;" horiz-adv-x="1182" d="M140 -1v1041h200v-681q0 -20 -2 -45t-6 -50q20 45 40 73l478 653q11 17 30 33.5t43 16.5h120v-1040h-200v680q0 20 2 45.5t6 50.5q-10 -22 -20 -40.5t-20 -33.5l-478 -652q-11 -18 -29.5 -34.5t-42.5 -16.5h-121zM297 1411q0 23 11.5 41t31.5 18h118q0 -48 8 -81 t24.5 -53.5t45 -30t69.5 -9.5t69 9.5t45 30t24.5 53.5t7.5 81h118q20 0 31.5 -18t11.5 -41q0 -51 -21 -92t-61 -70t-97 -45t-128 -16q-72 0 -129 16t-97 45t-61 70t-21 92z" />
<glyph unicode="&#x43a;" horiz-adv-x="1073" d="M140 -1v1041h200v-444h94q43 0 73.5 17.5t51.5 51.5l210 321q15 24 41 39t54 15h157l-263 -393q-25 -39 -51.5 -63.5t-65.5 -37.5q49 -14 83 -42.5t60 -73.5l266 -430h-139q-54 0 -83 18t-50 52l-190 314q-24 39 -59 58.5t-82 19.5h-107v-463h-200z" />
<glyph unicode="&#x43b;" horiz-adv-x="1205" d="M0 16v126h55q35 0 70.5 12t69.5 46t65 95.5t56.5 161.5t44 243.5t28.5 339.5h676v-1040h-200v884h-310q-12 -197 -36.5 -340t-59.5 -242.5t-77.5 -161.5t-90 -96.5t-98 -46t-100.5 -11.5q-93 0 -93 30z" />
<glyph unicode="&#x43c;" horiz-adv-x="1451" d="M140 0v1043h162q20 0 41 -9t35 -36l304 -514q13 -25 24.5 -52.5t21.5 -54.5q10 28 21 55.5t24 51.5l300 514q14 28 34.5 36.5t41.5 8.5h162v-1043h-181v662q0 31 4 69.5t11 71.5l-348 -617q-9 -17 -23.5 -26.5t-34.5 -9.5h-22q-18 0 -33 9.5t-25 26.5l-353 619 q6 -33 10.5 -72.5t4.5 -70.5v-662h-181z" />
<glyph unicode="&#x43d;" horiz-adv-x="1156" d="M140 0v1040h200v-409h476v409h201v-1040h-201v479h-476v-479h-200z" />
<glyph unicode="&#x43e;" horiz-adv-x="1165" d="M81 521q0 123 35.5 222t101 169t158 107.5t208.5 37.5q115 0 207.5 -37.5t157.5 -107.5t99.5 -169t34.5 -222t-34.5 -222t-99.5 -169t-158 -107t-207 -37q-116 0 -208.5 37t-158 107t-101 169t-35.5 222zM288 520q0 -180 73 -279.5t223 -99.5q147 0 220 99.5t73 279.5 t-73 280t-220 100q-150 0 -223 -100t-73 -280z" />
<glyph unicode="&#x43f;" horiz-adv-x="1156" d="M140 0v1040h877v-1040h-201v889h-476v-889h-200z" />
<glyph unicode="&#x440;" horiz-adv-x="1150" d="M140 -349v1389h120q42 0 52 -40l18 -115q33 39 70 71t80 55t92 36t104 13q89 0 161 -35t123.5 -102.5t79.5 -167t28 -228.5q0 -116 -31 -214.5t-89 -171t-141.5 -114t-188.5 -41.5q-93 0 -159.5 30.5t-118.5 85.5v-451h-200zM340 256q49 -65 106 -90.5t127 -25.5 q137 0 212.5 99t75.5 288q0 99 -17 169.5t-49 115t-79 65.5t-107 21q-87 0 -151 -39t-118 -110v-493z" />
<glyph unicode="&#x441;" horiz-adv-x="979" d="M81 521q0 116 32 214.5t95 169.5t155.5 111.5t210.5 40.5q112 0 197 -36t152 -101l-54 -74q-9 -11 -17.5 -18t-25.5 -7q-16 0 -34 13t-45 28t-65.5 27.5t-94.5 12.5q-74 0 -130.5 -26.5t-93.5 -75.5t-56.5 -120t-19.5 -159q0 -91 20.5 -162t58 -120t92 -74t121.5 -25 q65 0 106.5 16t69 34.5t46 34.5t38.5 16q25 0 38 -19l57 -74q-36 -44 -80.5 -74.5t-94.5 -50t-105 -28.5t-111 -9q-97 0 -182 35.5t-146.5 104.5t-97.5 168.5t-36 226.5z" />
<glyph unicode="&#x442;" horiz-adv-x="1038" d="M27 889v151h985v-151h-392v-889h-201v889h-392z" />
<glyph unicode="&#x443;" horiz-adv-x="1061" d="M17 1040h174q26 0 40.5 -12t20.5 -28l264 -624l16 -48t13 -47q7 25 15 48.5t18 47.5l255 623q7 17 22 28.5t35 11.5h160l-578 -1342q-9 -23 -24.5 -35t-45.5 -12h-148l190 415z" />
<glyph unicode="&#x444;" horiz-adv-x="1457" d="M79 521q0 118 39 214t111.5 165.5t175 109.5t230.5 46v414h187v-414q127 -6 230 -46t175.5 -109.5t111.5 -165.5t39 -214q0 -119 -39 -215t-111.5 -165t-175.5 -108.5t-230 -45.5v-342h-187v342q-128 6 -230.5 45.5t-175 108.5t-111.5 165t-39 215zM279 520 q0 -173 92.5 -273.5t269.5 -110.5v769q-177 -10 -269.5 -111t-92.5 -274zM816 136q176 10 269 110.5t93 273.5t-93 274t-269 111v-769z" />
<glyph unicode="&#x445;" horiz-adv-x="1032" d="M19 0l363 536l-348 504h192q24 0 34.5 -7t19.5 -21l246 -380q5 15 11.5 30t16.5 31l212 315q18 33 49 32h183l-348 -495l363 -545h-193q-24 0 -37.5 13t-21.5 27l-251 396q-5 -15 -10 -29.5t-14 -26.5l-230 -340q-10 -14 -23.5 -27t-34.5 -13h-179z" />
<glyph unicode="&#x446;" horiz-adv-x="1245" d="M140 0v1040h200v-888h476v888h201v-888h190v-446q0 -29 -16 -45t-42 -16h-123v355h-886z" />
<glyph unicode="&#x447;" horiz-adv-x="1060" d="M80 696v344h201v-313q0 -72 27.5 -114.5t82.5 -59t137.5 -10t192.5 30.5v466h200v-1040h-200v433q-134 -35 -251 -42.5t-204 20.5t-136.5 97.5t-49.5 187.5z" />
<glyph unicode="&#x448;" horiz-adv-x="1689" d="M140 0v1040h200v-888h404v888h201v-888h404v888h200v-1040h-1409z" />
<glyph unicode="&#x449;" horiz-adv-x="1778" d="M140 0v1040h200v-888h404v888h201v-888h404v888h200v-888h192v-446q0 -29 -16.5 -45t-42.5 -16h-123v355h-1419z" />
<glyph unicode="&#x44a;" horiz-adv-x="1201" d="M29 887v153h519v-401h212q108 0 182 -26t119 -69.5t65 -100.5t20 -118q0 -71 -25 -131t-74 -103t-120.5 -67t-163.5 -24h-406v887h-328zM548 146h215q103 0 154 50t51 127q0 35 -11.5 66t-36 54t-64 37t-96.5 14h-212v-348z" />
<glyph unicode="&#x44b;" horiz-adv-x="1487" d="M140 0v1040h191v-401h212q108 0 182 -26t119 -69.5t65 -100.5t20 -118q0 -71 -25 -131t-74.5 -103t-120.5 -67t-163 -24h-406zM331 146h215q102 0 153.5 50t51.5 127q0 35 -11.5 66t-36 54t-64 37t-96.5 14h-212v-348zM1148 0v1040h200v-1040h-200z" />
<glyph unicode="&#x44c;" horiz-adv-x="984" d="M140 0v1040h191v-401h212q108 0 182 -26t119 -69.5t65 -100.5t20 -118q0 -71 -25 -131t-74.5 -103t-120.5 -67t-163 -24h-406zM331 146h215q102 0 153.5 50t51.5 127q0 35 -11.5 66t-36 54t-64 37t-96.5 14h-212v-348z" />
<glyph unicode="&#x44d;" horiz-adv-x="990" d="M56 148l55 68q13 18 37 18q19 0 38.5 -14.5t48 -32t70.5 -32.5t107 -15q123 0 202 83t94 239h-481v139h478q-8 71 -32.5 126.5t-62.5 94.5t-90 59.5t-117 20.5q-56 0 -95 -11.5t-66 -25.5t-46 -26t-35 -12t-25 7t-17 18l-51 68q67 66 151.5 101.5t196.5 35.5 q119 0 211 -40.5t155 -111.5t95 -169.5t32 -214.5q0 -127 -35.5 -226.5t-97.5 -168.5t-146.5 -104.5t-182.5 -35.5q-56 0 -110.5 9t-105 28.5t-95 50t-80.5 74.5z" />
<glyph unicode="&#x44e;" horiz-adv-x="1612" d="M140 0v1040h200v-441h241q10 105 47 190t97 144.5t142 91.5t184 32q111 0 199 -37.5t150.5 -107.5t96.5 -169t34 -222t-35 -222t-98 -169t-151.5 -107t-195.5 -37q-104 0 -187.5 32t-143.5 93t-95.5 147.5t-43.5 195.5h-241v-454h-200zM778 520q0 -180 67.5 -279.5 t205.5 -99.5q139 0 206 99.5t67 279.5t-67 280t-206 100q-138 0 -205.5 -100t-67.5 -280z" />
<glyph unicode="&#x44f;" horiz-adv-x="1016" d="M11 0l292 386q38 65 104 87q-78 10 -132 37.5t-87.5 63.5t-49 79.5t-15.5 88.5q0 55 21.5 108.5t68.5 95.5t122 68t180 26h362v-1040h-191v433h-71q-30 0 -49 -4.5t-33 -13.5t-24 -22.5t-21 -30.5l-212 -292q-10 -17 -21 -30t-25.5 -22t-34 -13.5t-45.5 -4.5h-139z M324 732q0 -81 58 -126.5t159 -45.5h145v347h-165q-56 0 -94 -15.5t-61 -41.5t-32.5 -56.5t-9.5 -61.5z" />
<glyph unicode="&#x450;" horiz-adv-x="1084" d="M81 542q0 109 33.5 202.5t96.5 163t154.5 109.5t204.5 40q95 0 175.5 -31.5t139 -90.5t92 -146.5t33.5 -198.5q0 -46 -10.5 -62t-37.5 -16h-682q3 -93 26.5 -162t65 -115.5t98.5 -69t128 -22.5q67 0 115.5 15.5t84 33.5t59.5 33.5t42 15.5q25 0 38 -19l57 -74 q-37 -43 -85 -74t-102 -50.5t-112 -28.5t-114 -9q-108 0 -199.5 36t-158.5 106.5t-104.5 174.5t-37.5 239zM285 636h544q0 59 -16.5 109.5t-49.5 87t-80 57t-109 20.5q-126 0 -198 -72.5t-91 -201.5zM286 1487h189q36 0 53.5 -12t31.5 -35l151 -248h-114q-24 0 -38.5 6.5 t-29.5 24.5z" />
<glyph unicode="&#x451;" horiz-adv-x="1084" d="M81 542q0 109 33.5 202.5t96.5 163t154.5 109.5t204.5 40q95 0 175.5 -31.5t139 -90.5t92 -146.5t33.5 -198.5q0 -46 -10.5 -62t-37.5 -16h-682q3 -93 26.5 -162t65 -115.5t98.5 -69t128 -22.5q67 0 115.5 15.5t84 33.5t59.5 33.5t42 15.5q25 0 38 -19l57 -74 q-37 -43 -85 -74t-102 -50.5t-112 -28.5t-114 -9q-108 0 -199.5 36t-158.5 106.5t-104.5 174.5t-37.5 239zM255 1321q0 26 10 48.5t26 39t37.5 26.5t46.5 10t47.5 -10t39 -26.5t27 -39t10.5 -48.5q0 -25 -10.5 -47t-27 -38t-39.5 -25.5t-47 -9.5q-25 0 -46.5 9.5t-37.5 25.5 t-26 38t-10 47zM285 636h544q0 59 -16.5 109.5t-49.5 87t-80 57t-109 20.5q-126 0 -198 -72.5t-91 -201.5zM650 1321q0 26 10 48.5t26.5 39t39 26.5t46.5 10q25 0 47.5 -10t39 -26.5t26 -39t9.5 -48.5q0 -25 -9.5 -47t-26 -38t-39 -25.5t-47.5 -9.5t-47 9.5t-38.5 25.5 t-26.5 38t-10 47z" />
<glyph unicode="&#x452;" horiz-adv-x="1134" d="M-42 1120v155h181v236h201v-236h351v-155h-351v-300q66 68 144.5 108t182.5 40q185 0 276 -119.5t91 -340.5q0 -227 -68.5 -439.5t-191.5 -406.5l-161 64q52 91 94 182t70 186.5t43 197.5t15 216q0 78 -16 134.5t-46 93.5t-71.5 55t-93.5 18q-77 0 -144 -36t-124 -99 v-674h-201v1120h-181z" />
<glyph unicode="&#x453;" horiz-adv-x="849" d="M140 0v1040h682v-151h-482v-889h-200zM330 1192l151 248q14 24 31 35.5t53 11.5h196l-243 -264q-15 -17 -29.5 -24t-37.5 -7h-121z" />
<glyph unicode="&#x454;" horiz-adv-x="990" d="M81 521q0 116 32 214.5t95 169.5t155.5 111.5t210.5 40.5q112 0 197 -36t152 -101l-52 -68q-8 -11 -16.5 -18t-25.5 -7q-16 0 -35 12t-46 26t-66 25.5t-95 11.5q-65 0 -117 -20.5t-90.5 -59.5t-62.5 -94.5t-32 -126.5h478v-139h-480q14 -156 93 -239t203 -83 q65 0 106.5 15t70 32.5t47.5 32t39 14.5q25 0 38 -18l54 -68q-36 -44 -80.5 -74.5t-94.5 -50t-105 -28.5t-111 -9q-97 0 -182 35.5t-146.5 104.5t-97.5 168.5t-36 226.5z" />
<glyph unicode="&#x455;" horiz-adv-x="889" d="M63 111l48 76q8 14 20 22t33 8q19 0 39.5 -14.5t49.5 -31t70 -30.5t102 -14q51 0 89 13t63 35t37.5 50.5t12.5 60.5q0 41 -23 68t-60.5 46.5t-85.5 34t-98.5 30.5t-98.5 37.5t-85.5 54.5t-60.5 80t-23 115q0 60 25 115.5t73 97.5t118 67t160 25q103 0 186.5 -33 t143.5 -90l-44 -73q-8 -13 -17.5 -18.5t-23.5 -5.5q-16 0 -36.5 11t-48.5 24.5t-66 24.5t-90 11q-43 0 -78.5 -10.5t-60 -29.5t-37.5 -45t-13 -56q0 -39 23 -64.5t60 -44t85 -33.5t97.5 -31t97 -37t85 -52.5t60.5 -75.5t23 -107q0 -73 -26 -135t-77 -107t-125.5 -70.5 t-170.5 -25.5q-108 0 -199 35.5t-153 91.5z" />
<glyph unicode="&#x456;" horiz-adv-x="498" d="M112 1362q0 29 10.5 54t29.5 44t43.5 29.5t52.5 10.5t53.5 -10.5t44.5 -29.5t30 -44t11 -54q0 -28 -11 -53t-30 -44t-45 -29.5t-53 -10.5q-28 0 -52.5 10.5t-43.5 29.5t-29.5 44t-10.5 53zM150 0v1040h199v-1040h-199z" />
<glyph unicode="&#x457;" horiz-adv-x="498" d="M-30 1321q0 26 9.5 48.5t26 39t38 26.5t46.5 10t47 -10t39 -26.5t27.5 -39t10.5 -48.5q0 -25 -10.5 -47t-27.5 -38t-39.5 -25.5t-46.5 -9.5q-25 0 -46.5 9.5t-38 25.5t-26 38t-9.5 47zM149 0v1040h200v-1040h-200zM296 1321q0 26 9.5 48.5t26 39t39 26.5t46.5 10 q25 0 47.5 -10t39 -26.5t26 -39t9.5 -48.5q0 -25 -9.5 -47t-26 -38t-39 -25.5t-47.5 -9.5t-47 9.5t-38.5 25.5t-26 38t-9.5 47z" />
<glyph unicode="&#x458;" horiz-adv-x="498" d="M-74 -352l8 108q4 19 18 21.5t53 2.5q79 0 112 36t33 118v1106h199v-1106q0 -65 -17 -120.5t-53 -97t-94 -65t-140 -23.5q-34 0 -62 5.5t-57 14.5zM111 1362q0 29 10.5 54t29.5 44t43.5 29.5t52.5 10.5q29 0 54 -10.5t44.5 -29.5t30.5 -44t11 -54q0 -28 -11 -53 t-30.5 -44t-45 -29.5t-53.5 -10.5t-52.5 10.5t-43.5 29.5t-29.5 44t-10.5 53z" />
<glyph unicode="&#x459;" horiz-adv-x="1718" d="M0 16v126h55q35 0 70.5 12t69.5 46t65 95.5t56.5 161.5t44 243.5t28.5 339.5h676v-401h212q108 0 182 -26t119 -69.5t65 -100.5t20 -118q0 -71 -25 -131t-73.5 -103t-120.5 -67t-164 -24h-415v884h-310q-12 -197 -36.5 -340t-59.5 -242.5t-77.5 -161.5t-90 -96.5t-98 -46 t-100.5 -11.5q-93 0 -93 30zM1065 146h215q103 0 154 50t51 127q0 35 -11.5 66t-36 54t-64 37t-96.5 14h-212v-348z" />
<glyph unicode="&#x45a;" horiz-adv-x="1670" d="M140 0v1040h200v-409h476v409h201v-401h211q109 0 182.5 -26t119 -69.5t65.5 -100.5t20 -118q0 -71 -25 -131t-74.5 -103t-120.5 -67t-163 -24h-416v479h-476v-479h-200zM1017 146h214q103 0 154.5 50t51.5 127q0 35 -11.5 66t-36 54t-64.5 37t-96 14h-212v-348z" />
<glyph unicode="&#x45b;" horiz-adv-x="1145" d="M-15 1180v127h154v204h201v-204h297v-127h-297v-295q66 68 144.5 107.5t182.5 39.5q86 0 151 -28.5t109 -80.5t66.5 -124.5t22.5 -160.5v-638h-201v638q0 112 -51 173.5t-156 61.5q-77 0 -144 -35.5t-124 -99.5v-738h-201v1180h-154z" />
<glyph unicode="&#x45c;" horiz-adv-x="1072" d="M140 -1v1041h200v-444h94q43 0 73.5 17.5t51.5 51.5l210 321q15 24 41 39t54 15h157l-263 -393q-25 -39 -51.5 -63.5t-65.5 -37.5q49 -14 83 -42.5t60 -73.5l266 -430h-139q-54 0 -83 18t-50 52l-190 314q-24 39 -59 58.5t-82 19.5h-107v-463h-200zM434 1192l151 248 q14 24 31 35.5t53 11.5h196l-243 -264q-15 -17 -29.5 -24t-37.5 -7h-121z" />
<glyph unicode="&#x45d;" horiz-adv-x="1182" d="M140 -1v1041h200v-681q0 -20 -2 -45t-6 -50q20 45 40 73l478 653q11 17 30 33.5t43 16.5h120v-1040h-200v680q0 20 2 45.5t6 50.5q-10 -22 -20 -40.5t-20 -33.5l-478 -652q-11 -18 -29.5 -34.5t-42.5 -16.5h-121zM316 1487h189q36 0 53.5 -12t31.5 -35l151 -248h-114 q-24 0 -38.5 6.5t-29.5 24.5z" />
<glyph unicode="&#x45e;" horiz-adv-x="1061" d="M17 1040h174q26 0 40.5 -12t20.5 -28l264 -624l16 -48t13 -47q7 25 15 48.5t18 47.5l255 623q7 17 22 28.5t35 11.5h160l-578 -1342q-9 -23 -24.5 -35t-45.5 -12h-148l190 415zM250 1411q0 23 11.5 41t31.5 18h118q0 -48 8 -81t24.5 -53.5t45 -30t69.5 -9.5t69 9.5t45 30 t24.5 53.5t7.5 81h118q20 0 31.5 -18t11.5 -41q0 -51 -21 -92t-61 -70t-97 -45t-128 -16q-72 0 -129 16t-97 45t-61 70t-21 92z" />
<glyph unicode="&#x45f;" horiz-adv-x="1156" d="M140 0v1040h200v-888h476v888h201v-1040h-348v-294q0 -29 -16 -45t-42 -16h-124v355h-347z" />
<glyph unicode="&#x460;" horiz-adv-x="2203" d="M101 749q0 154 29.5 287.5t92.5 233.5t162.5 158t240.5 58q113 0 191 -36t135 -91l-45 -109q-11 -17 -20.5 -22.5t-24.5 -5.5q-14 0 -30.5 11.5t-40.5 26t-58.5 26t-84.5 11.5q-161 0 -246 -141.5t-85 -417.5q0 -281 96 -424t277 -143q93 0 168.5 36.5t133.5 100.5v498 h219v-498q58 -65 133 -101t168 -36q182 0 277.5 143.5t95.5 423.5q0 275 -85 417t-246 142q-49 0 -83 -11.5t-58 -26t-41 -26t-31 -11.5t-23.5 5.5t-21.5 22.5l-46 109q29 28 63 51t73.5 39.5t87 26.5t104.5 10q140 0 239.5 -58t163 -158t92.5 -234t29 -287 q0 -180 -38.5 -322.5t-111 -241t-178.5 -150t-241 -51.5q-132 0 -239 47t-192 134q-85 -87 -192 -134t-239 -47q-135 0 -241 51.5t-179 150t-111.5 240.5t-38.5 323z" />
<glyph unicode="&#x461;" horiz-adv-x="1594" d="M116 623v417h134q32 0 45.5 -18t13.5 -42v-335q0 -145 52 -259t145 -201q41 41 76.5 93.5t62 112.5t41 125t14.5 129v395h136q31 0 44.5 -18t13.5 -42v-328q0 -65 14 -128.5t39 -124t61 -115t82 -99.5q43 42 80.5 94.5t66 116.5t44.5 140.5t16 169.5q0 65 -6.5 111.5 t-14.5 80.5t-15 57t-7 38q0 17 11.5 32t31.5 15h150q20 -85 32 -166t12 -165q0 -115 -21 -214.5t-60.5 -187t-96.5 -163.5t-128 -144h-118q-17 0 -27 6.5t-23 21.5q-65 65 -123 157.5t-97 197.5q-38 -105 -96.5 -198t-123.5 -158q-12 -14 -19.5 -20.5t-25.5 -6.5h-122 q-65 60 -118.5 132t-93 150.5t-61 165t-21.5 175.5z" />
<glyph unicode="&#x462;" horiz-adv-x="1489" d="M53 1086v164h367v220h218v-220h449v-164h-449v-241h274q136 0 234.5 -30.5t162.5 -83.5t94.5 -126.5t30.5 -159.5q0 -101 -35 -183.5t-102 -141t-164.5 -89.5t-221.5 -31h-491v1086h-367zM638 173h273q83 0 141.5 18.5t95.5 51.5t54 79.5t17 101.5q0 58 -17 104t-53.5 78 t-95 49t-141.5 17h-274v-499z" />
<glyph unicode="&#x463;" horiz-adv-x="1156" d="M30 885v154h269v287h190v-287h330v-154h-330v-246h233q109 0 182.5 -26t119 -69.5t65.5 -100.5t20 -118q0 -71 -25 -131t-74 -103t-120.5 -67t-163.5 -24h-427v885h-269zM489 146h236q103 0 154.5 50t51.5 127q0 35 -11.5 66t-36 54t-64.5 37t-96 14h-234v-348z" />
<glyph unicode="&#x464;" horiz-adv-x="1951" d="M181 0v1470h219v-640h316q14 146 70 267.5t146 208t210 134t263 47.5q153 0 269 -51t203 -137l-72 -101q-7 -11 -17 -18.5t-29 -7.5q-18 0 -43 19.5t-65 44t-99.5 43.5t-147.5 19q-94 0 -174 -31.5t-141 -91.5t-99.5 -147t-50.5 -198h660v-164h-662q9 -118 48.5 -209.5 t101.5 -155t142.5 -97t171.5 -33.5q59 0 107 7.5t88 23t75.5 39.5t71.5 58q8 7 17 11.5t21 4.5q17 0 31 -14l86 -94q-87 -106 -211 -164.5t-299 -58.5q-146 0 -266 49.5t-207.5 139.5t-139 215.5t-61.5 277.5h-314v-666h-219z" />
<glyph unicode="&#x465;" horiz-adv-x="1426" d="M140 0v1040h194v-440h195q12 100 53 183.5t105 143t148.5 92.5t184.5 33q110 0 194 -37t144 -99l-65 -91q-5 -8 -14 -14.5t-25 -6.5t-33 12.5t-42.5 27.5t-64 28t-96.5 13q-57 0 -106.5 -19t-87.5 -56t-63 -89.5t-34 -120.5h436v-145h-437q8 -73 34 -129t65.5 -93.5 t89.5 -57.5t105 -20q37 0 66.5 4t55 13t48 24t46.5 36q16 14 32 14q15 0 26 -12l77 -83q-61 -79 -150 -120.5t-213 -41.5q-103 0 -188 34t-146.5 95.5t-98.5 147t-47 189.5h-194v-455h-194z" />
<glyph unicode="&#x466;" horiz-adv-x="1440" d="M-6 0l622 1470h208l623 -1470h-174q-29 0 -47.5 14.5t-26.5 36.5l-228 567h-150v-618h-206v618h-145l-228 -567q-8 -19 -26.5 -35t-46.5 -16h-175zM534 775h374l-138 343q-11 30 -24.5 71t-25.5 88q-11 -48 -24 -89t-25 -72z" />
<glyph unicode="&#x467;" horiz-adv-x="1150" d="M7 0l476 1041h185l476 -1041h-155q-26 0 -41 12.5t-23 31.5l-156 351h-104v-395h-183v395h-100l-156 -351q-6 -17 -22.5 -30.5t-40.5 -13.5h-156zM443 534h265l-91 202q-10 26 -20.5 61.5t-22.5 75.5q-9 -42 -19.5 -76.5t-20.5 -61.5z" />
<glyph unicode="&#x468;" horiz-adv-x="2054" d="M181 0v1470h219v-695h536l294 695h208l622 -1470h-174q-29 0 -47 14.5t-27 36.5l-228 567h-149v-618h-206v618h-146l-228 -567q-8 -19 -26.5 -35t-46.5 -16h-175l262 618h-469v-618h-219zM1147 775h375l-139 343q-11 30 -24 71t-26 88q-11 -48 -24 -89t-25 -72z" />
<glyph unicode="&#x469;" horiz-adv-x="1623" d="M140 0v1041h194v-507h389l232 507h187l474 -1041h-155q-25 0 -40.5 12.5t-23.5 31.5l-156 351h-102v-395h-183v395h-101l-155 -351q-7 -17 -24 -30.5t-41 -13.5h-156l180 395h-325v-395h-194zM916 534h265l-90 202q-10 26 -21 61.5t-22 75.5q-10 -42 -21 -76.5t-21 -61.5 z" />
<glyph unicode="&#x46a;" horiz-adv-x="1698" d="M23 0l192 502q29 74 63.5 131t82 97.5t109.5 64t145 28.5l-523 647h1514l-525 -647q84 -5 147 -28t110.5 -64t82.5 -98.5t64 -130.5l192 -502h-174q-28 0 -46.5 16t-26.5 35l-151 430q-19 55 -39.5 91t-49.5 57t-69.5 30t-99.5 9h-65l-2 -2h-4v-666h-207v666h-1l-2 2h-61 q-59 0 -99.5 -9t-69.5 -30t-49.5 -56.5t-39.5 -91.5l-151 -430q-8 -19 -27 -35t-46 -16h-174zM444 1314l278 -339q25 -31 44.5 -56.5t35.5 -49t27.5 -46.5t19.5 -50q7 27 19 50t27.5 46.5t35.5 49t45 56.5l277 339h-809z" />
<glyph unicode="&#x46b;" horiz-adv-x="1328" d="M19 0l144 339q24 55 51 98t61 75t77 51.5t100 27.5l-384 449h1192l-386 -449q57 -7 101.5 -26.5t79 -51.5t61.5 -75.5t50 -98.5l144 -339h-156q-24 0 -40 13.5t-24 30.5l-105 279q-15 41 -32 67.5t-39.5 40.5t-51.5 20t-70 6h-32l-1 -1h-6v-456h-183v456h-3l-1 1h-28 q-41 0 -70.5 -6t-51.5 -20t-39 -40.5t-32 -67.5l-105 -279q-7 -17 -24 -30.5t-41 -13.5h-156zM388 902l165 -179q22 -27 39 -48.5t31 -41.5t24 -40.5t17 -42.5q6 23 16 43t24 40t31.5 41.5t38.5 48.5l165 179h-551z" />
<glyph unicode="&#x46c;" horiz-adv-x="2316" d="M181 0v1470h219v-646h833l-523 646h1514l-524 -647q84 -5 147 -28t110.5 -64t82.5 -98.5t63 -130.5l193 -502h-175q-28 0 -47 16t-26 35l-152 430q-19 55 -39.5 91t-49 57t-69 30t-100.5 9h-63l-2 -2h-5v-666h-206v666h-1l-2 2h-73q-47 0 -84 -8.5t-67 -30t-53 -57 t-43 -91.5l-153 -430q-8 -19 -26.5 -35t-46.5 -16h-175l191 499q22 57 65.5 99t100.5 70h-595v-668h-219zM1062 1314l277 -339q25 -31 45 -56.5t36.5 -49t27.5 -46.5t19 -50q7 27 19 50t28 46.5t36 49t44 56.5l277 339h-809z" />
<glyph unicode="&#x46d;" horiz-adv-x="1805" d="M140 0v1041h194v-446h593l-382 445h1194l-386 -449q56 -7 100 -26.5t79 -51.5t61.5 -75.5t50.5 -98.5l144 -339h-156q-24 0 -40.5 13.5t-23.5 30.5l-106 279q-15 41 -32 67.5t-39 40.5t-51.5 20t-69.5 6h-33l-1 -1h-5v-456h-182v456h-3l-2 1h-36q-34 0 -61.5 -6t-50 -20 t-40.5 -40.5t-34 -67.5l-107 -279q-7 -17 -23.5 -30.5t-40.5 -13.5h-155l143 340q15 39 46 67.5t70 49.5h-421v-457h-194zM866 902l165 -179q22 -27 39 -49t31 -42t24.5 -40.5t16.5 -43.5q6 24 16 44t24 40t31.5 42t38.5 49l163 179h-549z" />
<glyph unicode="&#x46e;" horiz-adv-x="1145" d="M26 -53q0 125 79 192t225 67q32 0 61.5 -3t57 -6t54.5 -6.5t55 -3.5q68 0 120.5 19t89 53t55 80t18.5 100q0 59 -22 106.5t-62.5 79t-99 48t-132.5 15.5h-202l-1 179h192q63 0 116 15t91 43t59 69.5t21 95.5q0 48 -20 88t-58 68t-93 44t-124 16q-81 0 -138 -17t-96.5 -38 t-65.5 -38t-45 -17q-17 0 -28 8t-21 26l-54 103q83 74 195.5 113.5t252.5 39.5q115 0 207 -28t157 -78.5t100 -120t35 -152.5q0 -108 -52 -190.5t-147 -132.5q53 -23 97.5 -56t76 -76.5t49 -96.5t17.5 -117q0 -85 -31.5 -162.5t-95 -137.5t-159 -96t-224.5 -36 q-35 0 -63 2.5t-51 5.5t-43.5 6t-39.5 3q-56 0 -83 -21.5t-27 -61.5q0 -25 10.5 -43.5t35.5 -30.5t67 -19t104 -7q71 0 133 5t114 5q71 0 117 -14.5t73.5 -40.5t39 -63t11.5 -81q0 -12 -1 -23.5t-5.5 -20t-14.5 -14.5t-26 -6h-57q-2 55 -33 77t-110 22q-26 0 -46 -1.5 t-43.5 -4t-52 -4t-68.5 -1.5q-237 0 -344 67.5t-107 204.5z" />
<glyph unicode="&#x46f;" horiz-adv-x="903" d="M25 -75q0 48 15 89t46 71t76 46.5t105 16.5q33 0 70.5 -4.5t73.5 -4.5q52 0 92.5 13.5t68 36.5t42 53.5t14.5 65.5q0 80 -60.5 124.5t-187.5 44.5h-117v133h117q111 0 172 41.5t61 107.5q0 29 -13 55t-39.5 46t-67 31t-94.5 11q-59 0 -100 -11.5t-69.5 -26t-47.5 -26.5 t-34 -12q-14 0 -23.5 6t-21.5 23l-45 77q51 49 123 82t168 41l-212 251h116q23 0 37.5 -6t26.5 -22l104 -121q6 -8 12 -18l12 -20q5 10 11.5 20t13.5 18l81 106q23 28 54 40.5t67 12.5q22 0 39 -4t34 -9v-95h-20q-27 0 -45 -13t-33 -30l-108 -123q62 -14 110 -40.5t81 -61 t49.5 -75t16.5 -83.5q0 -31 -10 -64t-31.5 -63.5t-56.5 -57t-88 -43.5q52 -16 91 -42.5t65.5 -58.5t39 -69.5t12.5 -77.5q0 -68 -26.5 -126t-76.5 -100t-122.5 -66t-163.5 -24q-46 0 -86.5 5t-69.5 5q-42 0 -65 -18t-23 -55q0 -50 40.5 -73.5t111.5 -23.5q23 0 51 1.5 t58 3.5t60.5 3.5t55.5 1.5q71 0 117.5 -14.5t74 -41t39 -62.5t11.5 -80q0 -12 -1.5 -24t-6 -21t-14 -14.5t-25.5 -5.5h-58q-1 28 -8.5 47t-24.5 30t-43.5 16t-66.5 5q-51 0 -103 -5t-100 -5q-70 0 -130 17t-104 49.5t-69 81.5t-25 112z" />
<glyph unicode="&#x470;" horiz-adv-x="1679" d="M98 945v525h146q35 0 53.5 -21.5t18.5 -52.5v-451q0 -95 23 -169.5t73 -126.5t128 -81t189 -34v936h218v-936q111 5 189.5 34t129 81t73.5 126.5t23 169.5v451q0 32 19 53t54 21h145v-525q0 -131 -40.5 -236.5t-120.5 -181.5t-198 -119.5t-274 -50.5v-357h-218v357 q-156 6 -273.5 50.5t-197 120t-120 181.5t-40.5 236z" />
<glyph unicode="&#x471;" horiz-adv-x="1577" d="M124 494v546h138q12 0 24 -7.5t20 -19t13.5 -25t5.5 -25.5v-469q0 -77 25 -137t72 -103t114.5 -69.5t153.5 -37.5v1323h200v-1324q81 7 150 32t119.5 72.5t79.5 122t29 183.5q0 75 -7 131.5t-16 104.5t-18 91t-15 90q0 38 18 52.5t39 14.5h143q12 -65 23 -124t18 -117.5 t11 -117.5t4 -125q0 -153 -46.5 -257t-125.5 -170.5t-184 -99t-222 -41.5v-336h-200v335q-284 18 -425 150t-141 357z" />
<glyph unicode="&#x472;" horiz-adv-x="1643" d="M91 735q0 164 53.5 302.5t149 238t230 155.5t297.5 56q164 0 298 -56t230.5 -155.5t149 -238t52.5 -302.5q0 -165 -52.5 -302.5t-149 -237.5t-230.5 -155t-298 -55q-163 0 -297.5 55t-230 155t-149 237.5t-53.5 302.5zM316 666q9 -116 48.5 -207.5t105.5 -155t155 -97 t196 -33.5q108 0 197 33.5t154 97t104.5 155t48.5 207.5h-1009zM318 830h1005q-12 110 -52.5 197t-105 147.5t-151.5 92t-193 31.5q-104 0 -191 -31.5t-152 -92t-106 -147.5t-54 -197z" />
<glyph unicode="&#x473;" horiz-adv-x="1165" d="M81 521q0 123 35.5 222t101 169t158 107.5t208.5 37.5q115 0 207.5 -37.5t157.5 -107.5t99.5 -169t34.5 -222t-34.5 -222t-99.5 -169t-158 -107t-207 -37q-116 0 -208.5 37t-158 107t-101 169t-35.5 222zM278 460q13 -158 90.5 -241.5t215.5 -83.5q136 0 212.5 83.5 t90.5 241.5h-609zM279 593h607q-15 153 -92 233t-210 80q-135 0 -212.5 -80.5t-92.5 -232.5z" />
<glyph unicode="&#x474;" horiz-adv-x="1436" d="M-1 1470h174q29 0 47 -14t27 -37l397 -999q14 -37 28 -81t25 -92q10 48 22.5 92t26.5 81l290 854q33 104 102.5 154t175.5 50q58 0 80 -10t22 -32v-137h-55q-46 0 -80 -26.5t-53 -81.5l-435 -1191h-196z" />
<glyph unicode="&#x475;" horiz-adv-x="1108" d="M17 1040h164q24 0 40 -11t21 -29l245 -639q14 -42 24 -82t18 -80q8 40 19 79.5t23 82.5l180 503q18 58 42 95t52.5 58t62.5 28.5t73 7.5q28 0 46.5 -3t28.5 -8t14 -10.5t4 -9.5v-112h-30q-44 0 -73.5 -19t-45.5 -62l-309 -829h-180z" />
<glyph unicode="&#x476;" horiz-adv-x="1436" d="M-1 1470h174q29 0 47 -14t27 -37l397 -999q14 -37 28 -81t25 -92q10 48 22.5 92t26.5 81l290 854q33 104 102.5 154t175.5 50q58 0 80 -10t22 -32v-137h-55q-46 0 -80 -26.5t-53 -81.5l-435 -1191h-196zM198 1863h150q36 0 59 -12.5t41 -34.5l189 -233h-107 q-24 0 -41 7.5t-34 23.5zM585 1863h131q36 0 58 -12t36 -35l150 -233h-97q-24 0 -37.5 8t-29.5 23z" />
<glyph unicode="&#x477;" horiz-adv-x="1108" d="M17 1040h164q24 0 40 -11t21 -29l245 -639q14 -42 24 -82t18 -80q8 40 19 79.5t23 82.5l180 503q18 58 42 95t52.5 58t62.5 28.5t73 7.5q28 0 46.5 -3t28.5 -8t14 -10.5t4 -9.5v-112h-30q-44 0 -73.5 -19t-45.5 -62l-309 -829h-180zM69 1487h145q17 0 30 -3t22.5 -9.5 t17 -15t15.5 -19.5l184 -248h-96q-24 0 -38.5 6.5t-28.5 24.5zM399 1487h132q36 0 53.5 -12t31.5 -35l138 -248h-83q-24 0 -39 6.5t-28 24.5z" />
<glyph unicode="&#x478;" horiz-adv-x="2692" d="M92 735q0 164 53.5 302.5t149 238t230 155.5t297.5 56q164 0 298 -56t230.5 -155.5t149 -238t52.5 -302.5q0 -165 -52.5 -302.5t-149 -237.5t-230.5 -155t-298 -55q-163 0 -297.5 55t-230 155t-149 237.5t-53.5 302.5zM314 735q0 -132 36 -236t102.5 -176.5t160.5 -111 t209 -38.5q116 0 209.5 38.5t159.5 111t102 176.5t36 236q0 131 -36 235.5t-102 177.5t-159.5 111.5t-209.5 38.5t-209.5 -38.5t-160 -111.5t-102.5 -177.5t-36 -235.5zM1651 1040h174q26 0 40.5 -12t20.5 -28l264 -624l16 -48t13 -47q7 25 15 48.5t18 47.5l255 623 q7 17 22 28.5t35 11.5h160l-578 -1342q-9 -23 -24.5 -35t-45.5 -12h-148l190 415z" />
<glyph unicode="&#x479;" horiz-adv-x="2217" d="M81 521q0 123 35.5 222t101 169t158 107.5t208.5 37.5q115 0 207.5 -37.5t157.5 -107.5t99.5 -169t34.5 -222t-34.5 -222t-99.5 -169t-158 -107t-207 -37q-116 0 -208.5 37t-158 107t-101 169t-35.5 222zM288 520q0 -180 73 -279.5t223 -99.5q147 0 220 99.5t73 279.5 t-73 280t-220 100q-150 0 -223 -100t-73 -280zM1173 1040h174q26 0 40.5 -12t20.5 -28l264 -624l16 -48t13 -47q7 25 15 48.5t18 47.5l255 623q7 17 22 28.5t35 11.5h160l-578 -1342q-9 -23 -24.5 -35t-45.5 -12h-148l190 415z" />
<glyph unicode="&#x47a;" horiz-adv-x="1738" d="M91 735q0 152 45 281.5t128 227t200 159.5t259 79q23 39 61 62t87 23t88.5 -23.5t62.5 -62.5q141 -17 256.5 -79t198 -159.5t127 -226t44.5 -280.5q0 -151 -44.5 -279t-126.5 -226t-197.5 -160.5t-256.5 -79.5q-23 -39 -62.5 -62.5t-89.5 -23.5q-49 0 -88 23t-61 62 q-142 16 -258.5 77.5t-199.5 159.5t-128 227t-45 281zM313 735q0 -119 29.5 -215t84 -167t132 -115.5t174.5 -58.5q24 33 59.5 52t78.5 19q44 0 80 -19t60 -51q95 14 172 59t130.5 116.5t82.5 167t29 213.5t-29 214.5t-82.5 167t-130 115t-171.5 58.5q-24 -33 -60.5 -51 t-80.5 -18t-79.5 19t-59.5 51q-96 -14 -173.5 -58.5t-132 -115.5t-84 -168t-29.5 -215z" />
<glyph unicode="&#x47b;" horiz-adv-x="1299" d="M81 521q0 111 28.5 202.5t82.5 159.5t130.5 111t173.5 57q20 43 60 68.5t92 25.5q51 0 92 -25.5t63 -68.5q96 -13 173.5 -56t131 -111.5t82.5 -160t29 -202.5q0 -112 -29.5 -204t-83.5 -160.5t-132 -111t-175 -54.5q-22 -39 -62 -62.5t-89 -23.5t-88.5 23.5t-60.5 62.5 q-97 13 -174.5 55.5t-131.5 110.5t-83 160.5t-29 203.5zM288 520q0 -153 50.5 -246.5t155.5 -120.5q20 43 61 70t93 27t94.5 -27t62.5 -71q105 28 156 122t51 246q0 154 -52 248.5t-158 121.5q-23 -41 -63.5 -65.5t-90.5 -24.5q-51 0 -91 24.5t-60 65.5q-105 -27 -157 -122 t-52 -248z" />
<glyph unicode="&#x47c;" horiz-adv-x="2204" d="M102 749q0 154 29.5 287.5t92.5 233.5t162.5 158t240.5 58q56 0 103 -10t87 -26.5t73.5 -40t62.5 -50.5l-46 -109q-11 -17 -20.5 -22.5t-24.5 -5.5q-14 0 -30.5 11.5t-40.5 26t-58.5 26t-83.5 11.5q-161 0 -246 -141.5t-85 -417.5q0 -281 95.5 -424t277.5 -143 q118 0 198.5 58t129.5 156h166q49 -99 130 -156.5t198 -57.5q181 0 277 143.5t96 423.5q0 275 -85 417t-246 142q-49 0 -83 -11.5t-58.5 -26t-41 -26t-31.5 -11.5q-14 0 -23.5 5.5t-21.5 22.5l-45 109q29 28 63 51t73.5 39.5t87 26.5t103.5 10q140 0 240 -58t163 -158 t92 -234t29 -287q0 -180 -38.5 -322.5t-111 -241t-178.5 -150t-241 -51.5q-131 0 -238 47t-193 134q-85 -87 -192 -134t-239 -47q-135 0 -240.5 51.5t-178.5 150t-111.5 240.5t-38.5 323zM762 1693q0 120 68 185.5t188 65.5q49 0 92 -11t83.5 -27t81 -35t84.5 -34.5 t92.5 -26.5t107.5 -11v-106q-97 0 -173 22t-138 48.5t-116 48.5t-107 22q-65 0 -102 -36.5t-37 -104.5h-124zM1030 1624q0 39 25 64t69 25q52 0 80.5 -34.5t28.5 -93.5q0 -37 -11.5 -69.5t-34.5 -56.5t-57.5 -38t-82.5 -14v35q0 19 34 26q33 8 50.5 25.5t19.5 54.5 q-5 -2 -11.5 -3t-14.5 -1q-51 0 -73 23.5t-22 56.5z" />
<glyph unicode="&#x47d;" horiz-adv-x="1598" d="M87 528q0 109 20.5 204t66 166.5t117 112.5t174.5 41q83 0 141.5 -27t101.5 -68l-40 -97q-9 -15 -18.5 -19.5t-20.5 -4.5t-23.5 7.5t-29 16.5t-38.5 17t-54 8q-98 0 -151.5 -90t-53.5 -276q0 -178 56.5 -271t177.5 -93q78 0 129.5 38t84.5 112h145q33 -74 85 -112 t129 -38q121 0 178 93t57 271q0 185 -54 275.5t-152 90.5q-31 0 -53.5 -8t-38.5 -17t-28.5 -16.5t-23.5 -7.5q-12 0 -20.5 4.5t-18.5 19.5l-40 97q43 41 101 68t143 27q101 0 172.5 -41t117 -112.5t66 -166.5t20.5 -204q0 -125 -26.5 -225t-77.5 -170t-128 -107t-176 -37 q-92 0 -167.5 31.5t-136.5 91.5q-61 -59 -136 -91t-168 -32q-100 0 -176.5 37t-128 107t-78 170t-26.5 225zM458 1309q0 120 68.5 185t187.5 65q49 0 92 -11t84 -27t81.5 -35t84 -34.5t92.5 -26.5t106 -11v-106q-97 0 -172.5 22t-137.5 49t-116 49t-107 22q-65 0 -101.5 -37 t-36.5 -104h-125zM727 1239q0 39 24.5 64t69.5 25q52 0 80.5 -35t28.5 -93q0 -37 -11.5 -69t-34.5 -56t-57.5 -38t-83.5 -14v35q0 18 35 25q33 8 50 26t19 55q-9 -4 -25 -4q-52 0 -73.5 23.5t-21.5 55.5z" />
<glyph unicode="&#x47e;" horiz-adv-x="2203" d="M101 749q0 154 29.5 287.5t92.5 233.5t162.5 158t240.5 58q113 0 191 -36t135 -91l-45 -109q-11 -17 -20.5 -22.5t-24.5 -5.5q-14 0 -30.5 11.5t-40.5 26t-58.5 26t-84.5 11.5q-161 0 -246 -141.5t-85 -417.5q0 -281 96 -424t277 -143q93 0 168.5 36.5t133.5 100.5v498 h219v-498q58 -65 133 -101t168 -36q182 0 277.5 143.5t95.5 423.5q0 275 -85 417t-246 142q-49 0 -83 -11.5t-58 -26t-41 -26t-31 -11.5t-23.5 5.5t-21.5 22.5l-46 109q29 28 63 51t73.5 39.5t87 26.5t104.5 10q140 0 239.5 -58t163 -158t92.5 -234t29 -287 q0 -180 -38.5 -322.5t-111 -241t-178.5 -150t-241 -51.5q-132 0 -239 47t-192 134q-85 -87 -192 -134t-239 -47q-135 0 -241 51.5t-179 150t-111.5 240.5t-38.5 323zM658 1816h885q0 -12 -1.5 -20t-3.5 -19l-50 -183q-3 -12 -12 -18t-18 -6t-18 6t-12 18l-30 121h-235 l-34 -121q-3 -12 -11.5 -18t-18 -6t-17.5 6t-11 18l-32 121h-236l-33 -121q-4 -12 -12.5 -18t-17.5 -6t-17.5 6t-12.5 18l-47 183q-2 9 -3.5 18t-1.5 21z" />
<glyph unicode="&#x47f;" horiz-adv-x="1594" d="M116 623v417h134q32 0 45.5 -18t13.5 -42v-335q0 -145 52 -259t145 -201q41 41 76.5 93.5t62 112.5t41 125t14.5 129v395h136q31 0 44.5 -18t13.5 -42v-328q0 -65 14 -128.5t39 -124t61 -115t82 -99.5q43 42 80.5 94.5t66 116.5t44.5 140.5t16 169.5q0 65 -6.5 111.5 t-14.5 80.5t-15 57t-7 38q0 17 11.5 32t31.5 15h150q20 -85 32 -166t12 -165q0 -115 -21 -214.5t-60.5 -187t-96.5 -163.5t-128 -144h-118q-17 0 -27 6.5t-23 21.5q-65 65 -123 157.5t-97 197.5q-38 -105 -96.5 -198t-123.5 -158q-12 -14 -19.5 -20.5t-25.5 -6.5h-122 q-65 60 -118.5 132t-93 150.5t-61 165t-21.5 175.5zM354 1386h885q0 -12 -1.5 -20t-3.5 -19l-50 -183q-3 -12 -12 -18t-18 -6t-18 6t-12 18l-30 121h-235l-34 -121q-3 -12 -11.5 -18t-18 -6t-17.5 6t-11 18l-32 121h-236l-33 -121q-4 -12 -12.5 -18t-17.5 -6t-17.5 6 t-12.5 18l-47 183q-2 9 -3.5 18t-1.5 21z" />
<glyph unicode="&#x480;" horiz-adv-x="1305" d="M93 735q0 166 53 304.5t148 237.5t227.5 154.5t292.5 55.5q158 0 279.5 -51.5t211.5 -136.5l-72 -101q-7 -11 -17.5 -18.5t-27.5 -7.5q-19 0 -45.5 19.5t-69 44t-105 43.5t-155.5 19q-110 0 -201.5 -38t-157.5 -110.5t-102.5 -177.5t-36.5 -237q0 -134 37.5 -238.5 t104 -177t156.5 -110.5t197 -38q52 0 84 4.5t53 9.5t36 10t34 5h61v-494q0 -29 -15.5 -45t-41.5 -16h-124v348q-27 -2 -55 -3t-46 -1q-160 0 -289.5 54t-221.5 153t-142 236t-50 303z" />
<glyph unicode="&#x481;" horiz-adv-x="944" d="M81 521q0 116 32 214.5t95 169.5t155.5 111.5t210.5 40.5q112 0 197 -36t152 -101l-54 -74q-9 -11 -17.5 -18t-25.5 -7q-16 0 -34 13t-45 28t-65.5 27.5t-94.5 12.5q-74 0 -130.5 -26.5t-93.5 -75.5t-56.5 -120t-19.5 -159q0 -91 20.5 -162t58 -120t92 -74t121.5 -25 q34 0 56 5t37.5 10t25 9.5t15.5 4.5h75v-464q0 -29 -15.5 -45t-42.5 -16h-123v345q-33 -3 -64 -3q-97 0 -182 35.5t-146.5 104.5t-97.5 168.5t-36 226.5z" />
<glyph unicode="&#x482;" horiz-adv-x="1490" d="M47 717l98 147l387 -266l268 388l-384 264l98 149l387 -267l244 354l168 -112l-246 -356l377 -260l-98 -148l-380 261l-268 -388l377 -259l-98 -148l-380 262l-244 -354l-167 111l246 357z" />
<glyph unicode="&#x483;" horiz-adv-x="819" d="M-16 1234q0 32 9.5 54.5t27 36.5t40 21t49.5 7h542v94h59q25 0 47 -7t39.5 -22t28 -37t10.5 -51q0 -32 -10 -54.5t-27.5 -36.5t-40.5 -21t-48 -7h-543v-94h-58q-25 0 -47.5 7.5t-40 22t-27.5 36t-10 51.5z" />
<glyph unicode="&#x484;" horiz-adv-x="819" d="M5 1182v123q61 0 112.5 11.5t96 28.5t86 37.5t84 37.5t88.5 28.5t101 11.5q137 0 200 -72t63 -206h-144q0 43 -11 72t-29.5 47t-42.5 26t-51 8q-43 0 -81 -11t-75.5 -28.5t-77 -37t-87 -37t-104 -28.5t-128.5 -11z" />
<glyph unicode="&#x485;" horiz-adv-x="819" d="M303 1370q0 69 34 104t95 35q53 0 82.5 -29.5t29.5 -75.5q0 -38 -25.5 -66t-87.5 -28q-8 0 -14.5 0.5t-13.5 1.5q4 -38 23.5 -57.5t55.5 -27.5q42 -8 42 -33v-42q-57 0 -98.5 18t-68.5 48t-40.5 69.5t-13.5 82.5z" />
<glyph unicode="&#x486;" horiz-adv-x="819" d="M303 1400q0 46 29 75.5t83 29.5q61 0 95 -41.5t34 -109.5q0 -43 -13.5 -81t-40.5 -65.5t-69 -43.5t-98 -16v42q0 25 42 33q39 8 57.5 27t20.5 60q-6 -2 -12.5 -3t-14.5 -1q-61 0 -87 28t-26 66z" />
<glyph unicode="&#x488;" horiz-adv-x="2298" d="M95 579q0 55 16 100.5t47 78t78.5 50t109.5 17.5t109.5 -17.5t79 -50t47.5 -78t16 -100.5h-141q0 60 -24 90t-87 30q-62 0 -85.5 -30t-23.5 -90h-142zM292 117q0 55 16 100.5t47 78t78.5 50.5t109.5 18t109 -18t79 -50.5t48 -78t16 -100.5h-142q0 59 -24 89.5t-86 30.5 t-86 -30.5t-24 -89.5h-141zM292 1040q0 55 16 101t47 78t78.5 50t109.5 18t109 -18t79 -50t48 -77.5t16 -101.5h-142q0 59 -24 89.5t-86 30.5t-86 -30t-24 -90h-141zM898 -219q0 55 16 100t47 77.5t78.5 50.5t109.5 18t109.5 -18t79 -50.5t47.5 -77.5t16 -100h-141 q0 59 -24.5 89.5t-86.5 30.5t-86 -30.5t-24 -89.5h-141zM898 1377q0 55 16 100.5t47 77.5t78.5 50t109.5 18t109.5 -18t79 -50t47.5 -77t16 -101h-141q0 59 -24.5 89.5t-86.5 30.5t-86 -30t-24 -90h-141zM1504 117q0 55 16 100.5t47 78t78.5 50.5t109.5 18t109.5 -18 t78.5 -50.5t47 -78t16 -100.5h-140q0 59 -24 89.5t-87 30.5q-62 0 -86 -30.5t-24 -89.5h-141zM1504 1040q0 55 16 101t47 78t78.5 50t109.5 18t109.5 -18t78.5 -50t47 -77.5t16 -101.5h-140q0 59 -24 89.5t-87 30.5q-62 0 -86 -30t-24 -90h-141zM1701 579q0 55 16 100.5 t47 78t78.5 50t109.5 17.5t109 -17.5t78.5 -50t47.5 -78t16 -100.5h-141q0 60 -24 90t-86 30t-86.5 -30t-24.5 -90h-140z" />
<glyph unicode="&#x489;" horiz-adv-x="2224" d="M73 751l28 31q12 13 29 14q6 0 13.5 -5t13.5 -11q10 -9 27.5 -24t40.5 -30t50.5 -28t58.5 -19v10q0 26 9 47t25.5 36t38.5 24t49 9q46 0 78 -33t32 -85q0 -60 -40.5 -91.5t-98.5 -31.5q-43 0 -90 13t-93.5 36.5t-90 58.5t-80.5 79zM311 26q-1 10 1 16t10 13q4 4 12 6 t17 2q14 1 37 3t50 7t55 15.5t55 29.5l-7 6q-18 18 -26.5 39.5t-8 43.5t10 44t28.5 41q16 16 36.5 24.5t42 8.5t43 -9.5t40.5 -27.5q43 -44 36 -94.5t-49 -92.5q-31 -31 -72.5 -54.5t-91.5 -40t-105 -23t-113 -0.5zM445 1464l42 1q17 1 29 -10q5 -4 7 -12.5t2 -17.5 q1 -14 2.5 -37t7 -49.5t15.5 -56t29 -54.5l7 8q18 17 39 25.5t43.5 8t44.5 -10.5t41 -28q33 -33 32.5 -78.5t-36.5 -83.5q-22 -22 -46 -30.5t-48 -6t-47.5 15.5t-44.5 33q-31 31 -55.5 73t-40 92t-22.5 105.5t-1 112.5zM972 -6q0 46 32 78.5t85 32.5q31 0 53.5 -10.5 t38 -29.5t23 -44.5t7.5 -54.5q0 -43 -12.5 -90t-36 -93.5t-58.5 -90.5t-79 -81l-31 29q-8 7 -11 13t-2 15q0 6 4 13.5t10 13.5q9 10 24.5 27.5t31 40.5t28.5 50.5t18 58.5h-11q-26 0 -46.5 9t-36 25.5t-23.5 38.5t-8 49zM1027 1349q0 43 12.5 90t36.5 93.5t58 90.5t78 81 l31 -29q8 -7 11 -13t2 -15q0 -12 -14 -27q-9 -11 -24 -28t-30.5 -40t-28 -50.5t-18.5 -58.5h10q51 0 83 -35t33 -87q0 -24 -9 -44t-24 -35t-37 -24t-48 -9q-31 0 -53.5 11t-38 30t-23 44.5t-7.5 54.5zM1452 162.5q0 45.5 36 83.5q44 43 94 36t92 -49q31 -31 55 -72.5 t40.5 -92t22.5 -105.5t1 -113l-43 -1q-17 -1 -29 11q-5 4 -7 12.5t-2 16.5q-1 14 -2.5 37t-6.5 50t-15.5 55.5t-28.5 54.5l-7 -7q-18 -17 -39.5 -26t-44 -8t-44 11t-39.5 28q-33 33 -33 78.5zM1495.5 1121q6.5 50 47.5 92q31 31 73 55t91.5 40.5t105 22.5t112.5 1l1 -43 q2 -10 -0.5 -16t-9.5 -13q-4 -4 -12.5 -6.5t-16.5 -2.5q-14 -1 -37 -2.5t-50 -7t-56 -16t-54 -28.5l7 -6q18 -18 26.5 -40t8 -44t-10.5 -44t-28 -40q-16 -16 -37 -24.5t-42.5 -8.5t-42.5 9.5t-39 27.5q-43 44 -36.5 94zM1671 628q0 31 11 54t30 38t44.5 23t53.5 8 q43 0 90.5 -13t94 -36.5t90 -58.5t80.5 -79l-29 -32q-12 -13 -29 -13q-6 0 -13 4.5t-13 11.5q-10 9 -27.5 23.5t-40.5 30t-51 28.5t-58 19v-10q0 -51 -34.5 -83.5t-86.5 -32.5q-47 0 -79.5 32.5t-32.5 85.5z" />
<glyph unicode="&#x48a;" horiz-adv-x="1632" d="M181 0v1470h219v-1011q0 -46 -2.5 -97t-9.5 -107q18 49 38.5 91.5t41.5 75.5l658 980q15 26 40 47t57 21h162v-1299h203l-156 -526h-212l116 355h-169v1012q0 46 2 96.5t11 105.5q-19 -49 -40 -91t-41 -74l-658 -980q-15 -26 -40 -47.5t-57 -21.5h-163zM483 1778 q0 23 11.5 41t31.5 18h118q0 -48 7.5 -80.5t24.5 -52.5t45.5 -28.5t69.5 -8.5t69 8.5t45 28.5t24.5 52.5t7.5 80.5h118q20 0 31.5 -18.5t11.5 -40.5q0 -51 -21 -90.5t-61 -67t-97 -41.5t-128 -14q-72 0 -129 14t-97 41.5t-61 66.5t-21 91z" />
<glyph unicode="&#x48b;" horiz-adv-x="1258" d="M140 -1v1041h200v-681q0 -20 -2 -45t-6 -50q20 45 40 73l478 653q11 17 30 33.5t43 16.5h120v-888h197l-151 -507h-189l118 355h-175v680q0 20 2 45.5t6 50.5q-10 -22 -20 -40.5t-20 -33.5l-478 -652q-11 -18 -29.5 -34.5t-42.5 -16.5h-121zM297 1411q0 23 11 41t32 18 h118q0 -48 7.5 -81t24.5 -53.5t45 -30t69 -9.5t69 9.5t45 30t25 53.5t8 81h117q20 0 31.5 -18t11.5 -41q0 -51 -21 -92t-60.5 -70t-96.5 -45t-129 -16t-128.5 16t-96.5 45t-61 70t-21 92z" />
<glyph unicode="&#x48c;" horiz-adv-x="1355" d="M39 1090v164h248v216h218v-216h352v-164h-352v-245h274q136 0 234.5 -30.5t162.5 -83.5t94 -126.5t30 -159.5q0 -101 -34.5 -183.5t-101.5 -141t-164.5 -89.5t-221.5 -31h-491v1090h-248zM505 173h273q83 0 141.5 18.5t95.5 51.5t53.5 79.5t16.5 101.5q0 58 -16.5 104 t-53 78t-95 49t-141.5 17h-274v-499z" />
<glyph unicode="&#x48d;" horiz-adv-x="1073" d="M45 787v145h184v127h191v-127h224v-145h-224v-148h212q108 0 182 -26t119 -69.5t65 -100.5t20 -118q0 -71 -25 -131t-74 -103t-120.5 -67t-163.5 -24h-406v787h-184zM420 146h215q103 0 154 50t51 127q0 35 -11.5 66t-36 54t-64 37t-96.5 14h-212v-348z" />
<glyph unicode="&#x48e;" horiz-adv-x="1239" d="M181 0v1470h446q141 0 245.5 -32.5t173 -92.5t102 -145t33.5 -188q0 -136 -60.5 -240t-178.5 -165l92 -142l-130 -84l-113 176q-76 -15 -164 -15h-228v-542h-218zM399 714h228q32 0 59 3l-102 157l131 84l124 -191q61 39 93 102t32 143q0 134 -83.5 210.5t-253.5 76.5 h-228v-585z" />
<glyph unicode="&#x48f;" horiz-adv-x="1150" d="M140 -349v1389h120q42 0 52 -40l18 -115q33 39 70 71t80 55t92 36t104 13q89 0 161 -35t123.5 -102.5t79.5 -167t28 -228.5q0 -153 -52.5 -273.5t-149.5 -191.5l104 -159l-130 -84l-116 179q-51 -12 -106 -12q-93 0 -159.5 30.5t-118.5 85.5v-451h-200zM340 256 q49 -65 106 -90.5t127 -25.5q31 0 55 4l-109 168l131 84l116 -179q46 49 70.5 126.5t24.5 183.5q0 99 -17 169.5t-49 115t-79 65.5t-107 21q-87 0 -151 -39t-118 -110v-493z" />
<glyph unicode="&#x490;" horiz-adv-x="1102" d="M181 0v1470h723v331h168v-502h-672v-1299h-219z" />
<glyph unicode="&#x491;" horiz-adv-x="849" d="M140 0v1040h501v256h181v-407h-482v-889h-200z" />
<glyph unicode="&#x492;" horiz-adv-x="1211" d="M39 679v165h247v626h891v-171h-672v-455h351v-165h-351v-679h-219v679h-247z" />
<glyph unicode="&#x493;" horiz-adv-x="941" d="M46 461v144h184v435h682v-151h-482v-284h216v-144h-216v-461h-200v461h-184z" />
<glyph unicode="&#x494;" horiz-adv-x="1296" d="M181 0v1470h891v-171h-672v-497q65 33 136 51t155 18q110 0 208 -30.5t172 -100t117 -183t43 -277.5q0 -154 -40 -275t-112.5 -204.5t-173.5 -128t-222 -44.5q-102 0 -211 29l12 129q2 18 14 30t36 12q17 0 47 -8.5t79 -8.5q81 0 149 27t115.5 83.5t74 143.5t26.5 206 q0 126 -27.5 210.5t-77.5 136t-119 73.5t-152 22q-45 0 -82 -6.5t-66.5 -16.5t-54 -23.5t-46.5 -26.5v-640h-219z" />
<glyph unicode="&#x495;" horiz-adv-x="1006" d="M140 0v1040h682v-151h-482v-360q48 37 104.5 57t126.5 20q89 0 159 -31.5t117.5 -91t72.5 -145t25 -193.5q0 -120 -31 -215.5t-86 -162.5t-129.5 -103.5t-161.5 -36.5q-39 0 -77 4.5t-80 16.5q3 31 6 50t5 50q2 17 13 27.5t31 10.5q12 0 31.5 -5t49.5 -5q49 0 91 19.5 t73 62.5t47.5 112t16.5 167q0 91 -16.5 152t-48 98t-75 52.5t-96.5 15.5q-60 0 -99 -17.5t-69 -39.5v-398h-200z" />
<glyph unicode="&#x496;" horiz-adv-x="2242" d="M13 0l423 633q33 56 72.5 89.5t91.5 49.5q-44 15 -74.5 44t-60.5 72l-416 582h170q34 0 63 -16.5t47 -46.5l351 -499q32 -45 66 -59t79 -14h142v635h205v-635h143q45 0 79 14t66 59l351 499q17 30 46.5 46.5t62.5 16.5h171l-416 -582q-30 -43 -60.5 -72t-74.5 -44 q51 -17 91 -50t73 -89l308 -462h226v-463q0 -29 -19 -46t-50 -17h-130v355h-57q-48 0 -82 21t-55 57l-354 508q-29 43 -63.5 62t-88.5 19h-167v-667h-205v667h-166q-53 0 -88.5 -19t-63.5 -62l-354 -508q-20 -36 -54.5 -57t-81.5 -21h-146z" />
<glyph unicode="&#x497;" horiz-adv-x="1733" d="M24 0l265 430q27 45 60 73.5t82 43.5q-38 13 -65 37t-51 63l-264 393h158q29 0 52.5 -14.5t36.5 -39.5l210 -321q20 -34 51 -51.5t74 -17.5h84v445h194v-445h82q85 0 127 69l210 321q14 25 38 39.5t52 14.5h157l-264 -393q-25 -39 -51.5 -63.5t-64.5 -37.5 q49 -14 82.5 -42.5t59.5 -73.5l172 -278h204v-446q0 -29 -16 -45t-42 -16h-123v355h-67q-54 0 -82 17t-45 53l-190 314q-24 39 -59 58.5t-81 19.5h-99v-463h-194v463h-99q-46 0 -81 -19.5t-59 -58.5l-189 -314q-17 -36 -45.5 -53t-81.5 -17h-138z" />
<glyph unicode="&#x498;" horiz-adv-x="1181" d="M39 178l62 105q8 12 21.5 20t29.5 8q23 0 53.5 -22.5t76.5 -49.5t111 -49.5t158 -22.5q157 0 243 71t86 202q0 55 -22 101.5t-63 79t-99.5 50.5t-132.5 17h-203v179h192q63 0 116 15t91 43t59 69.5t21 95.5q0 48 -20 88t-57.5 68t-92.5 44t-124 16q-81 0 -138 -17 t-97 -38t-66 -38t-44 -17q-17 0 -28.5 8t-21.5 26l-54 103q84 74 196 113.5t253 39.5q115 0 207 -28t156.5 -78.5t99 -120t34.5 -152.5q0 -109 -52.5 -192.5t-150.5 -132.5q55 -25 100 -58.5t77.5 -76t50 -92t17.5 -104.5q0 -86 -28.5 -163t-83 -138t-135 -102t-184.5 -55 q53 -26 82.5 -67.5t29.5 -90.5q0 -41 -15 -75.5t-41.5 -60t-64.5 -39.5t-85 -14q-53 0 -101 14t-80 38l31 75q5 13 20 13q5 0 11 -3.5t16 -7t24.5 -7.5t36.5 -4q50 0 78 32t28 79q0 36 -15.5 66t-54.5 45h-8q-158 0 -287 52t-219 140z" />
<glyph unicode="&#x499;" horiz-adv-x="920" d="M50 148l58 74q13 18 37 19q19 0 40.5 -16t51.5 -34.5t72.5 -34.5t106.5 -16q54 0 96.5 13.5t71.5 37t44.5 55.5t15.5 69q0 74 -60.5 118t-186.5 44h-117v133h117q111 0 172.5 41.5t61.5 107.5q0 29 -13.5 55t-40.5 46t-67.5 31t-93.5 11q-59 0 -100.5 -11.5t-70 -26 t-47.5 -26.5t-32 -12q-14 0 -24 6t-21 23l-46 77q58 55 143 90t204 35q95 0 168 -23t122.5 -61.5t74.5 -87.5t25 -103q0 -31 -9.5 -64t-31 -63.5t-57 -57t-87.5 -43.5q96 -30 152.5 -94.5t56.5 -160.5q0 -59 -22.5 -109t-62 -88.5t-93 -65t-114.5 -38.5q57 -26 89 -68.5 t32 -94.5q0 -41 -15 -75.5t-41.5 -60t-64.5 -39.5t-85 -14q-53 0 -101.5 14t-79.5 38l30 75q6 13 21 13q5 0 11 -3.5t16 -7t24 -7.5t37 -4q50 0 77.5 32t27.5 79q0 36 -15 66.5t-55 45.5q-6 -1 -12 -1h-11q-49 0 -101 9t-102 28.5t-95 50t-81 74.5z" />
<glyph unicode="&#x49a;" horiz-adv-x="1473" d="M181 0v1470h218v-635h149q45 0 77 13.5t62 55.5l370 506q16 27 39 43.5t56 16.5h184l-433 -600q-26 -37 -58.5 -61t-71.5 -38q55 -14 93.5 -47.5t74.5 -91.5l316 -461h209v-463q0 -29 -19.5 -46t-49.5 -17h-130v355h-88q-33 0 -55 17.5t-42 50.5l-369 526q-13 20 -27 34 t-30.5 22.5t-36.5 12.5t-47 4h-173v-667h-218z" />
<glyph unicode="&#x49b;" horiz-adv-x="1177" d="M140 -1v1041h200v-444h94q43 0 73.5 17.5t51.5 51.5l210 321q15 24 41 39t54 15h157l-263 -393q-25 -39 -51.5 -63.5t-65.5 -37.5q49 -14 83 -42.5t60 -73.5l171 -278h204v-446q0 -29 -16 -45t-42 -16h-123v355h-67q-54 0 -83 18t-50 52l-190 314q-24 39 -59 58.5 t-82 19.5h-107v-463h-200z" />
<glyph unicode="&#x49c;" horiz-adv-x="1461" d="M181 0v1470h218v-635h136v311h154v-309q33 4 57.5 18t47.5 49l328 506q14 28 38.5 44t57.5 16h178l-399 -600q-46 -72 -123 -98q57 -14 96 -47t71 -93l393 -632h-196q-63 0 -96 68l-329 526q-23 39 -50.5 55t-73.5 18v-272h-154v272h-136v-667h-218z" />
<glyph unicode="&#x49d;" horiz-adv-x="1154" d="M140 -1v1041h200v-444h103v241h137v-236q56 13 82 64l173 321q10 27 38.5 40.5t57.5 13.5h155l-226 -393q-20 -40 -47 -64t-64 -37q49 -14 81.5 -42t56.5 -74l228 -430h-137q-53 0 -87.5 15.5t-45.5 54.5l-155 314q-15 34 -45 52.5t-65 23.5v-265h-137v267h-103v-463 h-200z" />
<glyph unicode="&#x49e;" horiz-adv-x="1491" d="M39 1090v164h248v216h218v-216h285v-164h-285v-255h148q45 0 77.5 13.5t62.5 55.5l369 506q16 27 39.5 43.5t55.5 16.5h185l-433 -600q-26 -37 -58.5 -61t-71.5 -38q55 -14 93.5 -47.5t74.5 -91.5l433 -632h-196q-33 0 -55 17.5t-41 50.5l-370 526q-13 20 -27 34 t-30.5 22.5t-36 12.5t-46.5 4h-173v-667h-218v1090h-248z" />
<glyph unicode="&#x49f;" horiz-adv-x="1162" d="M45 787v145h184v108h200v-108h192v-145h-192v-191h94q43 0 73.5 17.5t51.5 51.5l210 321q15 24 41 39t54 15h157l-263 -393q-24 -39 -51 -63t-65 -37q49 -14 82.5 -43t59.5 -74l266 -430h-139q-53 0 -82.5 18t-50.5 52l-189 314q-24 39 -59 58.5t-81 19.5h-109v-463h-200 v788h-184z" />
<glyph unicode="&#x4a0;" horiz-adv-x="1654" d="M30 1293v177h638v-635h148q23 0 42 3t35.5 10.5t32 21.5t30.5 34l369 506q16 27 40 43.5t55 16.5h185l-434 -600q-49 -72 -130 -98q55 -15 94.5 -48.5t73.5 -91.5l433 -632h-195q-33 0 -55 17.5t-41 50.5l-370 526q-13 20 -26.5 34t-30 22.5t-37 12.5t-46.5 4h-173v-667 h-217v1293h-421z" />
<glyph unicode="&#x4a1;" horiz-adv-x="1290" d="M29 887v153h528v-444h94q43 0 73.5 17.5t51.5 51.5l210 321q15 24 41 39t54 15h157l-263 -393q-24 -39 -51 -63t-65 -37q49 -14 82.5 -43t59.5 -74l266 -430h-139q-53 0 -82.5 18t-50.5 52l-189 314q-24 39 -59 58.5t-81 19.5h-109v-463h-200v888h-328z" />
<glyph unicode="&#x4a2;" horiz-adv-x="1660" d="M181 0v1470h219v-649h767v649h218v-1299h222v-463q0 -29 -19.5 -46t-50.5 -17h-129v355h-241v663h-767v-663h-219z" />
<glyph unicode="&#x4a3;" horiz-adv-x="1245" d="M140 0v1040h200v-409h476v409h201v-888h190v-446q0 -29 -16 -45t-42 -16h-123v355h-210v479h-476v-479h-200z" />
<glyph unicode="&#x4a4;" horiz-adv-x="2088" d="M181 0v1470h219v-649h767v649h891v-171h-673v-1299h-218v663h-767v-663h-219z" />
<glyph unicode="&#x4a5;" horiz-adv-x="1526" d="M140 0v1040h200v-409h476v409h682v-151h-481v-889h-201v479h-476v-479h-200z" />
<glyph unicode="&#x4a6;" horiz-adv-x="2220" d="M181 0v1470h1148v-669q65 34 136 52t155 18q111 0 208.5 -30.5t171.5 -100t117 -183t43 -277.5q0 -154 -40 -275t-113 -205t-173.5 -128.5t-221.5 -44.5q-101 0 -210 29q2 33 5.5 65t5.5 65q2 17 14 29t35 12q18 0 48 -8t80 -8q81 0 148 27t115.5 83.5t75 143.5t26.5 206 q0 126 -27.5 210.5t-77.5 136t-119 73.5t-152 22q-45 0 -82 -6.5t-67 -16.5t-54.5 -23.5t-46.5 -26.5v-640h-218v1299h-711v-1299h-219z" />
<glyph unicode="&#x4a7;" horiz-adv-x="1674" d="M140 0v1040h877v-510q48 36 104.5 56t125.5 20q89 0 159 -31.5t117.5 -91t72.5 -145t25 -193.5q0 -120 -31 -215.5t-86 -162.5t-130 -103.5t-161 -36.5q-39 0 -77 4.5t-79 16.5q2 31 5 50t6 50q2 17 13 27.5t31 10.5q12 0 31 -5t49 -5q49 0 91 19.5t72.5 62.5t47.5 112 t17 167q0 91 -17 152t-47.5 98t-74.5 52.5t-97 15.5q-30 0 -54.5 -5t-44.5 -13t-36.5 -18t-31.5 -21v-398h-201v889h-476v-889h-200z" />
<glyph unicode="&#x4a8;" horiz-adv-x="1699" d="M92 735q0 166 51 304.5t146.5 237.5t234.5 154t314 55q31 0 59 -2t55.5 -6.5t56 -11t61.5 -15.5l-11 -83q-5 -34 -23 -60t-44 -26q-14 0 -30.5 2.5t-37 5.5t-48 5.5t-64.5 2.5q-110 0 -201 -38t-157 -110.5t-102.5 -177.5t-36.5 -237q0 -134 36.5 -238.5t101.5 -177 t156 -110.5t201 -38q39 0 75.5 4t68.5 12q-38 42 -69.5 94.5t-54 116t-35.5 138.5t-13 163q0 228 92.5 347.5t261.5 119.5q92 0 159.5 -36t111.5 -100t65.5 -150t21.5 -185q0 -163 -56 -294t-153 -224q40 -11 77 -15.5t65 -4.5q61 0 100.5 7.5t65.5 7.5t45.5 -18t23.5 -52 l12 -83q-58 -17 -123.5 -25t-132.5 -8q-69 0 -146 17t-153 57q-75 -38 -158.5 -57t-175.5 -19q-154 0 -281 55t-218.5 154.5t-142.5 237.5t-51 304zM975 694q0 -81 11 -146.5t31 -117.5t47.5 -92t58.5 -70q88 69 133.5 177t45.5 244q0 58 -9 114.5t-29 100t-51 70.5t-76 27 q-35 0 -65 -17.5t-51.5 -55.5t-33.5 -96t-12 -138z" />
<glyph unicode="&#x4a9;" horiz-adv-x="1265" d="M81 521q0 116 32 214.5t95 169.5t155 111.5t211 40.5q36 0 71.5 -5t71.5 -17l-11 -84q-5 -33 -20.5 -43t-41.5 -10q-12 1 -27.5 2.5t-29.5 1.5q-74 0 -130.5 -26.5t-94 -75.5t-57 -120t-19.5 -159q0 -91 23 -163t65.5 -122.5t104 -77t137.5 -26.5q17 0 34 1.5t33 3.5 q-72 71 -112 166.5t-40 213.5q0 80 22 142.5t62 105.5t96.5 65t126.5 22t127.5 -24.5t99 -69t64.5 -105.5t23 -134q-1 -108 -48.5 -204.5t-128.5 -170.5q44 -12 96 -12q26 0 42 3t33 5q33 0 47.5 -12.5t19.5 -45.5l11 -78q-30 -9 -68 -14t-80 -5q-71 0 -135 14.5t-123 42.5 q-58 -27 -121 -41.5t-131 -14.5q-101 0 -189 35.5t-154 104.5t-104 168.5t-38 226.5zM720 514q0 -94 33 -171t93 -129q58 52 88.5 127t30.5 165q0 87 -32.5 136.5t-92.5 49.5q-58 0 -89 -47.5t-31 -130.5z" />
<glyph unicode="&#x4aa;" horiz-adv-x="1364" d="M92 735q0 166 53 304.5t148 237.5t227.5 154.5t293.5 55.5q157 0 278.5 -51.5t212.5 -136.5l-72 -101q-7 -11 -18 -18.5t-28 -7.5q-19 0 -45.5 19.5t-69 44t-105 43.5t-155.5 19q-110 0 -201 -38t-157 -110.5t-102.5 -177.5t-36.5 -237q0 -134 38 -238.5t104.5 -177 t157 -110.5t194.5 -38q63 0 114 7.5t93.5 23t80.5 39.5t74 58q8 7 17.5 11.5t19.5 4.5q18 0 32 -14l86 -94q-80 -95 -191.5 -152t-264.5 -68q47 -27 73 -66.5t26 -85.5q0 -41 -15 -75.5t-41.5 -60t-64.5 -39.5t-85 -14q-53 0 -101.5 14t-79.5 38l30 75q5 13 21 13 q5 0 11 -3.5t16 -7t24 -7.5t37 -4q50 0 77.5 32t27.5 79q0 35 -14 64.5t-51 45.5q-153 6 -276.5 63t-210.5 156t-134.5 234t-47.5 297z" />
<glyph unicode="&#x4ab;" horiz-adv-x="979" d="M81 521q0 116 32 214.5t95 169.5t155.5 111.5t210.5 40.5q112 0 197 -36t152 -101l-54 -74q-9 -11 -17.5 -18t-25.5 -7q-16 0 -34 13t-45 28t-65.5 27.5t-94.5 12.5q-74 0 -130.5 -26.5t-93.5 -75.5t-56.5 -120t-19.5 -159q0 -91 20.5 -162t58 -120t92 -74t121.5 -25 q65 0 106.5 16t69 34.5t46 34.5t38.5 16q25 0 38 -19l57 -74q-54 -67 -126.5 -103t-154.5 -50q55 -26 85 -68t30 -92q0 -41 -15 -75.5t-41.5 -60t-64.5 -39.5t-85 -14q-53 0 -101 14t-80 38l31 75q5 13 20 13q5 0 11.5 -3.5t16 -7t24 -7.5t36.5 -4q50 0 78 32t28 79 q0 36 -15.5 66t-54.5 45h-13q-97 0 -182 35.5t-146.5 104.5t-97.5 168.5t-36 226.5z" />
<glyph unicode="&#x4ac;" horiz-adv-x="1222" d="M31 1288v182h1153v-182h-467v-1117h221v-463q0 -29 -19.5 -46t-50.5 -17h-130v355h-238v1288h-469z" />
<glyph unicode="&#x4ad;" horiz-adv-x="1047" d="M27 889v151h985v-151h-392v-737h190v-446q0 -29 -16 -45t-41 -16h-124v355h-210v889h-392z" />
<glyph unicode="&#x4ae;" horiz-adv-x="1285" d="M-4 1470h191q29 0 46 -13.5t28 -36.5l320 -550q20 -38 36 -71.5t28 -66.5q11 33 26 67t35 71l318 550q9 18 27 34t46 16h192l-537 -887v-583h-218v583z" />
<glyph unicode="&#x4af;" horiz-adv-x="1056" d="M16 1040h165q24 0 38.5 -11.5t22.5 -28.5l247 -596q27 -72 41 -146q8 36 18.5 73t24.5 73l252 596q7 17 22.5 28.5t36.5 11.5h156l-411 -972v-417h-201v417z" />
<glyph unicode="&#x4b0;" horiz-adv-x="1325" d="M15 1470h192q29 0 45 -14t30 -36l319 -512q20 -35 36 -63.5t28 -56.5q11 28 25.5 56.5t34.5 63.5l318 512q11 18 29 34t45 16h193l-539 -829v-82h318v-165h-318v-394h-217v394h-317v165h317v82z" />
<glyph unicode="&#x4b1;" horiz-adv-x="1064" d="M20 1040h165q24 0 39 -11.5t22 -28.5l248 -596q27 -72 41 -146q8 36 18 73t25 73l251 596q7 17 22.5 28.5t36.5 11.5h156l-411 -972v-80h227v-145h-227v-192h-201v192h-227v145h227v80z" />
<glyph unicode="&#x4b2;" horiz-adv-x="1406" d="M14 0l503 757l-481 713h216q24 0 35 -7t19 -21l372 -577q8 27 22 49l349 524q9 16 20 24t29 8h208l-485 -704l388 -595h179v-463q0 -29 -19.5 -46t-50.5 -17h-129v355h-84q-24 0 -38 13t-23 27l-379 605q-8 -26 -20 -44l-370 -561q-10 -14 -23 -27t-34 -13h-204z" />
<glyph unicode="&#x4b3;" horiz-adv-x="1126" d="M18 0l363 536l-348 504h192q24 0 34.5 -7t19.5 -21l246 -380q5 15 11.5 30t16.5 31l212 315q18 33 49 32h183l-348 -495l264 -398v5h191v-446q0 -29 -16 -45t-42 -16h-123v355h-104q-24 0 -37.5 13t-21.5 27l-251 396q-5 -15 -10 -29.5t-14 -26.5l-230 -340 q-10 -14 -23.5 -27t-34.5 -13h-179z" />
<glyph unicode="&#x4b4;" horiz-adv-x="1872" d="M30 1293v177h1060v-177h-421v-1122h710v1299h219v-1299h222v-463q0 -29 -19.5 -46t-50.5 -17h-130v355h-1169v1293h-421z" />
<glyph unicode="&#x4b5;" horiz-adv-x="1463" d="M29 887v153h801v-153h-273v-735h476v888h201v-888h190v-446q0 -29 -15.5 -45t-42.5 -16h-123v355h-886v887h-328z" />
<glyph unicode="&#x4b6;" horiz-adv-x="1455" d="M90 989v481h219v-482q0 -97 38 -157.5t118 -85.5t203.5 -15.5t293.5 52.5v688h218v-1299h221v-463q0 -29 -19.5 -46t-50.5 -17h-129v355h-240v625q-118 -31 -228.5 -48.5t-207.5 -15.5t-177.5 26t-137.5 75t-89 131t-32 196z" />
<glyph unicode="&#x4b7;" horiz-adv-x="1149" d="M80 696v344h201v-313q0 -72 27.5 -114.5t82.5 -59t137.5 -10t192.5 30.5v466h200v-888h190v-446q0 -29 -16 -45t-41 -16h-124v355h-209v433q-134 -35 -251 -42.5t-204 20.5t-136.5 97.5t-49.5 187.5z" />
<glyph unicode="&#x4b8;" horiz-adv-x="1361" d="M90 989v481h219v-482q0 -127 64 -191t201 -70v326h155v-318q104 14 233 47v688h218v-1470h-218v625q-119 -32 -233 -50v-273h-155v260q-106 -3 -195 17t-153 70.5t-100 133.5t-36 206z" />
<glyph unicode="&#x4b9;" horiz-adv-x="1059" d="M79 696v344h201v-313q0 -87 39 -130t118 -52v292h135v-289q33 4 70 10.5t77 15.5v466h201v-1040h-201v432q-38 -9 -74.5 -16.5t-72.5 -13.5v-207h-135v194q-80 -2 -146 14t-113 53t-73 96t-26 144z" />
<glyph unicode="&#x4ba;" horiz-adv-x="1308" d="M181 0v1470h219v-623q117 31 224 47.5t198.5 14.5t166 -26t126.5 -74.5t81 -131t29 -196.5v-481h-218v482q0 97 -32 157.5t-103 86t-187 15.5t-285 -53v-688h-219z" />
<glyph unicode="&#x4bb;" horiz-adv-x="1052" d="M140 0v1040h200v-433q133 35 250.5 42.5t204 -20.5t136.5 -97t50 -188v-344h-201v313q0 72 -28 114t-83.5 59t-137.5 10.5t-191 -30.5v-466h-200z" />
<glyph unicode="&#x4bc;" horiz-adv-x="1746" d="M26 982q0 42 8.5 81t28.5 85l114 -22q26 -5 35.5 -20t9.5 -27q0 -14 -7.5 -37.5t-7.5 -55.5q0 -60 40 -83.5t107 -23.5h11q16 132 69.5 244t141 194t206 128.5t264.5 46.5q133 0 246 -44t195 -127.5t128.5 -206t46.5 -278.5q0 -65 -14.5 -87.5t-52.5 -22.5h-1012 q5 -136 41 -239t101 -171.5t155.5 -103t203.5 -34.5q97 0 167.5 22.5t121 49t86 49.5t64.5 23q17 0 30.5 -7.5t21.5 -18.5l65 -82q-56 -63 -123 -107t-142 -71t-154 -39t-160 -12q-147 0 -273 48t-220 142t-148.5 232.5t-61.5 318.5h-8q-63 0 -122 11.5t-104 40.5t-71.5 78 t-26.5 126zM589 879h863q0 96 -28.5 175.5t-82 135.5t-128.5 87.5t-169 31.5q-99 0 -178 -31t-136 -86.5t-93 -135t-48 -177.5z" />
<glyph unicode="&#x4bd;" horiz-adv-x="1340" d="M50 738q0 43 9 82t28 85l75 -15q25 -7 33 -20.5t8 -25.5q0 -13 -8 -37t-8 -56q0 -59 39 -86t118 -29q13 91 52 168.5t101 133t145 87.5t184 32q95 0 175.5 -31.5t139 -90.5t92 -146.5t33.5 -198.5q0 -46 -10.5 -62t-37.5 -16h-682q3 -93 26.5 -162t65 -115.5t98.5 -69 t128 -22.5q67 0 115.5 15.5t84 33.5t60 33.5t42.5 15.5q24 0 37 -19l57 -74q-36 -43 -84 -74t-102.5 -50.5t-112.5 -28.5t-114 -9q-104 0 -194 34t-156.5 100.5t-106 165t-43.5 226.5q-58 1 -110.5 9.5t-92 33t-62 68.5t-22.5 115zM541 636h544q0 59 -16.5 109.5t-49.5 87 t-80 57t-109 20.5q-126 0 -198 -72.5t-91 -201.5z" />
<glyph unicode="&#x4be;" horiz-adv-x="1746" d="M26 982q0 42 8.5 81t28.5 85l114 -22q26 -5 35.5 -20t9.5 -27q0 -14 -7.5 -37.5t-7.5 -55.5q0 -60 40 -83.5t107 -23.5h11q16 132 69.5 244t141 194t206 128.5t264.5 46.5q133 0 246 -44t195 -127.5t128.5 -206t46.5 -278.5q0 -65 -14.5 -87.5t-52.5 -22.5h-1012 q5 -136 41 -239t101 -171.5t155.5 -103t203.5 -34.5q97 0 167.5 22.5t121 49t86 49.5t64.5 23q17 0 30.5 -7.5t21.5 -18.5l65 -82q-94 -105 -215.5 -157.5t-256.5 -66.5v-339h-200v339q-130 14 -239 69t-190 148t-128 223t-53 296h-8q-63 0 -122 11.5t-104 40.5t-71.5 78 t-26.5 126zM589 879h863q0 96 -28.5 175.5t-82 135.5t-128.5 87.5t-169 31.5q-99 0 -178 -31t-136 -86.5t-93 -135t-48 -177.5z" />
<glyph unicode="&#x4bf;" horiz-adv-x="1340" d="M50 738q0 43 9 82t28 85l75 -15q25 -7 33 -20.5t8 -25.5q0 -13 -8 -37t-8 -56q0 -59 39 -86t118 -29q13 91 52 168.5t101 133t145 87.5t184 32q95 0 175.5 -31.5t139 -90.5t92 -146.5t33.5 -198.5q0 -46 -10.5 -62t-37.5 -16h-682q3 -93 26.5 -162t65 -115.5t98.5 -69 t128 -22.5q67 0 115.5 15.5t84 33.5t60 33.5t42.5 15.5q24 0 37 -19l57 -74q-30 -35 -66.5 -62t-78.5 -45.5t-88 -31t-92 -18.5v-285q0 -29 -16.5 -45t-42.5 -16h-124v348q-87 14 -159.5 54.5t-126 106t-84.5 155t-35 203.5q-58 1 -110.5 9.5t-92 33t-62 68.5t-22.5 115z M541 636h544q0 59 -16.5 109.5t-49.5 87t-80 57t-109 20.5q-126 0 -198 -72.5t-91 -201.5z" />
<glyph unicode="&#x4c0;" horiz-adv-x="581" d="M181 0v1470h219v-1470h-219z" />
<glyph unicode="&#x4c1;" horiz-adv-x="2142" d="M14 0l423 633q33 56 72.5 89.5t91.5 49.5q-44 15 -74.5 44t-60.5 72l-416 582h170q34 0 63 -16.5t47 -46.5l351 -499q32 -45 66 -59t79 -14h142v635h206v-635h142q45 0 79.5 14t65.5 59l351 499q17 30 46.5 46.5t62.5 16.5h171l-416 -582q-30 -43 -60.5 -72t-74.5 -44 q51 -17 91 -50t73 -89l423 -633h-145q-48 0 -82 21t-55 57l-354 508q-29 43 -63.5 62t-88.5 19h-166v-667h-206v667h-166q-53 0 -88.5 -19t-63.5 -62l-354 -508q-20 -36 -54.5 -57t-81.5 -21h-146zM765 1779q0 23 11.5 41t31.5 18h118q0 -48 8 -80.5t24.5 -52t45 -28.5 t69.5 -9t69 9t45 28.5t24.5 52t7.5 80.5h118q20 0 31.5 -18.5t11.5 -40.5q0 -51 -21 -90.5t-61 -67t-97 -41.5t-128 -14q-72 0 -129 14t-97 41.5t-61 66.5t-21 91z" />
<glyph unicode="&#x4c2;" horiz-adv-x="1628" d="M24 0l265 430q27 45 60 73.5t82 43.5q-38 13 -65 37t-51 63l-264 393h158q29 0 52.5 -14.5t36.5 -39.5l210 -321q20 -34 51 -51.5t74 -17.5h84v445h194v-445h82q85 0 127 69l210 321q14 25 38 39.5t52 14.5h157l-264 -393q-25 -39 -51.5 -63.5t-64.5 -37.5 q49 -14 82.5 -42.5t59.5 -73.5l267 -430h-139q-54 0 -82 17t-45 53l-190 314q-24 39 -59 58.5t-81 19.5h-99v-463h-194v463h-99q-46 0 -81 -19.5t-59 -58.5l-189 -314q-17 -36 -45.5 -53t-81.5 -17h-138zM506 1411q0 23 11.5 41t31.5 18h118q0 -48 8 -81t24.5 -53.5t45 -30 t69.5 -9.5t69 9.5t45 30t24.5 53.5t7.5 81h118q20 0 31.5 -18t11.5 -41q0 -51 -21 -92t-61 -70t-97 -45t-128 -16q-72 0 -129 16t-97 45t-61 70t-21 92z" />
<glyph unicode="&#x4c3;" horiz-adv-x="1445" d="M181 0v1470h218v-635h149q45 0 77 13.5t62 55.5l370 506q16 27 39 43.5t56 16.5h184l-433 -600q-28 -41 -62 -64q65 -6 128 -20.5t120 -41.5t105 -69t83.5 -101t55.5 -138.5t20 -180.5q0 -145 -39 -260.5t-110 -195.5t-172.5 -123t-226.5 -43q-100 0 -211 28l12 130 q2 18 14 29.5t35 11.5q18 0 48 -8t79 -8q81 0 148.5 25.5t116 77.5t75 133t26.5 192q0 134 -39.5 217t-103.5 128.5t-145 61.5t-164 16h-297v-667h-218z" />
<glyph unicode="&#x4c4;" horiz-adv-x="1110" d="M140 -1v1041h200v-444h94q43 0 73.5 17.5t51.5 51.5l210 321q15 24 41 39t54 15h157l-263 -393q-17 -28 -36 -48t-42 -35q166 -8 256.5 -114t90.5 -312q0 -116 -31 -210t-86 -160.5t-129.5 -103.5t-160.5 -37q-39 0 -77.5 4.5t-80.5 16.5q3 31 6 50t5 50q2 17 13 27.5 t31 10.5q13 0 32 -5t49 -5q49 0 91 21.5t73 67t47.5 115t16.5 164.5q0 91 -16.5 152t-48 98t-75 52.5t-96.5 15.5h-250v-463h-200z" />
<glyph unicode="&#x4c5;" horiz-adv-x="1573" d="M-6 29v138h73q39 0 78 15t75.5 61.5t70 134t60 232.5t45.5 356t29 504h889v-1299h230l-156 -526h-212l116 355h-197v1299h-464q-14 -282 -39.5 -488.5t-60 -352.5t-78.5 -238t-97 -144t-113.5 -71t-127.5 -19q-121 0 -121 43z" />
<glyph unicode="&#x4c6;" horiz-adv-x="1296" d="M0 16v126h55q35 0 70.5 12t69.5 46t65 95.5t56.5 161.5t44 243.5t28.5 339.5h676v-888h208l-153 -507h-187l117 355h-185v884h-310q-12 -197 -36.5 -340t-59.5 -242.5t-77.5 -161.5t-90 -96.5t-98 -46t-100.5 -11.5q-93 0 -93 30z" />
<glyph unicode="&#x4c7;" horiz-adv-x="1567" d="M181 0v1470h219v-649h767v649h218v-1352q0 -117 -30 -208t-89.5 -154t-146.5 -96t-200 -33q-102 0 -211 29l12 130q2 17 13.5 29t35.5 12q17 0 47.5 -8t79.5 -8q66 0 116 15.5t85 51.5t52.5 94t17.5 141v550h-767v-663h-219z" />
<glyph unicode="&#x4c8;" horiz-adv-x="1156" d="M140 0v1040h200v-409h476v409h201v-1004q0 -111 -25.5 -188.5t-76 -127t-123 -72t-166.5 -22.5q-43 0 -78.5 5t-77.5 17q1 15 2.5 27t3 22.5t3 22.5t2.5 27q2 17 13 27.5t31 10.5q13 0 31 -4.5t58 -4.5q44 0 81 10.5t64 40t42 80.5t15 131v441h-476v-479h-200z" />
<glyph unicode="&#x4c9;" horiz-adv-x="1646" d="M181 0v1470h219v-649h767v649h218v-1299h232l-157 -526h-212l117 355h-198v663h-767v-663h-219z" />
<glyph unicode="&#x4ca;" horiz-adv-x="1247" d="M140 0v1040h200v-409h476v409h201v-888h207l-152 -507h-188l117 355h-185v479h-476v-479h-200z" />
<glyph unicode="&#x4cb;" horiz-adv-x="1361" d="M90 989v481h219v-482q0 -97 38 -157.5t118 -85.5t203.5 -15.5t293.5 52.5v688h218v-1470h-240v-285q0 -30 -19.5 -47t-50.5 -17h-130v520h222v454q-118 -31 -228.5 -48.5t-207.5 -15.5t-177.5 26t-137.5 75t-89 131t-32 196z" />
<glyph unicode="&#x4cc;" horiz-adv-x="1058" d="M79 696v344h201v-313q0 -72 27.5 -114.5t82.5 -59t137 -10t192 30.5v466h201v-1040h-210v-294q0 -29 -16 -45t-42 -16h-124v507h191v280q-134 -34 -251 -41.5t-203.5 20.5t-136 97.5t-49.5 187.5z" />
<glyph unicode="&#x4cd;" horiz-adv-x="1988" d="M181 0v1470h162q29 0 44.5 -5.5t30.5 -30.5l491 -881q14 -27 26.5 -56.5t23.5 -59.5q22 60 51 117l482 880q13 26 29 31t45 5h161v-1299h232l-157 -526h-212l117 355h-170v1047q0 24 1.5 50t3.5 54l-489 -898q-26 -50 -79 -50h-31q-53 0 -78 50l-498 901q6 -57 6 -107 v-1047h-192z" />
<glyph unicode="&#x4ce;" horiz-adv-x="1541" d="M140 0v1043h162q20 0 41 -9t35 -36l304 -514q13 -25 24.5 -52.5t21.5 -54.5q10 28 21 55.5t24 51.5l300 514q14 28 34.5 36.5t41.5 8.5h162v-891h207l-153 -507h-187l117 355h-165v662q0 31 4 69.5t11 71.5l-348 -617q-9 -17 -23.5 -26.5t-34.5 -9.5h-22q-18 0 -33 9.5 t-25 26.5l-353 619q6 -33 10.5 -72.5t4.5 -70.5v-662h-181z" />
<glyph unicode="&#x4cf;" horiz-adv-x="581" d="M181 0v1470h219v-1470h-219z" />
<glyph unicode="&#x4d0;" horiz-adv-x="1390" d="M0 0l586 1470h220l586 -1470h-168q-29 0 -47.5 14.5t-26.5 36.5l-130 341h-648l-130 -341q-7 -19 -26.5 -35t-47.5 -16h-168zM387 1779q0 23 11.5 41t31.5 18h118q0 -48 8 -80.5t24.5 -52t45 -28.5t69.5 -9t69 9t45 28.5t24.5 52t7.5 80.5h118q20 0 31.5 -18.5 t11.5 -40.5q0 -51 -21 -90.5t-61 -67t-97 -41.5t-128 -14q-72 0 -129 14t-97 41.5t-61 66.5t-21 91zM432 548h529l-219 570q-24 58 -47 148q-11 -44 -22.5 -82t-23.5 -68z" />
<glyph unicode="&#x4d1;" horiz-adv-x="1022" d="M62 261q0 61 33.5 118t109 102t196.5 74t298 33v76q0 118 -50 176t-147 58q-66 0 -110.5 -16.5t-76.5 -36.5t-56.5 -36t-49.5 -16q-20 0 -35 11t-24 26l-36 65q87 83 188.5 124t223.5 41q89 0 158 -29.5t116 -81.5t71 -124.5t24 -160.5v-664h-89q-30 0 -45.5 9.5 t-24.5 36.5l-21 91q-40 -37 -79 -65t-81.5 -48t-90.5 -30t-107 -10q-61 0 -115 16.5t-93.5 51.5t-63 87t-23.5 122zM196 1411q0 23 11.5 41t31.5 18h118q0 -48 8 -81t24.5 -53.5t45 -30t69.5 -9.5t69 9.5t45 30t24.5 53.5t7.5 81h118q20 0 31.5 -18t11.5 -41q0 -51 -21 -92 t-61 -70t-97 -45t-128 -16q-72 0 -129 16t-97 45t-61 70t-21 92zM254 271q0 -39 13 -67t35 -46t51.5 -26t64.5 -8q46 0 84.5 9t72 26t64.5 41.5t60 56.5v205q-122 -4 -206.5 -19t-138 -39.5t-77 -58t-23.5 -74.5z" />
<glyph unicode="&#x4d2;" horiz-adv-x="1390" d="M0 0l586 1470h220l586 -1470h-168q-29 0 -47.5 14.5t-26.5 36.5l-130 341h-648l-130 -341q-7 -19 -26.5 -35t-47.5 -16h-168zM359 1706q0 25 9.5 47t25.5 38t37 26t44 10q25 0 47 -10t38.5 -26t26 -38t9.5 -47t-9.5 -46t-26 -36.5t-38.5 -25t-47 -9.5q-24 0 -44.5 9.5 t-36.5 25t-25.5 36.5t-9.5 46zM432 548h529l-219 570q-24 58 -47 148q-11 -44 -22.5 -82t-23.5 -68zM793 1706q0 25 9 47t25.5 38t38 26t46.5 10q24 0 45 -10t37.5 -26t26 -38t9.5 -47t-9.5 -46t-26 -36.5t-38 -25t-44.5 -9.5q-25 0 -46.5 9.5t-38 25t-25.5 36.5t-9 46z" />
<glyph unicode="&#x4d3;" horiz-adv-x="1022" d="M62 261q0 61 33.5 118t109 102t196.5 74t298 33v76q0 118 -50 176t-147 58q-66 0 -110.5 -16.5t-76.5 -36.5t-56.5 -36t-49.5 -16q-20 0 -35 11t-24 26l-36 65q87 83 188.5 124t223.5 41q89 0 158 -29.5t116 -81.5t71 -124.5t24 -160.5v-664h-89q-30 0 -45.5 9.5 t-24.5 36.5l-21 91q-40 -37 -79 -65t-81.5 -48t-90.5 -30t-107 -10q-61 0 -115 16.5t-93.5 51.5t-63 87t-23.5 122zM184 1321q0 26 10 48.5t26 39t37.5 26.5t46.5 10t47.5 -10t39 -26.5t27 -39t10.5 -48.5q0 -25 -10.5 -47t-27 -38t-39.5 -25.5t-47 -9.5q-25 0 -46.5 9.5 t-37.5 25.5t-26 38t-10 47zM254 271q0 -39 13 -67t35 -46t51.5 -26t64.5 -8q46 0 84.5 9t72 26t64.5 41.5t60 56.5v205q-122 -4 -206.5 -19t-138 -39.5t-77 -58t-23.5 -74.5zM579 1321q0 26 10 48.5t26.5 39t39 26.5t46.5 10q25 0 47.5 -10t39 -26.5t26 -39t9.5 -48.5 q0 -25 -9.5 -47t-26 -38t-39 -25.5t-47.5 -9.5t-47 9.5t-38.5 25.5t-26.5 38t-10 47z" />
<glyph unicode="&#x4d4;" horiz-adv-x="1904" d="M-12 0l769 1470h1059v-177h-752l57 -466h559v-171h-537l59 -479h615l-1 -177h-797l-48 392h-561l-174 -342q-11 -23 -32.5 -36.5t-50.5 -13.5h-165zM489 548h462l-94 760q-14 -45 -29.5 -84t-30.5 -74z" />
<glyph unicode="&#x4d5;" horiz-adv-x="1650" d="M66 275q0 61 32.5 120.5t108 107t196.5 78.5t298 35v48q0 118 -50 179t-147 61q-66 0 -110.5 -17.5t-76.5 -38.5t-56 -38t-50 -17q-20 0 -35 11t-24 26l-36 65q87 82 181 123.5t211 41.5q122 0 196.5 -51t110.5 -140q55 87 144.5 137.5t210.5 50.5q85 0 159 -33.5 t128 -96.5t85 -153t31 -205q0 -46 -9.5 -61.5t-36.5 -15.5h-637q5 -88 28 -154t61.5 -109t90.5 -64.5t116 -21.5q71 0 117 14.5t76.5 32t50 32t36.5 14.5q15 0 25 -5.5t16 -13.5l54 -69q-36 -43 -81.5 -74t-97.5 -50.5t-106.5 -28.5t-108.5 -9q-118 0 -215 55.5t-155 171.5 q-29 -61 -73.5 -104.5t-99 -71.5t-115 -40.5t-122.5 -12.5q-73 0 -131.5 18t-101 54.5t-65.5 91.5t-23 127zM257 286q0 -85 48.5 -123.5t128.5 -38.5q56 0 105 17.5t84.5 53.5t56.5 91t21 130v74q-122 -5 -206.5 -21.5t-137.5 -44t-76.5 -62.5t-23.5 -76zM892 615h503 q0 62 -15.5 116t-45 94t-73 62.5t-99.5 22.5q-60 0 -106.5 -20.5t-80.5 -58t-55 -92.5t-28 -124z" />
<glyph unicode="&#x4d6;" horiz-adv-x="1181" d="M181 0v1470h912v-177h-693v-466h557v-171h-557v-479h694l-1 -177h-912zM343 1779q0 23 11.5 41t31.5 18h118q0 -48 8 -80.5t24.5 -52t45 -28.5t69.5 -9t69 9t45 28.5t24.5 52t7.5 80.5h118q20 0 31.5 -18.5t11.5 -40.5q0 -51 -21 -90.5t-61 -67t-97 -41.5t-128 -14 q-72 0 -129 14t-97 41.5t-61 66.5t-21 91z" />
<glyph unicode="&#x4d7;" horiz-adv-x="1084" d="M81 542q0 109 33.5 202.5t96.5 163t154.5 109.5t204.5 40q95 0 175.5 -31.5t139 -90.5t92 -146.5t33.5 -198.5q0 -46 -10.5 -62t-37.5 -16h-682q3 -93 26.5 -162t65 -115.5t98.5 -69t128 -22.5q67 0 115.5 15.5t84 33.5t59.5 33.5t42 15.5q25 0 38 -19l57 -74 q-37 -43 -85 -74t-102 -50.5t-112 -28.5t-114 -9q-108 0 -199.5 36t-158.5 106.5t-104.5 174.5t-37.5 239zM267 1411q0 23 11.5 41t31.5 18h118q0 -48 8 -81t24.5 -53.5t45 -30t69.5 -9.5t69 9.5t45 30t24.5 53.5t7.5 81h118q20 0 31.5 -18t11.5 -41q0 -51 -21 -92t-61 -70 t-97 -45t-128 -16q-72 0 -129 16t-97 45t-61 70t-21 92zM285 636h544q0 59 -16.5 109.5t-49.5 87t-80 57t-109 20.5q-126 0 -198 -72.5t-91 -201.5z" />
<glyph unicode="&#x4d8;" horiz-adv-x="1483" d="M85 641q0 32 3 53t10.5 33t20.5 17.5t33 5.5h1013q-5 136 -41.5 239t-101 171.5t-155 103t-203.5 34.5q-66 0 -118 -10.5t-94.5 -26.5t-76.5 -34.5t-60.5 -34t-48.5 -26.5t-41 -11q-17 0 -30.5 7t-21.5 19l-65 82q56 62 123 106t141 71t154 39.5t161 12.5q152 0 281 -51 t222.5 -150.5t146.5 -246t53 -335.5q0 -153 -47.5 -285t-136.5 -229.5t-216.5 -153.5t-288.5 -56q-133 0 -245.5 44t-195 127.5t-129 205.5t-46.5 279zM296 598q0 -96 28.5 -175.5t82 -136t128.5 -87.5t168 -31q99 0 178.5 30.5t136.5 86.5t93 135.5t48 177.5h-863z" />
<glyph unicode="&#x4d9;" horiz-adv-x="1084" d="M76 452q0 47 9.5 62.5t37.5 15.5h682q-3 93 -26.5 163t-65 115.5t-99 68t-128.5 22.5q-67 0 -114.5 -15.5t-83 -33t-60 -33t-43.5 -15.5q-25 0 -38 18l-57 74q37 43 85 74t102.5 50.5t112 29t114.5 9.5q108 0 199.5 -36.5t158.5 -107t104.5 -174.5t37.5 -239 q0 -108 -34 -202t-97 -163t-153.5 -109t-205.5 -40q-95 0 -175.5 31t-139 90.5t-91 146t-32.5 198.5zM255 407q0 -59 17 -109.5t49.5 -87.5t80.5 -57.5t108 -20.5q126 0 198.5 73t91.5 202h-545z" />
<glyph unicode="&#x4da;" horiz-adv-x="1483" d="M85 641q0 32 3 53t10.5 33t20.5 17.5t33 5.5h1013q-5 136 -41.5 239t-101 171.5t-155 103t-203.5 34.5q-66 0 -118 -10.5t-94.5 -26.5t-76.5 -34.5t-60.5 -34t-48.5 -26.5t-41 -11q-17 0 -30.5 7t-21.5 19l-65 82q56 62 123 106t141 71t154 39.5t161 12.5q152 0 281 -51 t222.5 -150.5t146.5 -246t53 -335.5q0 -153 -47.5 -285t-136.5 -229.5t-216.5 -153.5t-288.5 -56q-133 0 -245.5 44t-195 127.5t-129 205.5t-46.5 279zM296 598q0 -96 28.5 -175.5t82 -136t128.5 -87.5t168 -31q99 0 178.5 30.5t136.5 86.5t93 135.5t48 177.5h-863z M358 1706q0 25 9.5 47t25.5 38t37 26t44 10q25 0 47 -10t38.5 -26t26 -38t9.5 -47t-9.5 -46t-26 -36.5t-38.5 -25t-47 -9.5q-24 0 -44.5 9.5t-36.5 25t-25.5 36.5t-9.5 46zM792 1706q0 25 9 47t25.5 38t38 26t46.5 10q24 0 45 -10t37.5 -26t26 -38t9.5 -47t-9.5 -46 t-26 -36.5t-38 -25t-44.5 -9.5q-25 0 -46.5 9.5t-38 25t-25.5 36.5t-9 46z" />
<glyph unicode="&#x4db;" horiz-adv-x="1084" d="M76 452q0 47 9.5 62.5t37.5 15.5h682q-3 93 -26.5 163t-65 115.5t-99 68t-128.5 22.5q-67 0 -114.5 -15.5t-83 -33t-60 -33t-43.5 -15.5q-25 0 -38 18l-57 74q37 43 85 74t102.5 50.5t112 29t114.5 9.5q108 0 199.5 -36.5t158.5 -107t104.5 -174.5t37.5 -239 q0 -108 -34 -202t-97 -163t-153.5 -109t-205.5 -40q-95 0 -175.5 31t-139 90.5t-91 146t-32.5 198.5zM226 1321q0 26 10 48.5t26 39t37.5 26.5t46.5 10t47.5 -10t39 -26.5t27 -39t10.5 -48.5q0 -25 -10.5 -47t-27 -38t-39.5 -25.5t-47 -9.5q-25 0 -46.5 9.5t-37.5 25.5 t-26 38t-10 47zM255 407q0 -59 17 -109.5t49.5 -87.5t80.5 -57.5t108 -20.5q126 0 198.5 73t91.5 202h-545zM621 1321q0 26 10 48.5t26.5 39t39 26.5t46.5 10q25 0 47.5 -10t39 -26.5t26 -39t9.5 -48.5q0 -25 -9.5 -47t-26 -38t-39 -25.5t-47.5 -9.5t-47 9.5t-38.5 25.5 t-26.5 38t-10 47z" />
<glyph unicode="&#x4dc;" horiz-adv-x="2142" d="M14 0l423 633q33 56 72.5 89.5t91.5 49.5q-44 15 -74.5 44t-60.5 72l-416 582h170q34 0 63 -16.5t47 -46.5l351 -499q32 -45 66 -59t79 -14h142v635h206v-635h142q45 0 79.5 14t65.5 59l351 499q17 30 46.5 46.5t62.5 16.5h171l-416 -582q-30 -43 -60.5 -72t-74.5 -44 q51 -17 91 -50t73 -89l423 -633h-145q-48 0 -82 21t-55 57l-354 508q-29 43 -63.5 62t-88.5 19h-166v-667h-206v667h-166q-53 0 -88.5 -19t-63.5 -62l-354 -508q-20 -36 -54.5 -57t-81.5 -21h-146zM737 1706q0 25 9.5 47t25.5 38t37 26t44 10q25 0 47 -10t38.5 -26t26 -38 t9.5 -47t-9.5 -46t-26 -36.5t-38.5 -25t-47 -9.5q-24 0 -44.5 9.5t-36.5 25t-25.5 36.5t-9.5 46zM1171 1706q0 25 9 47t25.5 38t38 26t46.5 10q24 0 45 -10t37.5 -26t26 -38t9.5 -47t-9.5 -46t-26 -36.5t-38 -25t-44.5 -9.5q-25 0 -46.5 9.5t-38 25t-25.5 36.5t-9 46z" />
<glyph unicode="&#x4dd;" horiz-adv-x="1628" d="M24 0l265 430q27 45 60 73.5t82 43.5q-38 13 -65 37t-51 63l-264 393h158q29 0 52.5 -14.5t36.5 -39.5l210 -321q20 -34 51 -51.5t74 -17.5h84v445h194v-445h82q85 0 127 69l210 321q14 25 38 39.5t52 14.5h157l-264 -393q-25 -39 -51.5 -63.5t-64.5 -37.5 q49 -14 82.5 -42.5t59.5 -73.5l267 -430h-139q-54 0 -82 17t-45 53l-190 314q-24 39 -59 58.5t-81 19.5h-99v-463h-194v463h-99q-46 0 -81 -19.5t-59 -58.5l-189 -314q-17 -36 -45.5 -53t-81.5 -17h-138zM494 1321q0 26 10 48.5t26 39t37.5 26.5t46.5 10t47.5 -10t39 -26.5 t27 -39t10.5 -48.5q0 -25 -10.5 -47t-27 -38t-39.5 -25.5t-47 -9.5q-25 0 -46.5 9.5t-37.5 25.5t-26 38t-10 47zM889 1321q0 26 10 48.5t26.5 39t39 26.5t46.5 10q25 0 47.5 -10t39 -26.5t26 -39t9.5 -48.5q0 -25 -9.5 -47t-26 -38t-39 -25.5t-47.5 -9.5t-47 9.5t-38.5 25.5 t-26.5 38t-10 47z" />
<glyph unicode="&#x4de;" horiz-adv-x="1181" d="M39 178l62 105q8 12 21.5 20t29.5 8q23 0 53.5 -22.5t76.5 -49.5t111 -49.5t158 -22.5q157 0 243 71t86 202q0 55 -22 101.5t-63 79t-99.5 50.5t-132.5 17h-203v179h192q63 0 116 15t91 43t59 69.5t21 95.5q0 48 -20 88t-57.5 68t-92.5 44t-124 16q-81 0 -138 -17 t-97 -38t-66 -38t-44 -17q-17 0 -28.5 8t-21.5 26l-54 103q84 74 196 113.5t253 39.5q115 0 207 -28t156.5 -78.5t99 -120t34.5 -152.5q0 -109 -52.5 -192.5t-150.5 -132.5q55 -25 100 -58.5t77.5 -76t50 -92t17.5 -104.5q0 -97 -35.5 -182t-105 -148t-169.5 -99t-229 -36 q-158 0 -287 52t-219 140zM230 1706q0 25 9.5 47t25.5 38t37 26t44 10q25 0 47 -10t38.5 -26t26 -38t9.5 -47t-9.5 -46t-26 -36.5t-38.5 -25t-47 -9.5q-24 0 -44.5 9.5t-36.5 25t-25.5 36.5t-9.5 46zM664 1706q0 25 9 47t25.5 38t38 26t46.5 10q24 0 45 -10t37.5 -26t26 -38 t9.5 -47t-9.5 -46t-26 -36.5t-38 -25t-44.5 -9.5q-25 0 -46.5 9.5t-38 25t-25.5 36.5t-9 46z" />
<glyph unicode="&#x4df;" horiz-adv-x="919" d="M50 148l58 74q13 18 37 19q19 0 40.5 -16t51.5 -34.5t72.5 -34.5t106.5 -16q54 0 96.5 13.5t71.5 37t44.5 55.5t15.5 69q0 74 -60.5 118t-186.5 44h-117v133h117q111 0 172.5 41.5t61.5 107.5q0 29 -13.5 55t-40.5 46t-67.5 31t-93.5 11q-59 0 -100.5 -11.5t-70 -26 t-47.5 -26.5t-32 -12q-14 0 -24 6t-21 23l-46 77q58 55 143 90t204 35q95 0 168 -23t122.5 -61.5t74.5 -87.5t25 -103q0 -31 -9.5 -64t-31 -63.5t-57 -57t-87.5 -43.5q96 -30 152.5 -94.5t56.5 -160.5q0 -73 -33.5 -131t-90 -98.5t-130 -62t-153.5 -21.5q-49 0 -101 9 t-102 28.5t-95 50t-81 74.5zM119 1321q0 26 10 48.5t26 39t37.5 26.5t46.5 10t47.5 -10t39 -26.5t27 -39t10.5 -48.5q0 -25 -10.5 -47t-27 -38t-39.5 -25.5t-47 -9.5q-25 0 -46.5 9.5t-37.5 25.5t-26 38t-10 47zM514 1321q0 26 10 48.5t26.5 39t39 26.5t46.5 10 q25 0 47.5 -10t39 -26.5t26 -39t9.5 -48.5q0 -25 -9.5 -47t-26 -38t-39 -25.5t-47.5 -9.5t-47 9.5t-38.5 25.5t-26.5 38t-10 47z" />
<glyph unicode="&#x4e0;" horiz-adv-x="1204" d="M49 212l84 96q11 12 21 14.5t16 2.5q12 0 22.5 -4.5t29.5 -20.5q16 -18 43.5 -40.5t67 -42.5t90.5 -33.5t116 -13.5q86 0 151.5 25.5t110.5 69.5t68 101.5t23 121.5q0 56 -19.5 104t-62.5 83t-113 55t-172 20h-175v94q0 17 7.5 35.5t24.5 35.5l387 378h-676v177h980v-80 q0 -18 -5.5 -39.5t-28.5 -41.5l-411 -400q130 -5 222.5 -38t151.5 -88.5t86 -128t27 -155.5q0 -119 -46.5 -214.5t-125.5 -162t-183 -102t-219 -35.5q-75 0 -145.5 15t-133.5 44.5t-117 71.5t-96 96z" />
<glyph unicode="&#x4e1;" horiz-adv-x="913" d="M-15 -239l48 77q8 14 20 22t31 8q20 0 41 -13t50 -28.5t70 -28.5t101 -13q70 0 126 19.5t95.5 57t60.5 92t21 124.5q0 59 -16.5 109t-51.5 85t-89.5 54.5t-129.5 19.5h-182v65q0 34 27 55l339 418h-505v156h745v-84q0 -27 -11 -48.5t-28 -39.5l-323 -387q109 -6 188 -37 t131 -82t77.5 -120t25.5 -151q0 -96 -33 -179.5t-97 -145t-157.5 -97t-215.5 -35.5q-62 0 -114.5 9.5t-96 26.5t-80 40.5t-67.5 50.5z" />
<glyph unicode="&#x4e2;" horiz-adv-x="1567" d="M181 0v1470h219v-1011q0 -46 -2.5 -97t-9.5 -107q18 49 38.5 91.5t41.5 75.5l658 980q15 26 40 47t57 21h162v-1470h-218v1012q0 46 2 96.5t11 105.5q-19 -49 -40 -91t-41 -74l-658 -980q-15 -26 -40 -47.5t-57 -21.5h-163zM500 1621v118h581v-118h-581z" />
<glyph unicode="&#x4e3;" horiz-adv-x="1182" d="M140 -1v1041h200v-681q0 -20 -2 -45t-6 -50q20 45 40 73l478 653q11 17 30 33.5t43 16.5h120v-1040h-200v680q0 20 2 45.5t6 50.5q-10 -22 -20 -40.5t-20 -33.5l-478 -652q-11 -18 -29.5 -34.5t-42.5 -16.5h-121zM308 1256v130h594v-130h-594z" />
<glyph unicode="&#x4e4;" horiz-adv-x="1567" d="M181 0v1470h219v-1011q0 -46 -2.5 -97t-9.5 -107q18 49 38.5 91.5t41.5 75.5l658 980q15 26 40 47t57 21h162v-1470h-218v1012q0 46 2 96.5t11 105.5q-19 -49 -40 -91t-41 -74l-658 -980q-15 -26 -40 -47.5t-57 -21.5h-163zM455 1705q0 25 9.5 47t25.5 38t37 26t44 10 q25 0 47 -10t38.5 -26t26 -38t9.5 -47t-9.5 -46t-26 -36.5t-38.5 -25t-47 -9.5q-24 0 -44.5 9.5t-36.5 25t-25.5 36.5t-9.5 46zM889 1705q0 25 9 47t25.5 38t38 26t46.5 10q24 0 45 -10t37.5 -26t26 -38t9.5 -47t-9.5 -46t-26 -36.5t-38 -25t-44.5 -9.5q-25 0 -46.5 9.5 t-38 25t-25.5 36.5t-9 46z" />
<glyph unicode="&#x4e5;" horiz-adv-x="1182" d="M140 -1v1041h200v-681q0 -20 -2 -45t-6 -50q20 45 40 73l478 653q11 17 30 33.5t43 16.5h120v-1040h-200v680q0 20 2 45.5t6 50.5q-10 -22 -20 -40.5t-20 -33.5l-478 -652q-11 -18 -29.5 -34.5t-42.5 -16.5h-121zM285 1321q0 26 10 48.5t26 39t37.5 26.5t46.5 10 t47.5 -10t39 -26.5t27 -39t10.5 -48.5q0 -25 -10.5 -47t-27 -38t-39.5 -25.5t-47 -9.5q-25 0 -46.5 9.5t-37.5 25.5t-26 38t-10 47zM680 1321q0 26 10 48.5t26.5 39t39 26.5t46.5 10q25 0 47.5 -10t39 -26.5t26 -39t9.5 -48.5q0 -25 -9.5 -47t-26 -38t-39 -25.5t-47.5 -9.5 t-47 9.5t-38.5 25.5t-26.5 38t-10 47z" />
<glyph unicode="&#x4e6;" horiz-adv-x="1643" d="M91 735q0 164 53.5 302.5t149 238t230 155.5t297.5 56q164 0 298 -56t230.5 -155.5t149 -238t52.5 -302.5q0 -165 -52.5 -302.5t-149 -237.5t-230.5 -155t-298 -55q-163 0 -297.5 55t-230 155t-149 237.5t-53.5 302.5zM313 735q0 -132 36 -236t102.5 -176.5t160.5 -111 t209 -38.5q116 0 209.5 38.5t159.5 111t102 176.5t36 236q0 131 -36 235.5t-102 177.5t-159.5 111.5t-209.5 38.5t-209.5 -38.5t-160 -111.5t-102.5 -177.5t-36 -235.5zM488 1706q0 25 9.5 47t25.5 38t37 26t44 10q25 0 47 -10t38.5 -26t26 -38t9.5 -47t-9.5 -46t-26 -36.5 t-38.5 -25t-47 -9.5q-24 0 -44.5 9.5t-36.5 25t-25.5 36.5t-9.5 46zM922 1706q0 25 9 47t25.5 38t38 26t46.5 10q24 0 45 -10t37.5 -26t26 -38t9.5 -47t-9.5 -46t-26 -36.5t-38 -25t-44.5 -9.5q-25 0 -46.5 9.5t-38 25t-25.5 36.5t-9 46z" />
<glyph unicode="&#x4e7;" horiz-adv-x="1165" d="M81 521q0 123 35.5 222t101 169t158 107.5t208.5 37.5q115 0 207.5 -37.5t157.5 -107.5t99.5 -169t34.5 -222t-34.5 -222t-99.5 -169t-158 -107t-207 -37q-116 0 -208.5 37t-158 107t-101 169t-35.5 222zM265 1321q0 26 10 48.5t26 39t37.5 26.5t46.5 10t47.5 -10 t39 -26.5t27 -39t10.5 -48.5q0 -25 -10.5 -47t-27 -38t-39.5 -25.5t-47 -9.5q-25 0 -46.5 9.5t-37.5 25.5t-26 38t-10 47zM288 520q0 -180 73 -279.5t223 -99.5q147 0 220 99.5t73 279.5t-73 280t-220 100q-150 0 -223 -100t-73 -280zM660 1321q0 26 10 48.5t26.5 39 t39 26.5t46.5 10q25 0 47.5 -10t39 -26.5t26 -39t9.5 -48.5q0 -25 -9.5 -47t-26 -38t-39 -25.5t-47.5 -9.5t-47 9.5t-38.5 25.5t-26.5 38t-10 47z" />
<glyph unicode="&#x4e8;" horiz-adv-x="1643" d="M91 735q0 164 53.5 302.5t149 238t230 155.5t297.5 56q164 0 298 -56t230.5 -155.5t149 -238t52.5 -302.5q0 -165 -52.5 -302.5t-149 -237.5t-230.5 -155t-298 -55q-163 0 -297.5 55t-230 155t-149 237.5t-53.5 302.5zM316 666q9 -116 48.5 -207.5t105.5 -155t155 -97 t196 -33.5q108 0 197 33.5t154 97t104.5 155t48.5 207.5h-1009zM318 830h1005q-12 110 -52.5 197t-105 147.5t-151.5 92t-193 31.5q-104 0 -191 -31.5t-152 -92t-106 -147.5t-54 -197z" />
<glyph unicode="&#x4e9;" horiz-adv-x="1165" d="M81 521q0 123 35.5 222t101 169t158 107.5t208.5 37.5q115 0 207.5 -37.5t157.5 -107.5t99.5 -169t34.5 -222t-34.5 -222t-99.5 -169t-158 -107t-207 -37q-116 0 -208.5 37t-158 107t-101 169t-35.5 222zM289 473q9 -160 81.5 -246t213.5 -86q138 0 210 86t82 246h-587z M290 582h584q-11 153 -83 235.5t-207 82.5q-137 0 -210 -83t-84 -235z" />
<glyph unicode="&#x4ea;" horiz-adv-x="1643" d="M91 735q0 164 53.5 302.5t149 238t230 155.5t297.5 56q164 0 298 -56t230.5 -155.5t149 -238t52.5 -302.5q0 -165 -52.5 -302.5t-149 -237.5t-230.5 -155t-298 -55q-163 0 -297.5 55t-230 155t-149 237.5t-53.5 302.5zM316 666q9 -116 48.5 -207.5t105.5 -155t155 -97 t196 -33.5q108 0 197 33.5t154 97t104.5 155t48.5 207.5h-1009zM318 830h1005q-12 110 -52.5 197t-105 147.5t-151.5 92t-193 31.5q-104 0 -191 -31.5t-152 -92t-106 -147.5t-54 -197zM491 1706q0 25 9.5 47t25.5 38t37 26t44 10q25 0 47 -10t38.5 -26t26 -38t9.5 -47 t-9.5 -46t-26 -36.5t-38.5 -25t-47 -9.5q-24 0 -44.5 9.5t-36.5 25t-25.5 36.5t-9.5 46zM925 1706q0 25 9 47t25.5 38t38 26t46.5 10q24 0 45 -10t37.5 -26t26 -38t9.5 -47t-9.5 -46t-26 -36.5t-38 -25t-44.5 -9.5q-25 0 -46.5 9.5t-38 25t-25.5 36.5t-9 46z" />
<glyph unicode="&#x4eb;" horiz-adv-x="1165" d="M81 521q0 123 35.5 222t101 169t158 107.5t208.5 37.5q115 0 207.5 -37.5t157.5 -107.5t99.5 -169t34.5 -222t-34.5 -222t-99.5 -169t-158 -107t-207 -37q-116 0 -208.5 37t-158 107t-101 169t-35.5 222zM265 1321q0 26 10 48.5t26 39t37.5 26.5t46.5 10t47.5 -10 t39 -26.5t27 -39t10.5 -48.5q0 -25 -10.5 -47t-27 -38t-39.5 -25.5t-47 -9.5q-25 0 -46.5 9.5t-37.5 25.5t-26 38t-10 47zM289 473q9 -160 81.5 -246t213.5 -86q138 0 210 86t82 246h-587zM290 582h584q-11 153 -83 235.5t-207 82.5q-137 0 -210 -83t-84 -235zM660 1321 q0 26 10 48.5t26.5 39t39 26.5t46.5 10q25 0 47.5 -10t39 -26.5t26 -39t9.5 -48.5q0 -25 -9.5 -47t-26 -38t-39 -25.5t-47.5 -9.5t-47 9.5t-38.5 25.5t-26.5 38t-10 47z" />
<glyph unicode="&#x4ec;" horiz-adv-x="1379" d="M53 207l86 94q13 14 32 14q10 0 19.5 -4.5t17.5 -11.5q37 -34 75 -58t81 -39.5t93.5 -23t113.5 -7.5q96 0 181.5 33.5t151 97t107 155t51.5 209.5h-727v164h725q-12 111 -53.5 198t-106 147t-149 91.5t-184.5 31.5q-93 0 -155.5 -19t-105 -43.5t-68.5 -44t-45 -19.5 q-17 0 -27.5 7.5t-18.5 18.5l-71 101q89 85 211 136.5t279 51.5q160 0 292.5 -55.5t228 -154.5t148 -237.5t52.5 -304.5t-49.5 -304t-141.5 -237.5t-222 -154.5t-289 -55q-182 0 -312 58t-220 165zM258 1705q0 25 9.5 47t25.5 38t37 26t44 10q25 0 47 -10t38.5 -26t26 -38 t9.5 -47t-9.5 -46t-26 -36.5t-38.5 -25t-47 -9.5q-24 0 -44.5 9.5t-36.5 25t-25.5 36.5t-9.5 46zM692 1705q0 25 9 47t25.5 38t38 26t46.5 10q24 0 45 -10t37.5 -26t26 -38t9.5 -47t-9.5 -46t-26 -36.5t-38 -25t-44.5 -9.5q-25 0 -46.5 9.5t-38 25t-25.5 36.5t-9 46z" />
<glyph unicode="&#x4ed;" horiz-adv-x="990" d="M56 148l55 68q13 18 37 18q19 0 38.5 -14.5t48 -32t70.5 -32.5t107 -15q123 0 202 83t94 239h-481v139h478q-8 71 -32.5 126.5t-62.5 94.5t-90 59.5t-117 20.5q-56 0 -95 -11.5t-66 -25.5t-46 -26t-35 -12t-25 7t-17 18l-51 68q67 66 151.5 101.5t196.5 35.5 q119 0 211 -40.5t155 -111.5t95 -169.5t32 -214.5q0 -127 -35.5 -226.5t-97.5 -168.5t-146.5 -104.5t-182.5 -35.5q-56 0 -110.5 9t-105 28.5t-95 50t-80.5 74.5zM125 1321q0 26 10 48.5t26 39t37.5 26.5t46.5 10t47.5 -10t39 -26.5t27 -39t10.5 -48.5q0 -25 -10.5 -47 t-27 -38t-39.5 -25.5t-47 -9.5q-25 0 -46.5 9.5t-37.5 25.5t-26 38t-10 47zM520 1321q0 26 10 48.5t26.5 39t39 26.5t46.5 10q25 0 47.5 -10t39 -26.5t26 -39t9.5 -48.5q0 -25 -9.5 -47t-26 -38t-39 -25.5t-47.5 -9.5t-47 9.5t-38.5 25.5t-26.5 38t-10 47z" />
<glyph unicode="&#x4ee;" horiz-adv-x="1290" d="M2 1470h204q29 0 45.5 -13.5t29.5 -36.5l343 -633q41 -77 64 -156q11 40 26.5 79.5t34.5 77.5l293 632q8 18 27.5 34t46.5 16h180l-597 -1275q-29 -61 -62 -102t-71.5 -64.5t-82.5 -33t-94 -9.5q-121 0 -121 43v138h74q25 0 50 5t48.5 19t44.5 37.5t39 60.5l69 141z M361 1622v118h581v-118h-581z" />
<glyph unicode="&#x4ef;" horiz-adv-x="1061" d="M17 1040h174q26 0 40.5 -12t20.5 -28l264 -624l16 -48t13 -47q7 25 15 48.5t18 47.5l255 623q7 17 22 28.5t35 11.5h160l-578 -1342q-9 -23 -24.5 -35t-45.5 -12h-148l190 415zM261 1256v130h594v-130h-594z" />
<glyph unicode="&#x4f0;" horiz-adv-x="1290" d="M2 1470h204q29 0 45.5 -13.5t29.5 -36.5l343 -633q41 -77 64 -156q11 40 26.5 79.5t34.5 77.5l293 632q8 18 27.5 34t46.5 16h180l-597 -1275q-29 -61 -62 -102t-71.5 -64.5t-82.5 -33t-94 -9.5q-121 0 -121 43v138h74q25 0 50 5t48.5 19t44.5 37.5t39 60.5l69 141z M316 1706q0 25 9.5 47t25.5 38t37 26t44 10q25 0 47 -10t38.5 -26t26 -38t9.5 -47t-9.5 -46t-26 -36.5t-38.5 -25t-47 -9.5q-24 0 -44.5 9.5t-36.5 25t-25.5 36.5t-9.5 46zM750 1706q0 25 9 47t25.5 38t38 26t46.5 10q24 0 45 -10t37.5 -26t26 -38t9.5 -47t-9.5 -46 t-26 -36.5t-38 -25t-44.5 -9.5q-25 0 -46.5 9.5t-38 25t-25.5 36.5t-9 46z" />
<glyph unicode="&#x4f1;" horiz-adv-x="1061" d="M17 1040h174q26 0 40.5 -12t20.5 -28l264 -624l16 -48t13 -47q7 25 15 48.5t18 47.5l255 623q7 17 22 28.5t35 11.5h160l-578 -1342q-9 -23 -24.5 -35t-45.5 -12h-148l190 415zM238 1321q0 26 10 48.5t26 39t37.5 26.5t46.5 10t47.5 -10t39 -26.5t27 -39t10.5 -48.5 q0 -25 -10.5 -47t-27 -38t-39.5 -25.5t-47 -9.5q-25 0 -46.5 9.5t-37.5 25.5t-26 38t-10 47zM633 1321q0 26 10 48.5t26.5 39t39 26.5t46.5 10q25 0 47.5 -10t39 -26.5t26 -39t9.5 -48.5q0 -25 -9.5 -47t-26 -38t-39 -25.5t-47.5 -9.5t-47 9.5t-38.5 25.5t-26.5 38t-10 47z " />
<glyph unicode="&#x4f2;" horiz-adv-x="1290" d="M2 1470h204q29 0 45.5 -13.5t29.5 -36.5l343 -633q41 -77 64 -156q11 40 26.5 79.5t34.5 77.5l293 632q8 18 27.5 34t46.5 16h180l-597 -1275q-29 -61 -62 -102t-71.5 -64.5t-82.5 -33t-94 -9.5q-121 0 -121 43v138h74q25 0 50 5t48.5 19t44.5 37.5t39 60.5l69 141z M402 1583l148 233q14 24 36.5 35.5t57.5 11.5h132l-211 -249q-16 -14 -30 -22.5t-38 -8.5h-95zM723 1583l190 233q18 23 40.5 35t58.5 12h151l-257 -249q-17 -15 -34 -23t-40 -8h-109z" />
<glyph unicode="&#x4f3;" horiz-adv-x="1061" d="M17 1040h174q26 0 40.5 -12t20.5 -28l264 -624l16 -48t13 -47q7 25 15 48.5t18 47.5l255 623q7 17 22 28.5t35 11.5h160l-578 -1342q-9 -23 -24.5 -35t-45.5 -12h-148l190 415zM330 1192l139 248q13 24 31 35.5t54 11.5h131l-204 -264q-13 -17 -28.5 -24t-39.5 -7h-83z M601 1192l184 248q8 11 15.5 19.5t17 15t21.5 9.5t30 3h146l-251 -264q-15 -17 -29.5 -24t-37.5 -7h-96z" />
<glyph unicode="&#x4f4;" horiz-adv-x="1361" d="M90 989v481h219v-482q0 -97 38 -157.5t118 -85.5t203.5 -15.5t293.5 52.5v688h218v-1470h-218v625q-118 -31 -228.5 -48.5t-207.5 -15.5t-177.5 26t-137.5 75t-89 131t-32 196zM312 1706q0 25 9.5 47t25.5 38t37 26t44 10q25 0 47 -10t38.5 -26t26 -38t9.5 -47t-9.5 -46 t-26 -36.5t-38.5 -25t-47 -9.5q-24 0 -44.5 9.5t-36.5 25t-25.5 36.5t-9.5 46zM746 1706q0 25 9 47t25.5 38t38 26t46.5 10q24 0 45 -10t37.5 -26t26 -38t9.5 -47t-9.5 -46t-26 -36.5t-38 -25t-44.5 -9.5q-25 0 -46.5 9.5t-38 25t-25.5 36.5t-9 46z" />
<glyph unicode="&#x4f5;" horiz-adv-x="1060" d="M80 696v344h201v-313q0 -72 27.5 -114.5t82.5 -59t137.5 -10t192.5 30.5v466h200v-1040h-200v433q-134 -35 -251 -42.5t-204 20.5t-136.5 97.5t-49.5 187.5zM190 1321q0 26 10 48.5t26 39t37.5 26.5t46.5 10t47.5 -10t39 -26.5t27 -39t10.5 -48.5q0 -25 -10.5 -47 t-27 -38t-39.5 -25.5t-47 -9.5q-25 0 -46.5 9.5t-37.5 25.5t-26 38t-10 47zM585 1321q0 26 10 48.5t26.5 39t39 26.5t46.5 10q25 0 47.5 -10t39 -26.5t26 -39t9.5 -48.5q0 -25 -9.5 -47t-26 -38t-39 -25.5t-47.5 -9.5t-47 9.5t-38.5 25.5t-26.5 38t-10 47z" />
<glyph unicode="&#x4f6;" horiz-adv-x="1105" d="M181 0v1470h891v-171h-672v-1128h222v-463q0 -29 -19.5 -46t-50.5 -17h-130v355h-241z" />
<glyph unicode="&#x4f7;" horiz-adv-x="852" d="M139 0v1040h682v-151h-482v-737h191v-447q0 -29 -16 -45t-42 -16h-123v356h-210z" />
<glyph unicode="&#x4f8;" horiz-adv-x="1851" d="M181 0v1470h218v-625h275q136 0 234.5 -30.5t162.5 -83.5t94 -126.5t30 -159.5q0 -101 -35 -183.5t-102 -141t-164 -89.5t-221 -31h-492zM399 173h274q83 0 141 18.5t95 51.5t54 79.5t17 101.5q0 58 -17 104t-53.5 78t-94.5 49t-141 17h-275v-499zM594 1706q0 25 9.5 47 t25.5 38t37 26t44 10q25 0 47 -10t38.5 -26t26 -38t9.5 -47t-9.5 -46t-26 -36.5t-38.5 -25t-47 -9.5q-24 0 -44.5 9.5t-36.5 25t-25.5 36.5t-9.5 46zM1028 1706q0 25 9 47t25.5 38t38 26t46.5 10q24 0 45 -10t37.5 -26t26 -38t9.5 -47t-9.5 -46t-26 -36.5t-38 -25 t-44.5 -9.5q-25 0 -46.5 9.5t-38 25t-25.5 36.5t-9 46zM1451 0v1470h219v-1470h-219z" />
<glyph unicode="&#x4f9;" horiz-adv-x="1487" d="M140 0v1040h191v-401h212q108 0 182 -26t119 -69.5t65 -100.5t20 -118q0 -71 -25 -131t-74.5 -103t-120.5 -67t-163 -24h-406zM331 146h215q102 0 153.5 50t51.5 127q0 35 -11.5 66t-36 54t-64 37t-96.5 14h-212v-348zM417 1321q0 26 10 48.5t26 39t37.5 26.5t46.5 10 t47.5 -10t39 -26.5t27 -39t10.5 -48.5q0 -25 -10.5 -47t-27 -38t-39.5 -25.5t-47 -9.5q-25 0 -46.5 9.5t-37.5 25.5t-26 38t-10 47zM812 1321q0 26 10 48.5t26.5 39t39 26.5t46.5 10q25 0 47.5 -10t39 -26.5t26 -39t9.5 -48.5q0 -25 -9.5 -47t-26 -38t-39 -25.5t-47.5 -9.5 t-47 9.5t-38.5 25.5t-26.5 38t-10 47zM1148 0v1040h200v-1040h-200z" />
<glyph unicode="&#x4fa;" horiz-adv-x="1211" d="M38 679v165h248v626h891v-171h-672v-455h350v-165h-350v-508h221v-256q0 -65 -15 -117.5t-48 -90.5t-86 -59t-128 -21q-43 0 -82 9.5t-85 28.5l15 82q7 25 20.5 32.5t25.5 7.5q13 0 36.5 -7.5t56.5 -7.5q66 0 90.5 44t24.5 123v61h-265v679h-248z" />
<glyph unicode="&#x4fb;" horiz-adv-x="942" d="M46 461v144h184v435h682v-151h-482v-284h216v-144h-216v-309h191v-198q0 -65 -15 -123.5t-48 -103.5t-85.5 -72.5t-129.5 -27.5q-42 0 -81 9.5t-85 28.5l16 82q7 25 20 32.5t25 7.5q14 0 37.5 -7.5t56.5 -7.5q66 0 90 44t24 123v61h-216v461h-184z" />
<glyph unicode="&#x4fc;" horiz-adv-x="1421" d="M14 0l503 757l-481 713h216q24 0 35 -7t19 -21l372 -577q8 27 22 49l349 524q9 16 20 24t29 8h208l-485 -704l389 -597h196v-215q0 -65 -15 -123.5t-47.5 -103.5t-85.5 -72.5t-130 -27.5q-42 0 -80.5 9.5t-84.5 28.5l15 82q7 25 20.5 32.5t24.5 7.5q14 0 37.5 -7.5 t56.5 -7.5q66 0 90.5 44t24.5 123v61h-127q-24 0 -38 13t-23 27l-379 605q-8 -26 -20 -44l-370 -561q-10 -14 -23 -27t-34 -13h-204z" />
<glyph unicode="&#x4fd;" horiz-adv-x="1125" d="M18 0l363 536l-348 504h191q24 0 35 -7t20 -21l246 -380q7 30 27 61l213 315q9 16 20.5 24t28.5 8h183l-348 -495l262 -394v1h191v-198q0 -65 -15 -123.5t-47.5 -103.5t-85.5 -72.5t-130 -27.5q-42 0 -80.5 9.5t-85.5 28.5l16 82q6 25 19.5 32.5t25.5 7.5q13 0 37 -7.5 t57 -7.5q66 0 90.5 44t24.5 123v61h-109q-24 0 -37.5 13t-22.5 27l-251 396q-8 -31 -24 -56l-229 -340q-11 -14 -24.5 -27t-33.5 -13h-179z" />
<glyph unicode="&#x4fe;" horiz-adv-x="1431" d="M62 0l445 670h-361v165h365l-428 635h217q24 0 34.5 -7t18.5 -21l372 -577q8 27 23 49l348 524q18 33 49 32h208l-437 -635h369v-165h-354l438 -670h-217q-24 0 -38 13t-22 27l-380 605q-8 -26 -20 -44l-369 -561q-10 -14 -23.5 -27t-34.5 -13h-203z" />
<glyph unicode="&#x4ff;" horiz-adv-x="1099" d="M53 0l318 468h-265v145h255l-293 427h191q24 0 35 -7t19 -21l247 -380q7 30 27 61l213 315q9 16 20 24t29 8h183l-300 -427h261v-145h-258l312 -468h-193q-24 0 -37.5 13t-22.5 27l-251 396q-8 -31 -24 -56l-229 -340q-11 -14 -24.5 -27t-34.5 -13h-178z" />
<glyph unicode="&#x2000;" horiz-adv-x="972" />
<glyph unicode="&#x2001;" horiz-adv-x="1944" />
<glyph unicode="&#x2002;" horiz-adv-x="972" />
<glyph unicode="&#x2003;" horiz-adv-x="1944" />
<glyph unicode="&#x2004;" horiz-adv-x="648" />
<glyph unicode="&#x2005;" horiz-adv-x="486" />
<glyph unicode="&#x2006;" horiz-adv-x="324" />
<glyph unicode="&#x2007;" horiz-adv-x="324" />
<glyph unicode="&#x2008;" horiz-adv-x="243" />
<glyph unicode="&#x2009;" horiz-adv-x="388" />
<glyph unicode="&#x200a;" horiz-adv-x="108" />
<glyph unicode="&#x2010;" horiz-adv-x="761" d="M125 530v170h512v-170h-512z" />
<glyph unicode="&#x2011;" horiz-adv-x="761" d="M125 530v170h512v-170h-512z" />
<glyph unicode="&#x2012;" horiz-adv-x="761" d="M125 530v170h512v-170h-512z" />
<glyph unicode="&#x2013;" d="M183 535v145h822v-145h-822z" />
<glyph unicode="&#x2014;" horiz-adv-x="1627" d="M129 535v145h1369v-145h-1369z" />
<glyph unicode="&#x2018;" horiz-adv-x="441" d="M107.5 1287q12.5 81 53 155t107.5 132l63 -38q16 -11 14 -27t-11 -26q-25 -31 -44 -76.5t-25 -99t4.5 -110.5t42.5 -113q14 -24 8 -42t-26 -26l-123 -49q-45 75 -60.5 157t-3 163z" />
<glyph unicode="&#x2019;" horiz-adv-x="440" d="M102 1027q2 16 11 25q26 31 45 76.5t25 99.5t-4 111t-43 113q-14 24 -8 42t26 26l122 49q45 -75 61 -157.5t3.5 -163t-53.5 -154.5t-108 -133l-62 39q-17 11 -15 27z" />
<glyph unicode="&#x201a;" horiz-adv-x="442" d="M88 -263q2 16 11 25q26 31 45 76.5t25 99.5t-4 111t-43 113q-14 24 -8 42t26 26l122 49q45 -75 61 -157.5t3.5 -163t-53.5 -154.5t-108 -133l-62 39q-17 11 -15 27z" />
<glyph unicode="&#x201c;" horiz-adv-x="759" d="M107.5 1287q12.5 81 53 155t107.5 132l63 -38q16 -11 14 -27t-11 -26q-25 -31 -44 -76.5t-25 -99t4.5 -110.5t42.5 -113q14 -24 8 -42t-26 -26l-123 -49q-45 75 -60.5 157t-3 163zM425.5 1287q12.5 81 53 155t107.5 132l63 -38q16 -11 14 -27t-11 -26q-25 -31 -44 -76.5 t-25 -99t4.5 -110.5t42.5 -113q14 -24 8 -42t-26 -26l-123 -49q-45 75 -60.5 157t-3 163z" />
<glyph unicode="&#x201d;" horiz-adv-x="758" d="M102 1027q2 16 11 25q26 31 45 76.5t25 99.5t-4 111t-43 113q-14 24 -8 42t26 26l122 49q45 -75 61 -157.5t3.5 -163t-53.5 -154.5t-108 -133l-62 39q-17 11 -15 27zM421 1027q2 16 11 25q26 31 45 76.5t25 99.5t-4 111t-43 113q-14 24 -8 42t26 26l122 49 q45 -75 61 -157.5t3.5 -163t-53.5 -154.5t-108 -133l-62 39q-17 11 -15 27z" />
<glyph unicode="&#x201e;" horiz-adv-x="760" d="M88 -263q2 16 11 25q26 31 45 76.5t25 99.5t-4 111t-43 113q-14 24 -8 42t26 26l122 49q45 -75 61 -157.5t3.5 -163t-53.5 -154.5t-108 -133l-62 39q-17 11 -15 27zM406 -263q2 16 11 25q26 31 45 76.5t25 99.5t-4 111t-43 113q-14 24 -8 42t26 26l122 49 q45 -75 61 -157.5t3.5 -163t-53.5 -154.5t-108 -133l-62 39q-17 11 -15 27z" />
<glyph unicode="&#x2026;" horiz-adv-x="1547" d="M108 120q0 28 10 52.5t28 42.5t42.5 29t53.5 11q28 0 52 -11t42.5 -29t29.5 -43t11 -52q0 -29 -11 -53.5t-29.5 -43t-43 -28.5t-51.5 -10q-29 0 -53.5 10t-42.5 28.5t-28 43t-10 53.5zM639 120q0 28 10 52.5t28 42.5t42.5 29t53.5 11q28 0 52 -11t42.5 -29t29.5 -43 t11 -52q0 -29 -11 -53.5t-29.5 -43t-43 -28.5t-51.5 -10q-29 0 -53.5 10t-42.5 28.5t-28 43t-10 53.5zM1171 120q0 28 10 52.5t28 42.5t42.5 29t53.5 11q28 0 52 -11t42.5 -29t29.5 -43t11 -52q0 -29 -11 -53.5t-29.5 -43t-43 -28.5t-51.5 -10q-29 0 -53.5 10t-42.5 28.5 t-28 43t-10 53.5z" />
<glyph unicode="&#x202f;" horiz-adv-x="388" />
<glyph unicode="&#x2039;" horiz-adv-x="580" d="M100 531v27l257 399l65 -30q27 -13 31 -35t-11 -48l-156 -261q-16 -26 -30 -38q7 -7 14.5 -16.5t15.5 -22.5l156 -260q14 -27 10.5 -49t-30.5 -34l-65 -32z" />
<glyph unicode="&#x203a;" horiz-adv-x="581" d="M129 197q-4 22 10 49l157 260q15 26 30 39q-8 6 -15 15.5t-15 22.5l-157 261q-14 27 -10 48t31 35l64 30l257 -399v-27l-257 -400l-64 32q-27 12 -31 34z" />
<glyph unicode="&#x205f;" horiz-adv-x="486" />
<glyph unicode="&#x20ac;" d="M25 562v115h132q-1 14 -1 28.5v29.5q0 20 0.5 40t1.5 39h-133v115h146q22 128 71 231t121.5 175t166.5 111t204 39q138 0 236.5 -52.5t169.5 -142.5l-69 -77q-8 -10 -17.5 -17t-25.5 -7q-17 0 -36 19t-50 41.5t-78 41.5t-122 19q-142 0 -236.5 -97t-127.5 -284h549v-63 q0 -19 -15.5 -35.5t-42.5 -16.5h-504q-1 -19 -2 -38.5t-1 -40.5v-29.5t2 -28.5h466v-63q0 -19 -15 -35.5t-42 -16.5h-399q29 -201 123 -301.5t235 -100.5q54 0 94 10t70 26t51 34.5t36.5 34.5t28.5 26t26 10q10 0 17 -3t15 -11l85 -80q-73 -105 -180 -163.5t-253 -58.5 q-119 0 -214 40.5t-165.5 115.5t-115 182t-61.5 239h-141z" />
<glyph unicode="&#x2122;" horiz-adv-x="1540" d="M89 1354v116h501v-116h-180v-492h-141v492h-180zM682 862v608h119q18 0 27 -3.5t20 -17.5l163 -298q13 -27 22 -59q5 15 11 30t13 29l164 298q11 14 19.5 17.5t26.5 3.5h118v-608h-122v356l10 84l-180 -335q-7 -15 -20 -23t-29 -8h-20q-35 0 -48 31l-180 333l9 -82v-356 h-123z" />
<glyph unicode="&#x25fc;" horiz-adv-x="1039" d="M0 0v1039h1039v-1039h-1039z" />
</font>
</defs>
</svg>
